<svg width="40" height="41" viewBox="0 0 40 41" fill="none" xmlns="http://www.w3.org/2000/svg">
<rect x="0.5" y="0.289551" width="39" height="40" rx="8" fill="#E1306C"/>
<ellipse cx="20" cy="20.2896" rx="19.5" ry="20" fill="#E1306C"/>
<path fill-rule="evenodd" clip-rule="evenodd" d="M13.9347 8.78955C11.1295 8.78955 8.8125 11.1291 8.8125 14.0687V26.6269C8.8125 29.5665 11.1295 31.9061 13.9347 31.9061H26.179C28.9841 31.9061 31.3011 29.5665 31.3011 26.6269V14.0687C31.3011 11.1291 28.9841 8.78955 26.179 8.78955H13.9347ZM6.8125 14.0687C6.8125 10.0725 9.97748 6.78955 13.9347 6.78955H26.179C30.1361 6.78955 33.3011 10.0725 33.3011 14.0687V26.6269C33.3011 30.6231 30.1361 33.9061 26.179 33.9061H13.9347C9.97748 33.9061 6.8125 30.6231 6.8125 26.6269V14.0687ZM20.678 16.3129C19.8728 16.1904 19.0495 16.3311 18.324 16.7172C17.5981 17.1035 17.0049 17.7173 16.6329 18.4754C16.2607 19.2338 16.1304 20.0952 16.2624 20.9363C16.3943 21.7772 16.7809 22.5504 17.3628 23.1472C17.9443 23.7436 18.6908 24.1334 19.4947 24.2661C20.2984 24.3987 21.1233 24.2685 21.8532 23.8917C22.5835 23.5147 23.184 22.9086 23.565 22.1554C23.9462 21.4019 24.0868 20.5422 23.965 19.6995C23.8407 18.84 23.4507 18.0481 22.8572 17.4393C22.264 16.831 21.4995 16.4378 20.678 16.3129ZM17.3844 14.9517C18.4878 14.3645 19.7459 14.1481 20.9787 14.3356C22.2362 14.5269 23.3963 15.1273 24.2892 16.0431C25.1817 16.9586 25.7604 18.1406 25.9444 19.4133C26.1248 20.6609 25.9174 21.936 25.3496 23.0583C24.7817 24.1808 23.8807 25.0958 22.7706 25.6688C21.6602 26.2421 20.3995 26.4425 19.169 26.2394C17.9387 26.0364 16.8061 25.4412 15.9308 24.5434C15.0557 23.6459 14.4819 22.4917 14.2865 21.2463C14.0912 20.001 14.2833 18.7234 14.8374 17.5943C15.3917 16.4648 16.2815 15.5386 17.3844 14.9517ZM26.7912 12.4408C26.2389 12.4408 25.7912 12.8885 25.7912 13.4408C25.7912 13.9931 26.2389 14.4408 26.7912 14.4408H26.8052C27.3575 14.4408 27.8052 13.9931 27.8052 13.4408C27.8052 12.8885 27.3575 12.4408 26.8052 12.4408H26.7912Z" fill="white"/>
</svg>
