<svg width="40" height="41" viewBox="0 0 40 41" fill="none" xmlns="http://www.w3.org/2000/svg">
<g clip-path="url(#clip0_284_2758)">
<rect x="0.5" y="0.289551" width="39" height="40" rx="8" fill="#FF0000"/>
<ellipse cx="20" cy="20.2896" rx="19.5" ry="20" fill="#FF0000"/>
<path d="M30.8647 14.8258C30.7331 14.263 30.4651 13.7474 30.0877 13.3309C29.7103 12.9145 29.237 12.6121 28.7154 12.4541C26.8098 11.9561 19.1875 11.9561 19.1875 11.9561C19.1875 11.9561 11.5652 11.9561 9.65959 12.5015C9.13804 12.6595 8.66467 12.9619 8.28729 13.3784C7.9099 13.7948 7.64187 14.3105 7.51027 14.8733C7.16152 16.9432 6.99092 19.0431 7.00063 21.1464C6.9882 23.2656 7.15881 25.3815 7.51027 27.4671C7.65536 28.0124 7.92939 28.5084 8.3059 28.9072C8.6824 29.3061 9.14865 29.5943 9.65959 29.7439C11.5652 30.2894 19.1875 30.2894 19.1875 30.2894C19.1875 30.2894 26.8098 30.2894 28.7154 29.7439C29.237 29.586 29.7103 29.2835 30.0877 28.8671C30.4651 28.4506 30.7331 27.935 30.8647 27.3722C31.2108 25.3178 31.3814 23.2339 31.3744 21.1464C31.3868 19.0273 31.2162 16.9114 30.8647 14.8258Z" fill="white" stroke="white" stroke-linecap="round" stroke-linejoin="round"/>
<path d="M16.7507 25.2894L23.2507 21.1227L16.7507 16.9561V25.2894Z" fill="#FF0000"/>
</g>
<defs>
<clipPath id="clip0_284_2758">
<rect x="0.5" y="0.289551" width="39" height="40" rx="8" fill="white"/>
</clipPath>
</defs>
</svg>
