<svg width="41" height="41" viewBox="0 0 41 41" fill="none" xmlns="http://www.w3.org/2000/svg">
<rect x="0.5" y="0.289551" width="40" height="40" rx="8" fill="#1DA1F2"/>
<mask id="path-2-inside-1_284_2752" fill="white">
<path d="M11.5916 11.1694L18.6294 21.4294L11.7406 29.4094H13.2669L19.3034 22.4119L24.1034 29.4094H29.87L22.5172 18.691L29.0056 11.1694H27.4841L21.8422 17.7057L17.3581 11.1694H11.5916ZM13.4141 12.1294H16.8528L28.0475 28.4494H24.6087L13.4141 12.1294Z"/>
</mask>
<path d="M11.5916 11.1694L18.6294 21.4294L11.7406 29.4094H13.2669L19.3034 22.4119L24.1034 29.4094H29.87L22.5172 18.691L29.0056 11.1694H27.4841L21.8422 17.7057L17.3581 11.1694H11.5916ZM13.4141 12.1294H16.8528L28.0475 28.4494H24.6087L13.4141 12.1294Z" fill="white"/>
<path d="M11.5916 11.1694V9.16943H7.79436L9.94227 12.3008L11.5916 11.1694ZM18.6294 21.4294L20.1433 22.7363L21.1507 21.5694L20.2786 20.2981L18.6294 21.4294ZM11.7406 29.4094L10.2267 28.1025L7.37199 31.4094H11.7406V29.4094ZM13.2669 29.4094V31.4094H14.1829L14.7812 30.7158L13.2669 29.4094ZM19.3034 22.4119L20.9527 21.2806L19.4845 19.1402L17.7891 21.1055L19.3034 22.4119ZM24.1034 29.4094L22.4542 30.5408L23.05 31.4094H24.1034V29.4094ZM29.87 29.4094V31.4094H33.6673L31.5192 28.2781L29.87 29.4094ZM22.5172 18.691L21.0028 17.3846L19.9962 18.5515L20.8679 19.8224L22.5172 18.691ZM29.0056 11.1694L30.52 12.4758L33.3722 9.16943H29.0056V11.1694ZM27.4841 11.1694V9.16943H26.5684L25.9701 9.8626L27.4841 11.1694ZM21.8422 17.7057L20.193 18.8371L21.6608 20.9767L23.3562 19.0125L21.8422 17.7057ZM17.3581 11.1694L19.0073 10.038L18.4115 9.16943H17.3581V11.1694ZM13.4141 12.1294V10.1294H9.61685L11.7648 13.2608L13.4141 12.1294ZM16.8528 12.1294L18.5021 10.9981L17.9062 10.1294H16.8528V12.1294ZM28.0475 28.4494V30.4494H31.8447L29.6968 27.3181L28.0475 28.4494ZM24.6087 28.4494L22.9595 29.5808L23.5553 30.4494H24.6087V28.4494ZM9.94227 12.3008L16.9801 22.5608L20.2786 20.2981L13.2408 10.0381L9.94227 12.3008ZM17.1154 20.1225L10.2267 28.1025L13.2545 30.7163L20.1433 22.7363L17.1154 20.1225ZM11.7406 31.4094H13.2669V27.4094H11.7406V31.4094ZM14.7812 30.7158L20.8178 23.7183L17.7891 21.1055L11.7525 28.103L14.7812 30.7158ZM17.6542 23.5433L22.4542 30.5408L25.7527 28.2781L20.9527 21.2806L17.6542 23.5433ZM24.1034 31.4094H29.87V27.4094H24.1034V31.4094ZM31.5192 28.2781L24.1664 17.5596L20.8679 19.8224L28.2207 30.5408L31.5192 28.2781ZM24.0316 19.9974L30.52 12.4758L27.4912 9.86305L21.0028 17.3846L24.0316 19.9974ZM29.0056 9.16943H27.4841V13.1694H29.0056V9.16943ZM25.9701 9.8626L20.3282 16.3989L23.3562 19.0125L28.9981 12.4763L25.9701 9.8626ZM23.4914 16.5743L19.0073 10.038L15.7089 12.3008L20.193 18.8371L23.4914 16.5743ZM17.3581 9.16943H11.5916V13.1694H17.3581V9.16943ZM13.4141 14.1294H16.8528V10.1294H13.4141V14.1294ZM15.2035 13.2608L26.3982 29.5808L29.6968 27.3181L18.5021 10.9981L15.2035 13.2608ZM28.0475 26.4494H24.6087V30.4494H28.0475V26.4494ZM26.258 27.3181L15.0633 10.9981L11.7648 13.2608L22.9595 29.5808L26.258 27.3181Z" fill="white" mask="url(#path-2-inside-1_284_2752)"/>
<path d="M17.0935 12.1167H13.2827C13.2827 12.1167 24.435 28.8621 24.7496 28.6174C25.0643 28.3727 28.2456 28.6174 28.2456 28.6174L17.0935 12.1167Z" fill="white"/>
</svg>
