<svg width="40" height="40" viewBox="0 0 40 40" fill="none" xmlns="http://www.w3.org/2000/svg">
<path fill-rule="evenodd" clip-rule="evenodd" d="M10.3041 11.8668C8.2046 11.8668 6.49323 10.1534 6.49323 8.05391C6.49323 5.95446 8.2046 4.24104 10.3041 4.24104C12.4056 4.24104 14.117 5.95446 14.117 8.05391C14.117 10.1534 12.4056 11.8668 10.3041 11.8668ZM29.7964 11.8668C27.6969 11.8668 25.9855 10.1534 25.9855 8.05391C25.9855 5.95446 27.6969 4.24104 29.7964 4.24104C31.8979 4.24104 33.6093 5.95446 33.6093 8.05391C33.6093 10.1534 31.8979 11.8668 29.7964 11.8668ZM20.0003 9.39697C17.9008 9.39697 16.1895 7.68363 16.1895 5.5841C16.1895 3.48465 17.9008 1.77124 20.0003 1.77124C22.1018 1.77124 23.8132 3.48465 23.8132 5.5841C23.8132 7.68363 22.1018 9.39697 20.0003 9.39697ZM3.34193 16.9003C4.47856 14.1748 7.16774 12.2589 10.3041 12.2589C11.0973 12.2589 11.8618 12.3814 12.5798 12.6083C12.3461 12.9748 12.1388 13.3599 11.9605 13.7607C11.7137 13.7998 11.482 13.9122 11.297 14.0863C11.0451 14.3234 10.9022 14.6541 10.9022 15V16.9003H3.34193ZM29.0983 16.9003V15C29.0983 14.6541 28.9555 14.3234 28.7035 14.0862C28.5189 13.9124 28.2875 13.8001 28.0411 13.7608C27.8673 13.3697 27.6658 12.9935 27.439 12.6349C28.1807 12.3909 28.9731 12.2589 29.7964 12.2589C32.9345 12.2589 35.6239 14.1748 36.7595 16.9003H29.0983ZM29.0818 23.5184C30.1409 21.9691 30.8142 20.1353 30.963 18.1552H38.8238V21.9544L35.7054 23.1546C35.3104 24.8164 34.6488 26.4013 33.7564 27.8579L35.1104 30.9148L31.5099 34.5154L28.4529 33.1614C27.0014 34.0589 25.4114 34.7154 23.7496 35.1104L22.5494 38.2288H17.4563L16.2561 35.1104C14.5891 34.7154 13.0043 34.0538 11.5477 33.1614L8.49072 34.5154L4.89017 30.9148L6.24939 27.8579C5.35182 26.4064 4.69527 24.8164 4.29519 23.1546L1.17676 21.9544V18.1552H9.03762C9.18625 20.1367 9.8595 21.9717 10.919 23.5216C11.1961 28.4632 14.8938 32.6323 19.7857 33.4839C19.9281 33.5087 20.0738 33.5087 20.2162 33.4839C25.1079 32.6321 28.8061 28.4614 29.0818 23.5184ZM26.6335 13.7402C24.4941 13.5869 22.5176 12.677 20.5217 11.7668C20.191 11.6159 19.811 11.6159 19.4802 11.7668C17.4844 12.677 15.5082 13.5868 13.3683 13.7402C14.6448 11.387 17.136 9.78912 20.0003 9.78912C22.8661 9.78912 25.3578 11.3871 26.6335 13.7402ZM20.0009 12.9085C22.5334 14.0636 25.0499 15.1692 27.8434 15V22.9251C27.8434 27.5157 24.4917 31.4656 20.0009 32.2476C15.5089 31.4656 12.1571 27.5157 12.1571 22.9251V15C14.9521 15.1692 17.4685 14.0636 20.0009 12.9085ZM15.2497 22.9993L17.8899 25.6396C18.3505 26.1028 19.0985 26.1028 19.559 25.6396C21.8252 23.3761 22.5034 22.6672 24.7557 20.3926C25.2135 19.932 25.2135 19.1868 24.7502 18.7264C24.2896 18.2687 23.5444 18.2714 23.0867 18.7319L18.7244 23.136L16.9187 21.3303C16.4554 20.8698 15.7102 20.8698 15.2497 21.3303C14.7864 21.7908 14.7864 22.5388 15.2497 22.9993Z" fill="url(#paint0_linear_737_663)"/>
<defs>
<linearGradient id="paint0_linear_737_663" x1="20.0003" y1="1.77124" x2="20.0003" y2="38.2288" gradientUnits="userSpaceOnUse">
<stop stop-color="#009600" stop-opacity="0.92"/>
<stop offset="1" stop-color="#0063C7"/>
</linearGradient>
</defs>
</svg>
