<svg width="41" height="40" viewBox="0 0 41 40" fill="none" xmlns="http://www.w3.org/2000/svg">
<path d="M36.884 21.8666C35.4194 21.4908 34 20.9571 32.6507 20.275C32.234 20.0666 31.8507 19.8666 31.5007 19.675C30.809 19.2916 30.259 18.95 29.9007 18.7166C29.8802 18.7022 29.8577 18.691 29.834 18.6833C29.5698 18.5293 29.2684 18.451 28.9626 18.4569C28.6569 18.4627 28.3587 18.5526 28.1006 18.7166C25.9505 20.1227 23.5945 21.1854 21.1173 21.8666C20.7526 21.9552 20.4281 22.1634 20.1955 22.4579C19.9629 22.7524 19.8357 23.1163 19.834 23.4916V24.9166C19.8331 26.9746 20.3408 29.0009 21.312 30.8153C22.2832 32.6297 23.6877 34.176 25.4007 35.3166L26.1757 35.8333L28.0757 37.1C28.2263 37.1992 28.3925 37.2724 28.5673 37.3166H28.5757C28.7123 37.3637 28.8562 37.3863 29.0007 37.3833C29.3299 37.3805 29.6513 37.282 29.9257 37.1L32.6007 35.3166C34.3136 34.176 35.7181 32.6297 36.6893 30.8153C37.6605 29.0009 38.1682 26.9746 38.1673 24.9166V23.4916C38.1656 23.1163 38.0384 22.7524 37.8058 22.4579C37.5732 22.1634 37.2487 21.9552 36.884 21.8666ZM32.0923 26.425L28.759 29.7583C28.601 29.9132 28.3886 30 28.1673 30C27.9461 30 27.7336 29.9132 27.5757 29.7583L25.909 28.0916C25.7521 27.9347 25.6639 27.7219 25.6639 27.5C25.6639 27.278 25.7521 27.0652 25.909 26.9083C26.0659 26.7514 26.2787 26.6632 26.5007 26.6632C26.7226 26.6632 26.9354 26.7514 27.0923 26.9083L28.1673 27.9916L30.909 25.2416C30.9867 25.1639 31.0789 25.1023 31.1804 25.0602C31.282 25.0182 31.3908 24.9966 31.5007 24.9966C31.6105 24.9966 31.7193 25.0182 31.8209 25.0602C31.9224 25.1023 32.0146 25.1639 32.0923 25.2416C32.17 25.3193 32.2316 25.4116 32.2737 25.5131C32.3158 25.6146 32.3374 25.7234 32.3374 25.8333C32.3374 25.9432 32.3158 26.052 32.2737 26.1535C32.2316 26.255 32.17 26.3473 32.0923 26.425Z" fill="url(#paint0_linear_737_668)"/>
<path d="M30.317 11.0334L23.192 3.75011C22.9363 3.49132 22.6477 3.26719 22.3337 3.08344V9.16678C22.3356 9.82921 22.5997 10.4639 23.0681 10.9324C23.5365 11.4008 24.1712 11.6648 24.8337 11.6668H30.8253C30.675 11.441 30.5049 11.2291 30.317 11.0334ZM31.4503 13.3334H24.8337C23.7286 13.3334 22.6688 12.8945 21.8874 12.1131C21.106 11.3317 20.667 10.2718 20.667 9.16678V2.53344C20.5182 2.50992 20.3677 2.49877 20.217 2.50011H7.33366C6.22859 2.50011 5.16878 2.93909 4.38738 3.7205C3.60598 4.5019 3.16699 5.56171 3.16699 6.66677V33.3334C3.16699 34.4385 3.60598 35.4983 4.38738 36.2797C5.16878 37.0611 6.22859 37.5001 7.33366 37.5001H25.6753L24.4753 36.7001C22.5337 35.4086 20.9416 33.6568 19.8409 31.6009C18.7403 29.545 18.1652 27.2488 18.167 24.9168V23.4918C18.1673 22.9764 18.2871 22.4681 18.517 22.0069C18.7469 21.5456 19.0807 21.144 19.492 20.8334H9.00033C8.77931 20.8334 8.56735 20.7456 8.41107 20.5894C8.25479 20.4331 8.16699 20.2211 8.16699 20.0001C8.16699 19.7791 8.25479 19.5671 8.41107 19.4109C8.56735 19.2546 8.77931 19.1668 9.00033 19.1668H23.7837C24.9637 18.6347 26.1029 18.0163 27.192 17.3168C27.6806 17.0064 28.241 16.8272 28.819 16.7965C29.3971 16.7659 29.9733 16.8848 30.492 17.1418L30.5503 17.1668L30.8003 17.3168C30.9753 17.4334 31.2087 17.5751 31.5003 17.7501V13.9501C31.5006 13.7435 31.4839 13.5373 31.4503 13.3334ZM18.167 30.0001C18.167 30.2211 18.0792 30.4331 17.9229 30.5894C17.7666 30.7456 17.5547 30.8334 17.3337 30.8334H9.00033C8.77931 30.8334 8.56735 30.7456 8.41107 30.5894C8.25479 30.4331 8.16699 30.2211 8.16699 30.0001C8.16699 29.7791 8.25479 29.5671 8.41107 29.4109C8.56735 29.2546 8.77931 29.1668 9.00033 29.1668H17.3337C17.5547 29.1668 17.7666 29.2546 17.9229 29.4109C18.0792 29.5671 18.167 29.7791 18.167 30.0001ZM9.00033 24.1668H15.667C15.888 24.1668 16.1 24.2546 16.2562 24.4109C16.4125 24.5671 16.5003 24.7791 16.5003 25.0001C16.5003 25.2211 16.4125 25.4331 16.2562 25.5894C16.1 25.7456 15.888 25.8334 15.667 25.8334H9.00033C8.77931 25.8334 8.56735 25.7456 8.41107 25.5894C8.25479 25.4331 8.16699 25.2211 8.16699 25.0001C8.16699 24.7791 8.25479 24.5671 8.41107 24.4109C8.56735 24.2546 8.77931 24.1668 9.00033 24.1668ZM9.00033 9.16678H15.667C15.888 9.16678 16.1 9.25457 16.2562 9.41085C16.4125 9.56713 16.5003 9.77909 16.5003 10.0001C16.5003 10.2211 16.4125 10.4331 16.2562 10.5894C16.1 10.7456 15.888 10.8334 15.667 10.8334H9.00033C8.77931 10.8334 8.56735 10.7456 8.41107 10.5894C8.25479 10.4331 8.16699 10.2211 8.16699 10.0001C8.16699 9.77909 8.25479 9.56713 8.41107 9.41085C8.56735 9.25457 8.77931 9.16678 9.00033 9.16678ZM20.667 15.8334H9.00033C8.77931 15.8334 8.56735 15.7456 8.41107 15.5894C8.25479 15.4331 8.16699 15.2211 8.16699 15.0001C8.16699 14.7791 8.25479 14.5671 8.41107 14.4109C8.56735 14.2546 8.77931 14.1668 9.00033 14.1668H20.667C20.888 14.1668 21.1 14.2546 21.2562 14.4109C21.4125 14.5671 21.5003 14.7791 21.5003 15.0001C21.5003 15.2211 21.4125 15.4331 21.2562 15.5894C21.1 15.7456 20.888 15.8334 20.667 15.8334Z" fill="url(#paint1_linear_737_668)"/>
<defs>
<linearGradient id="paint0_linear_737_668" x1="29.0007" y1="18.4565" x2="29.0007" y2="37.3836" gradientUnits="userSpaceOnUse">
<stop stop-color="#009600" stop-opacity="0.92"/>
<stop offset="1" stop-color="#0063C7"/>
</linearGradient>
<linearGradient id="paint1_linear_737_668" x1="17.3337" y1="2.5" x2="17.3337" y2="37.5001" gradientUnits="userSpaceOnUse">
<stop stop-color="#009600" stop-opacity="0.92"/>
<stop offset="1" stop-color="#0063C7"/>
</linearGradient>
</defs>
</svg>
