<svg width="41" height="44" viewBox="0 0 41 44" fill="none" xmlns="http://www.w3.org/2000/svg">
<g clip-path="url(#clip0_737_673)">
<path d="M36.1563 24.7998V23.783H35.8871H34.3574V24.7998H35.8871H36.1563Z" fill="url(#paint0_linear_737_673)"/>
<path d="M39.6852 23.783H37.71V24.7998H39.6852V23.783Z" fill="url(#paint1_linear_737_673)"/>
<path d="M40.3327 14.5112H35.8881H32.9629L33.0868 15.2312H35.8881H40.3327V14.5112Z" fill="url(#paint2_linear_737_673)"/>
<path d="M30.8174 10.619V10.6207L31.1017 13.096L31.6524 17.8927H32.7076L32.3939 16.0702H32.3706L31.9578 13.6725H40.3318V13.2554C40.3318 13.2019 40.33 13.1489 40.3268 13.0961C40.2427 11.7201 39.0777 10.6184 37.6668 10.6184L37.6675 10.6192H30.8174V10.619Z" fill="url(#paint3_linear_737_673)"/>
<path d="M39.6852 20.844H37.71V21.3853H39.6852V20.844Z" fill="url(#paint4_linear_737_673)"/>
<path d="M36.4382 33.3767H0.333008V34.9035C0.333008 36.3553 1.53301 37.5431 2.99714 37.5431H17.6072L17.606 37.5452L15.0539 41.9223H12.7748C12.454 41.9223 12.1915 42.182 12.1915 42.4996C12.1915 42.8171 12.454 43.0769 12.7748 43.0769H27.8906C28.2114 43.0769 28.4739 42.8196 28.4739 42.4996C28.4739 42.1796 28.2114 41.9223 27.8906 41.9223H25.6115L23.0594 37.5452L23.0582 37.5431H37.6683C39.1324 37.5431 40.3333 36.3553 40.3333 34.9035V33.3767H36.4385H36.4382Z" fill="url(#paint5_linear_737_673)"/>
<path d="M5.37099 23.783H3.86621V24.7998H5.37099V23.783Z" fill="url(#paint6_linear_737_673)"/>
<path d="M2.31265 23.783H0.749023V24.7998H2.31265V23.783Z" fill="url(#paint7_linear_737_673)"/>
<path d="M5.56289 17.5695H6.76045L6.82709 16.8496H5.56289H0.333984V17.5695H4.16006H5.56289Z" fill="url(#paint8_linear_737_673)"/>
<path d="M5.37099 20.844H3.86621V21.3853H5.37099V20.844Z" fill="url(#paint9_linear_737_673)"/>
<path d="M2.31265 20.844H0.749023V21.3853H2.31265V20.844Z" fill="url(#paint10_linear_737_673)"/>
<path d="M5.56289 15.2312H6.97673L7.04322 14.5112H5.56289H0.333984V15.2312H4.16006H5.56289Z" fill="url(#paint11_linear_737_673)"/>
<path d="M32.8051 20.844H31.1826V21.3853H32.8051V20.844Z" fill="url(#paint12_linear_737_673)"/>
<path d="M29.6286 20.844H28.1826V21.3853H29.6286V20.844Z" fill="url(#paint13_linear_737_673)"/>
<path d="M27.4353 27.2307H30.6671H31.8329H35.8874H40.3321V25.6387H35.8874H31.8329H30.6671H27.4353H26.2712H22.3418V27.2307H26.2712H27.4353Z" fill="url(#paint14_linear_737_673)"/>
<path d="M29.6287 23.783H28.1826V24.3364V24.7998H29.6287V24.3364V23.783Z" fill="url(#paint15_linear_737_673)"/>
<path d="M13.5791 17.8943V18.4462H27.2866V17.8943V17.6289H13.5791V17.8943Z" fill="url(#paint16_linear_737_673)"/>
<path d="M26.6304 20.844H25.2432V21.3853H26.6304V20.844Z" fill="url(#paint17_linear_737_673)"/>
<path d="M14.0158 20.844H12.4229V21.3853H14.0158V20.844Z" fill="url(#paint18_linear_737_673)"/>
<path d="M20.543 20.844H18.7734V21.3853H20.543V20.844Z" fill="url(#paint19_linear_737_673)"/>
<path d="M17.2202 20.844H15.5684V21.3853H17.2202V20.844Z" fill="url(#paint20_linear_737_673)"/>
<path d="M23.6897 20.844H22.0967V21.3853H23.6897V20.844Z" fill="url(#paint21_linear_737_673)"/>
<path d="M7.78176 20.844H6.92383V21.3853H7.78176V20.844Z" fill="url(#paint22_linear_737_673)"/>
<path d="M10.8692 20.844H9.33496V21.3853H10.8692V20.844Z" fill="url(#paint23_linear_737_673)"/>
<path d="M9.99969 24.7998H10.8692V24.3356V23.783H9.33496V24.7998H9.99969Z" fill="url(#paint24_linear_737_673)"/>
<path d="M26.6304 24.7998V23.783H25.2432V24.0883V24.7998H26.2718H26.6304Z" fill="url(#paint25_linear_737_673)"/>
<path d="M12.4229 24.7998H13.2317H14.0158V23.783H12.4229V24.3356V24.7998Z" fill="url(#paint26_linear_737_673)"/>
<path d="M23.6897 23.783H22.0967V24.7998H23.6897V23.783Z" fill="url(#paint27_linear_737_673)"/>
<path d="M17.2202 23.783H15.5684V24.7998H17.2202V23.783Z" fill="url(#paint28_linear_737_673)"/>
<path d="M20.543 23.783H18.7734V24.7998H20.543V23.783Z" fill="url(#paint29_linear_737_673)"/>
<path d="M32.8051 24.7998V24.1529V23.783H31.1826V24.7998H31.8333H32.8051Z" fill="url(#paint30_linear_737_673)"/>
<path d="M34.3574 20.844V21.3853H35.8871H36.1563V20.844H35.8871H34.3574Z" fill="url(#paint31_linear_737_673)"/>
<path d="M33.3887 16.8496L33.5126 17.5695H35.888H40.3327V16.8496H35.888H33.3887Z" fill="url(#paint32_linear_737_673)"/>
<path d="M7.97177 13.6723L7.75564 16.0105L7.58155 17.8941H9.18522L9.62435 13.0959L9.85087 10.6206H2.99811C1.58886 10.6206 0.42447 11.7211 0.339181 13.0959C0.335819 13.1494 0.333984 13.2033 0.333984 13.2576V13.6723H7.97177Z" fill="url(#paint33_linear_737_673)"/>
<path d="M6.92383 24.7998H7.78176V24.0507V23.783H7.70182H6.92383V24.7998Z" fill="url(#paint34_linear_737_673)"/>
<path d="M8.83245 27.2307H9.9999H13.2316H14.3966H18.5248V25.6387H14.3966H13.2316H9.9999H8.83245H5.56289H0.333984V27.2307H5.56289H8.83245Z" fill="url(#paint35_linear_737_673)"/>
<path d="M6.8115 32.2226H35.8878V32.2202H40.3325V28.0695H35.8878H31.8332H30.6675H27.4357H26.2716H21.4946V27.278V26.2021H19.3723V27.278V28.0695H14.3966H13.2316H9.9999H8.83245H5.56289H0.333984V32.2226H5.56289H6.8115Z" fill="url(#paint36_linear_737_673)"/>
<path d="M7.70153 22.944H8.86654H14.3632H15.5299H25.1374H26.3041H31.8007H32.964H35.8878H40.3325V22.2783V22.2241H35.8878H32.964H31.8007H26.3041H25.1374H15.5299H14.3632H8.86654H7.70153H5.56289H0.333984V22.2783V22.944H5.56289H7.70153Z" fill="url(#paint37_linear_737_673)"/>
<path d="M6.81074 20.005H40.3325V19.2851H30.96L30.933 19.0499L30.9255 18.9853L30.8 17.8926L30.2493 13.0959L29.9651 10.6207V10.619L29.9494 10.4831L10.72 10.4207L10.7016 10.6207L10.4751 13.0959L10.1352 16.8108L9.93616 18.9853L9.9302 19.0499L9.90865 19.2851H0.333984V20.005H6.81059H6.81074ZM12.7322 19.0499V16.79H28.1348V19.2851H12.7322V19.0499Z" fill="url(#paint38_linear_737_673)"/>
</g>
<path d="M11.8679 7.87595L28.7994 7.93863L28.8131 8.07525H29.5641L29.4658 7.0976L20.7262 7.0652L20.7105 5.36002H20.7075V3.7624L24.9948 2.06453L19.7862 0V1.54497V5.36002H19.7881L19.8007 7.0617L11.1864 7.02975L11.1025 8.07692H11.8518L11.8679 7.87595Z" fill="url(#paint39_linear_737_673)"/>
<path d="M29.5641 8.84632H11.1025L11.2459 8.18915L11.2704 8.07709L11.4382 7.30786H29.2284L29.5641 8.84632Z" fill="url(#paint40_linear_737_673)"/>
<path d="M11.2704 8.07709L11.2459 8.18915M11.2459 8.18915L11.1025 8.84632H29.5641L29.2284 7.30786H11.4382L11.2459 8.18915Z" stroke="url(#paint41_linear_737_673)"/>
<defs>
<linearGradient id="paint0_linear_737_673" x1="35.2569" y1="23.783" x2="35.2569" y2="24.7998" gradientUnits="userSpaceOnUse">
<stop stop-color="#009600" stop-opacity="0.92"/>
<stop offset="1" stop-color="#0063C7"/>
</linearGradient>
<linearGradient id="paint1_linear_737_673" x1="38.6976" y1="23.783" x2="38.6976" y2="24.7998" gradientUnits="userSpaceOnUse">
<stop stop-color="#009600" stop-opacity="0.92"/>
<stop offset="1" stop-color="#0063C7"/>
</linearGradient>
<linearGradient id="paint2_linear_737_673" x1="36.6478" y1="14.5112" x2="36.6478" y2="15.2312" gradientUnits="userSpaceOnUse">
<stop stop-color="#009600" stop-opacity="0.92"/>
<stop offset="1" stop-color="#0063C7"/>
</linearGradient>
<linearGradient id="paint3_linear_737_673" x1="35.5746" y1="10.6184" x2="35.5746" y2="17.8927" gradientUnits="userSpaceOnUse">
<stop stop-color="#009600" stop-opacity="0.92"/>
<stop offset="1" stop-color="#0063C7"/>
</linearGradient>
<linearGradient id="paint4_linear_737_673" x1="38.6976" y1="20.844" x2="38.6976" y2="21.3853" gradientUnits="userSpaceOnUse">
<stop stop-color="#009600" stop-opacity="0.92"/>
<stop offset="1" stop-color="#0063C7"/>
</linearGradient>
<linearGradient id="paint5_linear_737_673" x1="20.3332" y1="33.3767" x2="20.3332" y2="43.0769" gradientUnits="userSpaceOnUse">
<stop stop-color="#009600" stop-opacity="0.92"/>
<stop offset="1" stop-color="#0063C7"/>
</linearGradient>
<linearGradient id="paint6_linear_737_673" x1="4.6186" y1="23.783" x2="4.6186" y2="24.7998" gradientUnits="userSpaceOnUse">
<stop stop-color="#009600" stop-opacity="0.92"/>
<stop offset="1" stop-color="#0063C7"/>
</linearGradient>
<linearGradient id="paint7_linear_737_673" x1="1.53084" y1="23.783" x2="1.53084" y2="24.7998" gradientUnits="userSpaceOnUse">
<stop stop-color="#009600" stop-opacity="0.92"/>
<stop offset="1" stop-color="#0063C7"/>
</linearGradient>
<linearGradient id="paint8_linear_737_673" x1="3.58054" y1="16.8496" x2="3.58054" y2="17.5695" gradientUnits="userSpaceOnUse">
<stop stop-color="#009600" stop-opacity="0.92"/>
<stop offset="1" stop-color="#0063C7"/>
</linearGradient>
<linearGradient id="paint9_linear_737_673" x1="4.6186" y1="20.844" x2="4.6186" y2="21.3853" gradientUnits="userSpaceOnUse">
<stop stop-color="#009600" stop-opacity="0.92"/>
<stop offset="1" stop-color="#0063C7"/>
</linearGradient>
<linearGradient id="paint10_linear_737_673" x1="1.53084" y1="20.844" x2="1.53084" y2="21.3853" gradientUnits="userSpaceOnUse">
<stop stop-color="#009600" stop-opacity="0.92"/>
<stop offset="1" stop-color="#0063C7"/>
</linearGradient>
<linearGradient id="paint11_linear_737_673" x1="3.6886" y1="14.5112" x2="3.6886" y2="15.2312" gradientUnits="userSpaceOnUse">
<stop stop-color="#009600" stop-opacity="0.92"/>
<stop offset="1" stop-color="#0063C7"/>
</linearGradient>
<linearGradient id="paint12_linear_737_673" x1="31.9939" y1="20.844" x2="31.9939" y2="21.3853" gradientUnits="userSpaceOnUse">
<stop stop-color="#009600" stop-opacity="0.92"/>
<stop offset="1" stop-color="#0063C7"/>
</linearGradient>
<linearGradient id="paint13_linear_737_673" x1="28.9056" y1="20.844" x2="28.9056" y2="21.3853" gradientUnits="userSpaceOnUse">
<stop stop-color="#009600" stop-opacity="0.92"/>
<stop offset="1" stop-color="#0063C7"/>
</linearGradient>
<linearGradient id="paint14_linear_737_673" x1="31.3369" y1="25.6387" x2="31.3369" y2="27.2307" gradientUnits="userSpaceOnUse">
<stop stop-color="#009600" stop-opacity="0.92"/>
<stop offset="1" stop-color="#0063C7"/>
</linearGradient>
<linearGradient id="paint15_linear_737_673" x1="28.9057" y1="23.783" x2="28.9057" y2="24.7998" gradientUnits="userSpaceOnUse">
<stop stop-color="#009600" stop-opacity="0.92"/>
<stop offset="1" stop-color="#0063C7"/>
</linearGradient>
<linearGradient id="paint16_linear_737_673" x1="20.4329" y1="17.6289" x2="20.4329" y2="18.4462" gradientUnits="userSpaceOnUse">
<stop stop-color="#009600" stop-opacity="0.92"/>
<stop offset="1" stop-color="#0063C7"/>
</linearGradient>
<linearGradient id="paint17_linear_737_673" x1="25.9368" y1="20.844" x2="25.9368" y2="21.3853" gradientUnits="userSpaceOnUse">
<stop stop-color="#009600" stop-opacity="0.92"/>
<stop offset="1" stop-color="#0063C7"/>
</linearGradient>
<linearGradient id="paint18_linear_737_673" x1="13.2193" y1="20.844" x2="13.2193" y2="21.3853" gradientUnits="userSpaceOnUse">
<stop stop-color="#009600" stop-opacity="0.92"/>
<stop offset="1" stop-color="#0063C7"/>
</linearGradient>
<linearGradient id="paint19_linear_737_673" x1="19.6582" y1="20.844" x2="19.6582" y2="21.3853" gradientUnits="userSpaceOnUse">
<stop stop-color="#009600" stop-opacity="0.92"/>
<stop offset="1" stop-color="#0063C7"/>
</linearGradient>
<linearGradient id="paint20_linear_737_673" x1="16.3943" y1="20.844" x2="16.3943" y2="21.3853" gradientUnits="userSpaceOnUse">
<stop stop-color="#009600" stop-opacity="0.92"/>
<stop offset="1" stop-color="#0063C7"/>
</linearGradient>
<linearGradient id="paint21_linear_737_673" x1="22.8932" y1="20.844" x2="22.8932" y2="21.3853" gradientUnits="userSpaceOnUse">
<stop stop-color="#009600" stop-opacity="0.92"/>
<stop offset="1" stop-color="#0063C7"/>
</linearGradient>
<linearGradient id="paint22_linear_737_673" x1="7.35279" y1="20.844" x2="7.35279" y2="21.3853" gradientUnits="userSpaceOnUse">
<stop stop-color="#009600" stop-opacity="0.92"/>
<stop offset="1" stop-color="#0063C7"/>
</linearGradient>
<linearGradient id="paint23_linear_737_673" x1="10.1021" y1="20.844" x2="10.1021" y2="21.3853" gradientUnits="userSpaceOnUse">
<stop stop-color="#009600" stop-opacity="0.92"/>
<stop offset="1" stop-color="#0063C7"/>
</linearGradient>
<linearGradient id="paint24_linear_737_673" x1="10.1021" y1="23.783" x2="10.1021" y2="24.7998" gradientUnits="userSpaceOnUse">
<stop stop-color="#009600" stop-opacity="0.92"/>
<stop offset="1" stop-color="#0063C7"/>
</linearGradient>
<linearGradient id="paint25_linear_737_673" x1="25.9368" y1="23.783" x2="25.9368" y2="24.7998" gradientUnits="userSpaceOnUse">
<stop stop-color="#009600" stop-opacity="0.92"/>
<stop offset="1" stop-color="#0063C7"/>
</linearGradient>
<linearGradient id="paint26_linear_737_673" x1="13.2193" y1="23.783" x2="13.2193" y2="24.7998" gradientUnits="userSpaceOnUse">
<stop stop-color="#009600" stop-opacity="0.92"/>
<stop offset="1" stop-color="#0063C7"/>
</linearGradient>
<linearGradient id="paint27_linear_737_673" x1="22.8932" y1="23.783" x2="22.8932" y2="24.7998" gradientUnits="userSpaceOnUse">
<stop stop-color="#009600" stop-opacity="0.92"/>
<stop offset="1" stop-color="#0063C7"/>
</linearGradient>
<linearGradient id="paint28_linear_737_673" x1="16.3943" y1="23.783" x2="16.3943" y2="24.7998" gradientUnits="userSpaceOnUse">
<stop stop-color="#009600" stop-opacity="0.92"/>
<stop offset="1" stop-color="#0063C7"/>
</linearGradient>
<linearGradient id="paint29_linear_737_673" x1="19.6582" y1="23.783" x2="19.6582" y2="24.7998" gradientUnits="userSpaceOnUse">
<stop stop-color="#009600" stop-opacity="0.92"/>
<stop offset="1" stop-color="#0063C7"/>
</linearGradient>
<linearGradient id="paint30_linear_737_673" x1="31.9939" y1="23.783" x2="31.9939" y2="24.7998" gradientUnits="userSpaceOnUse">
<stop stop-color="#009600" stop-opacity="0.92"/>
<stop offset="1" stop-color="#0063C7"/>
</linearGradient>
<linearGradient id="paint31_linear_737_673" x1="35.2569" y1="20.844" x2="35.2569" y2="21.3853" gradientUnits="userSpaceOnUse">
<stop stop-color="#009600" stop-opacity="0.92"/>
<stop offset="1" stop-color="#0063C7"/>
</linearGradient>
<linearGradient id="paint32_linear_737_673" x1="36.8607" y1="16.8496" x2="36.8607" y2="17.5695" gradientUnits="userSpaceOnUse">
<stop stop-color="#009600" stop-opacity="0.92"/>
<stop offset="1" stop-color="#0063C7"/>
</linearGradient>
<linearGradient id="paint33_linear_737_673" x1="5.09243" y1="10.6206" x2="5.09243" y2="17.8941" gradientUnits="userSpaceOnUse">
<stop stop-color="#009600" stop-opacity="0.92"/>
<stop offset="1" stop-color="#0063C7"/>
</linearGradient>
<linearGradient id="paint34_linear_737_673" x1="7.35279" y1="23.783" x2="7.35279" y2="24.7998" gradientUnits="userSpaceOnUse">
<stop stop-color="#009600" stop-opacity="0.92"/>
<stop offset="1" stop-color="#0063C7"/>
</linearGradient>
<linearGradient id="paint35_linear_737_673" x1="9.4294" y1="25.6387" x2="9.4294" y2="27.2307" gradientUnits="userSpaceOnUse">
<stop stop-color="#009600" stop-opacity="0.92"/>
<stop offset="1" stop-color="#0063C7"/>
</linearGradient>
<linearGradient id="paint36_linear_737_673" x1="20.3332" y1="26.2021" x2="20.3332" y2="32.2226" gradientUnits="userSpaceOnUse">
<stop stop-color="#009600" stop-opacity="0.92"/>
<stop offset="1" stop-color="#0063C7"/>
</linearGradient>
<linearGradient id="paint37_linear_737_673" x1="20.3332" y1="22.2241" x2="20.3332" y2="22.944" gradientUnits="userSpaceOnUse">
<stop stop-color="#009600" stop-opacity="0.92"/>
<stop offset="1" stop-color="#0063C7"/>
</linearGradient>
<linearGradient id="paint38_linear_737_673" x1="20.3332" y1="10.4207" x2="20.3332" y2="20.005" gradientUnits="userSpaceOnUse">
<stop stop-color="#009600" stop-opacity="0.92"/>
<stop offset="1" stop-color="#0063C7"/>
</linearGradient>
<linearGradient id="paint39_linear_737_673" x1="20.3333" y1="0" x2="20.3333" y2="8.07692" gradientUnits="userSpaceOnUse">
<stop stop-color="#009600" stop-opacity="0.92"/>
<stop offset="1" stop-color="#0063C7"/>
</linearGradient>
<linearGradient id="paint40_linear_737_673" x1="20.3333" y1="7.30786" x2="20.3333" y2="8.84632" gradientUnits="userSpaceOnUse">
<stop stop-color="#009600" stop-opacity="0.92"/>
<stop offset="1" stop-color="#0063C7"/>
</linearGradient>
<linearGradient id="paint41_linear_737_673" x1="20.3333" y1="7.30786" x2="20.3333" y2="8.84632" gradientUnits="userSpaceOnUse">
<stop stop-color="#009600" stop-opacity="0.92"/>
<stop offset="1" stop-color="#0063C7"/>
</linearGradient>
<clipPath id="clip0_737_673">
<rect width="40" height="41.1538" fill="white" transform="translate(0.333008 1.9231)"/>
</clipPath>
</defs>
</svg>
