<svg width="40" height="44" viewBox="0 0 40 44" fill="none" xmlns="http://www.w3.org/2000/svg">
<g clip-path="url(#clip0_737_718)">
<path fill-rule="evenodd" clip-rule="evenodd" d="M2.16309 27.9937L11.2544 22.745L11.7811 23.0477L13.3041 23.9229L8.6648 26.6024C8.41452 26.7472 8.32864 27.0686 8.47423 27.3189L8.50122 27.3606C8.58955 27.5046 8.64599 27.6575 8.66317 27.8097C8.67871 27.9495 8.66153 28.0902 8.60346 28.2227C8.49549 28.4705 8.59446 28.756 8.82348 28.8869L11.2249 30.2659C13.7891 31.7373 12.7863 31.1591 14.414 32.0948C14.5539 32.1758 14.7167 32.1839 14.8573 32.1316C15.2197 31.9966 15.6385 31.9435 16.0613 31.9598C16.5137 31.9778 16.966 32.076 17.3569 32.2396C17.5197 32.3074 17.6972 32.287 17.8362 32.1995L22.7643 29.3539L22.7692 29.3564L24.9179 30.5898L15.825 35.8393L2.16309 27.9937ZM17.2449 19.286C17.9655 19.6999 18.6853 20.1146 19.405 20.5301L24.32 17.6927C24.4615 17.597 24.6463 17.5725 24.8156 17.6428C25.2066 17.8064 25.6589 17.9045 26.1112 17.9225C26.5341 17.9397 26.9529 17.8865 27.3152 17.7516C27.4559 17.6992 27.6187 17.7082 27.7585 17.7884L33.3515 21.0004C33.5806 21.1321 33.6795 21.4175 33.5716 21.6654C33.5135 21.7979 33.4963 21.9386 33.5119 22.0784C33.5298 22.2387 33.592 22.3999 33.6877 22.5504L33.7 22.5708C33.8439 22.8211 33.7572 23.1409 33.5069 23.2849L28.8521 25.9709L30.9027 27.134L40.0005 21.8813L26.3394 14.0349L17.2457 19.2852L17.2449 19.286ZM14.3543 24.5265L9.60788 27.2682C9.65532 27.4072 9.68803 27.5504 9.70439 27.6943C9.72239 27.8546 9.72075 28.0166 9.69621 28.1785L11.7451 29.3547C12.1754 29.6017 11.2176 29.0521 14.7314 31.0707C15.1657 30.944 15.6352 30.8949 16.1014 30.9129C16.5864 30.9325 17.0723 31.0241 17.5107 31.1762L21.7132 28.7511C19.2611 27.3434 16.8089 25.9358 14.3576 24.5281L14.3543 24.5265ZM27.806 25.3665L32.5655 22.6207C32.5181 22.4808 32.4845 22.3385 32.4682 22.1938C32.4502 22.0334 32.4518 21.8715 32.4764 21.7095C31.0769 20.9055 31.6404 21.227 29.594 20.0508L27.4395 18.8124C27.0052 18.9392 26.5357 18.9883 26.0695 18.9695C25.5837 18.9498 25.0978 18.8582 24.6586 18.7053L20.4528 21.1345C21.557 21.7717 22.6612 22.408 23.7662 23.0444C25.1117 23.819 26.458 24.5936 27.8052 25.3665H27.806ZM14.7477 29.201L17.0502 27.8718C17.3005 27.727 17.3864 27.4056 17.2408 27.1553C17.0952 26.905 16.7746 26.8191 16.5243 26.9647L14.2218 28.2939C13.9715 28.4386 13.8856 28.7601 14.0312 29.0104C14.1768 29.2607 14.4975 29.3465 14.7477 29.201ZM25.6892 22.8833L27.7136 21.7144C27.9638 21.5697 28.0497 21.2482 27.9041 20.9979C27.7585 20.7477 27.4379 20.6618 27.1876 20.8074L25.1632 21.9762C24.913 22.121 24.8271 22.4424 24.9727 22.6927C25.1183 22.943 25.4389 23.0289 25.6892 22.8833ZM12.3046 22.1365C13.1634 22.6305 14.0222 23.1237 14.8819 23.6169C17.6849 25.2266 20.4888 26.8355 23.2918 28.4452C24.1834 28.9572 25.0749 29.4692 25.9673 29.9804L25.9771 33.9654L25.9869 37.9479L29.8688 35.7068L29.8524 27.7385C29.8083 27.736 17.3987 20.5849 16.1922 19.8921C14.8942 20.6405 13.5977 21.3889 12.3046 22.1357V22.1365ZM2.16309 31.9811L4.57352 30.5898L15.8258 37.0522L24.9203 31.8011L24.9269 34.5715L15.8241 39.8267L2.16309 31.9811ZM30.9043 28.3462L37.5909 24.4856L39.9997 25.8695L30.91 31.1174L30.9043 28.3462ZM2.16309 35.9693L4.57352 34.578L15.8258 41.0405L24.9301 35.7845L24.9367 38.5548L15.8241 43.8157L2.16309 35.9693ZM30.9125 32.3295L37.5909 28.4738L39.9997 29.8569L30.9182 35.1007L30.9125 32.3295Z" fill="url(#paint0_linear_737_718)"/>
<path d="M23.6033 9.57712C23.591 9.24586 23.3465 8.97022 23.0193 8.91706L21.2787 8.63651C21.0653 8.01324 20.7904 7.41452 20.4584 6.8477L21.3802 5.34516C21.5536 5.06297 21.5037 4.69736 21.2608 4.47243L18.5444 1.95239C18.3015 1.72746 17.9334 1.70456 17.6651 1.89841L16.2362 2.93063C15.6465 2.64191 15.0281 2.41289 14.391 2.24685L13.9804 0.532467C13.9035 0.210203 13.6098 -0.0122739 13.2786 -4.92012e-06L9.57582 0.139043C9.24456 0.151312 8.96891 0.395873 8.91575 0.723044L8.6352 2.4636C8.01194 2.67708 7.41321 2.9519 6.84639 3.28398L5.34385 2.36217C5.06167 2.18877 4.69605 2.23867 4.47112 2.48159L1.95108 5.19793C1.72615 5.44086 1.70325 5.80893 1.8971 6.07721L2.92933 7.50613C2.6406 8.09667 2.41158 8.71421 2.24554 9.35138L0.531159 9.76198C0.210531 9.83886 -0.0127638 10.1325 -0.000494838 10.4638L0.138553 14.1665C0.150822 14.4978 0.395383 14.7734 0.722554 14.8266L2.46311 15.1071C2.67659 15.7296 2.95141 16.3291 3.28349 16.896L2.36168 18.3985C2.18828 18.6807 2.23818 19.0463 2.4811 19.2712L5.19744 21.7913C5.44037 22.0162 5.80844 22.0391 6.07672 21.8452L7.47619 20.8343L7.31261 16.4764C6.18223 15.3599 5.45591 13.8304 5.39129 12.1168C5.25715 8.53835 8.04874 5.52838 11.6272 5.39424C15.2056 5.2601 18.2156 8.05169 18.3497 11.6301C18.4144 13.3437 17.805 14.9239 16.7613 16.1214L16.7703 16.3692L23.708 12.3973L23.6025 9.57876L23.6033 9.57712Z" fill="url(#paint1_linear_737_718)"/>
<path d="M18.9717 21.4503C19.0813 21.4151 19.1835 21.353 19.267 21.2646L18.9717 21.4503Z" fill="url(#paint2_linear_737_718)"/>
<path d="M13.8726 15.787L13.9446 15.7486C15.4414 14.947 16.3321 13.3979 16.2683 11.7064C16.2094 10.145 15.313 8.71932 13.9282 7.98482C13.5716 7.79588 13.1357 8.02736 13.0931 8.42896L12.7799 11.3735L10.9289 11.443L10.3956 8.52956C10.3228 8.13205 9.8713 7.93411 9.5294 8.14923C8.20354 8.98515 7.41587 10.4746 7.47477 12.0352C7.53856 13.7267 8.54216 15.2047 10.0954 15.8917L10.1698 15.9245L10.3252 20.0558L13.9552 17.9783L13.8726 15.7854V15.787Z" fill="url(#paint3_linear_737_718)"/>
</g>
<defs>
<linearGradient id="paint0_linear_737_718" x1="21.0818" y1="14.0349" x2="21.0818" y2="43.8157" gradientUnits="userSpaceOnUse">
<stop stop-color="#009600" stop-opacity="0.92"/>
<stop offset="1" stop-color="#0063C7"/>
</linearGradient>
<linearGradient id="paint1_linear_737_718" x1="11.8535" y1="-0.000488281" x2="11.8535" y2="21.9766" gradientUnits="userSpaceOnUse">
<stop stop-color="#009600" stop-opacity="0.92"/>
<stop offset="1" stop-color="#0063C7"/>
</linearGradient>
<linearGradient id="paint2_linear_737_718" x1="19.1193" y1="21.2646" x2="19.1193" y2="21.4503" gradientUnits="userSpaceOnUse">
<stop stop-color="#009600" stop-opacity="0.92"/>
<stop offset="1" stop-color="#0063C7"/>
</linearGradient>
<linearGradient id="paint3_linear_737_718" x1="11.8716" y1="7.91797" x2="11.8716" y2="20.0558" gradientUnits="userSpaceOnUse">
<stop stop-color="#009600" stop-opacity="0.92"/>
<stop offset="1" stop-color="#0063C7"/>
</linearGradient>
<clipPath id="clip0_737_718">
<rect width="40" height="43.8148" fill="white"/>
</clipPath>
</defs>
</svg>
