<svg width="40" height="40" viewBox="0 0 40 40" fill="none" xmlns="http://www.w3.org/2000/svg">
<path fill-rule="evenodd" clip-rule="evenodd" d="M21.4612 14.819C23.2567 14.819 24.7211 13.3541 24.7211 11.5581V6.34118H30.3233C31.3986 6.34118 32.2784 7.22129 32.2784 8.29694V17.8992C32.2784 18.9748 31.3986 19.8549 30.3233 19.8549H27.7819V24.2568L24.1255 19.8549H18.2523C17.177 19.8549 16.2971 18.9748 16.2971 17.8992V14.819H21.4612ZM7.43514 11.558V1.95576C7.43514 0.880103 8.31495 0 9.39024 0H21.4613C22.5366 0 23.4164 0.880103 23.4164 1.95576V11.558C23.4164 12.6336 22.5365 13.5138 21.4613 13.5138H15.588L11.9317 17.9157V13.5138H9.39032C8.31503 13.5138 7.43514 12.6337 7.43514 11.558ZM18.4151 6.75692C18.4151 7.35761 18.9019 7.84457 19.5025 7.84457C20.103 7.84457 20.5898 7.35761 20.5898 6.75692C20.5898 6.15624 20.103 5.66919 19.5025 5.66919C18.902 5.66919 18.4151 6.15616 18.4151 6.75692ZM14.3385 6.75692C14.3385 7.35761 14.8253 7.84457 15.4258 7.84457C16.0264 7.84457 16.5131 7.35761 16.5131 6.75692C16.5131 6.15624 16.0263 5.66919 15.4258 5.66919C14.8253 5.66919 14.3385 6.15616 14.3385 6.75692ZM10.2618 6.75692C10.2618 7.35761 10.7486 7.84457 11.3492 7.84457C11.9497 7.84457 12.4365 7.35761 12.4365 6.75692C12.4365 6.15624 11.9497 5.66919 11.3492 5.66919C10.7487 5.66919 10.2618 6.15616 10.2618 6.75692ZM35.9679 18.6568C35.2345 20.3409 34.2819 22.2464 33.5173 23.6203C34.5706 25.1529 33.4891 27.1063 32.0103 28.8215C31.1313 29.841 30.1287 30.7608 29.4134 31.4169C29.1875 31.6242 28.9898 31.8054 28.8583 31.9316C28.5972 32.1828 28.182 32.1748 27.9308 31.9135C27.6797 31.6524 27.6877 31.237 27.9487 30.9857C28.1216 30.8199 28.3095 30.6476 28.5244 30.4505C29.2203 29.8121 30.1959 28.9172 31.0184 27.963C31.6616 27.217 32.2237 26.4283 32.4655 25.7158C32.8707 24.5217 32.0232 23.7068 30.9156 23.9849C30.4825 24.0935 30.0017 24.3859 29.4797 24.8984C27.6794 26.666 25.9339 28.1286 23.9495 29.7363C21.093 32.2222 21.2267 36.4994 21.4033 40H29.098C29.4969 36.1439 30.8213 35.5423 32.5588 33.7495C33.366 32.9167 34.4566 32.1443 35.2343 30.0952L39.3503 19.1075C39.6526 18.2253 39.9447 17.1667 40 16.6589C39.3918 15.19 37.5217 15.0881 35.9677 18.6568H35.9679ZM16.0506 24.7436C14.0662 23.1359 12.3207 21.6732 10.5204 19.9057C9.99847 19.3932 9.51763 19.1009 9.08457 18.9921C7.97698 18.7142 7.12947 19.5291 7.53463 20.7231C7.77644 21.4356 8.33851 22.2243 8.98173 22.9703C9.80437 23.9244 10.7798 24.8194 11.4757 25.4577C11.6906 25.6548 11.8785 25.8272 12.0514 25.993C12.3125 26.2442 12.3206 26.6596 12.0694 26.9208C11.8183 27.182 11.403 27.19 11.1419 26.9388C11.0103 26.8127 10.8126 26.6314 10.5867 26.4241C9.87157 25.768 8.86894 24.8482 7.98987 23.8287C6.51105 22.1135 5.42956 20.1601 6.48291 18.6275C5.71826 17.2536 4.76579 15.3481 4.03229 13.664C2.47827 10.0953 0.608232 10.1973 0 11.6661C0.0552938 12.1738 0.34734 13.2325 0.649661 14.1147L4.7657 25.1024C5.54341 27.1515 6.63395 27.9239 7.44117 28.7567C9.17869 30.5495 10.5032 31.1511 10.9021 35.0072H18.5968C18.7734 31.5067 18.9071 27.2295 16.0505 24.7436H16.0506Z" fill="url(#paint0_linear_737_727)"/>
<defs>
<linearGradient id="paint0_linear_737_727" x1="20" y1="0" x2="20" y2="40" gradientUnits="userSpaceOnUse">
<stop stop-color="#009600" stop-opacity="0.92"/>
<stop offset="1" stop-color="#0063C7"/>
</linearGradient>
</defs>
</svg>
