<svg width="41" height="40" viewBox="0 0 41 40" fill="none" xmlns="http://www.w3.org/2000/svg">
<path d="M18.1455 27.825C17.5205 27.65 16.9205 27.4 16.3517 27.075C15.8785 27.6961 14.9496 27.8676 14.3643 27.2937C14.3643 27.2937 13.0393 25.9687 13.0393 25.9687C12.442 25.373 12.6258 24.4721 13.258 23.9812C12.933 23.4125 12.683 22.8125 12.508 22.1875C11.5061 22.2805 10.8625 21.628 10.958 20.625H5.1705V25.5563C5.1705 25.9 4.88925 26.1813 4.5455 26.1813C3.60175 26.1813 2.83301 26.95 2.83301 27.8938C2.83301 28.8375 3.60175 29.6062 4.5455 29.6062C4.88925 29.6062 5.1705 29.8875 5.1705 30.2312V35.1625H9.53925C9.83301 33.825 11.0205 32.825 12.4393 32.825C13.858 32.825 15.0517 33.825 15.3393 35.1625H19.708V29.375C19.708 29.375 19.3955 29.375 19.3955 29.375C18.5606 29.3766 18.0454 28.6133 18.1455 27.825Z" fill="url(#paint0_linear_737_737)"/>
<path d="M19.7077 23.6937C21.9306 24.1213 24.1207 22.2586 24.0828 20C24.1367 17.7818 21.8828 15.8625 19.7079 16.3063C15.5856 17.0277 15.5831 22.9809 19.7077 23.6937Z" fill="url(#paint1_linear_737_737)"/>
<path d="M29.708 20.9374C29.7097 21.7724 28.9464 22.2876 28.158 22.1875C27.983 22.8125 27.733 23.4125 27.408 23.9812L27.6268 24.2C28.1143 24.6875 28.1143 25.4812 27.6268 25.9687L26.3018 27.2937C25.8268 27.7625 25.0017 27.7625 24.533 27.2937L24.3143 27.075C23.7455 27.4 23.1455 27.65 22.5205 27.8249C22.6135 28.8268 21.961 29.4706 20.958 29.375V35.1625H25.8893C26.233 35.1625 26.5143 35.4437 26.5143 35.7875C26.5143 36.7312 27.283 37.5 28.2268 37.5C29.1705 37.5 29.9393 36.7312 29.9393 35.7875C29.9393 35.4437 30.2205 35.1625 30.5643 35.1625H35.4955V30.7875C34.158 30.5 33.158 29.3125 33.158 27.8938C33.158 26.475 34.158 25.2813 35.4955 24.9937V20.625H29.708C29.708 20.625 29.708 20.9375 29.708 20.9374Z" fill="url(#paint2_linear_737_737)"/>
<path d="M36.1205 10.3937C35.7768 10.3937 35.4955 10.1124 35.4955 9.76866V4.8374H31.1268C30.833 6.17491 29.6455 7.1749 28.2268 7.1749C26.808 7.1749 25.6143 6.17491 25.3268 4.8374H20.958V10.6249C21.7558 10.5272 22.5183 11.0266 22.5205 11.8749V12.1749C23.1455 12.3499 23.7455 12.5999 24.3143 12.9249C24.7874 12.3037 25.7164 12.1323 26.3018 12.7061C26.3018 12.7061 27.6268 14.0312 27.6267 14.0311C28.2241 14.6269 28.0401 15.5277 27.408 16.0187C27.733 16.5874 27.983 17.1874 28.158 17.8124C28.158 17.8124 28.458 17.8124 28.458 17.8124C29.3076 17.8174 29.8047 18.5734 29.708 19.3749H35.4955V14.4437C35.4955 14.0999 35.7768 13.8187 36.1205 13.8187C37.0643 13.8187 37.833 13.0499 37.833 12.1062C37.833 11.1624 37.0643 10.3937 36.1205 10.3937Z" fill="url(#paint3_linear_737_737)"/>
<path d="M10.9584 19.0625C10.9568 18.2276 11.72 17.7124 12.5084 17.8125C12.6834 17.1875 12.9334 16.5875 13.2584 16.0187C12.6267 15.5294 12.4422 14.6254 13.0396 14.0313L14.3646 12.7062C14.8397 12.2375 15.6647 12.2375 16.1334 12.7062L16.3521 12.925C16.9209 12.6 17.5209 12.35 18.1459 12.175V11.875C18.1509 11.0253 18.9069 10.5283 19.7084 10.625V4.83749H14.7771C14.4334 4.83749 14.1521 4.55624 14.1521 4.21249C14.1521 3.26874 13.3834 2.5 12.4396 2.5C11.4959 2.5 10.7272 3.26874 10.7272 4.21249C10.7272 4.55624 10.4459 4.83749 10.1022 4.83749H5.1709V9.21249C6.5084 9.50001 7.50839 10.6875 7.50839 12.1062C7.50839 13.525 6.5084 14.7187 5.1709 15.0063V19.375H10.9584C10.9584 19.375 10.9584 19.0625 10.9584 19.0625Z" fill="url(#paint4_linear_737_737)"/>
<path d="M21.2705 11.875C21.2705 11.875 19.3955 11.875 19.3955 11.875C19.3727 12.3636 19.5555 13.1383 18.9018 13.275C18.083 13.45 17.308 13.775 16.5955 14.2375C16.3455 14.4 16.0205 14.3625 15.8143 14.1563L15.2518 13.5938L13.9268 14.9188L14.4893 15.4813C14.6955 15.6875 14.7268 16.0125 14.5705 16.2625C14.108 16.975 13.783 17.75 13.608 18.5688C13.4878 19.2197 12.6784 19.041 12.208 19.0625V20.9376C12.6868 20.9583 13.4862 20.7821 13.608 21.4313C13.783 22.25 14.108 23.025 14.5705 23.7375C14.7268 23.9875 14.6955 24.3125 14.4893 24.5188L13.9268 25.0813L15.2518 26.4063C15.5027 26.1942 15.884 25.628 16.2518 25.6625C16.3705 25.6625 16.4893 25.6938 16.5955 25.7625C17.308 26.225 18.083 26.55 18.9018 26.7251C19.5569 26.8595 19.3721 27.646 19.3955 28.125H21.2705V27.3375C21.2705 27.0376 21.4768 26.7875 21.7643 26.7251C22.583 26.55 23.358 26.225 24.0705 25.7625C24.3205 25.6 24.6455 25.6375 24.8518 25.8438L25.4143 26.4063L26.7393 25.0813L26.1768 24.5188C25.9705 24.3125 25.9393 23.9875 26.0955 23.7375C26.558 23.025 26.883 22.25 27.058 21.4313C27.178 20.7804 27.9877 20.9591 28.458 20.9375V19.0625H27.6705C27.3705 19.0625 27.1143 18.8563 27.058 18.5688C26.883 17.75 26.558 16.975 26.0955 16.2625C25.7305 15.7012 26.4171 15.2725 26.7393 14.9188C26.7393 14.9188 25.4143 13.5938 25.4143 13.5938L24.8518 14.1563C24.6455 14.3625 24.3205 14.4 24.0705 14.2375C23.358 13.775 22.583 13.45 21.7643 13.275C21.1091 13.1406 21.2939 12.354 21.2705 11.875ZM25.3268 20.1563C25.1865 24.7224 19.4112 26.714 16.4893 23.2C14.1701 20.4939 15.5424 16.1002 18.9893 15.1875C22.1201 14.2237 25.5027 16.894 25.3268 20.1563Z" fill="url(#paint5_linear_737_737)"/>
<defs>
<linearGradient id="paint0_linear_737_737" x1="11.2705" y1="20.625" x2="11.2705" y2="35.1625" gradientUnits="userSpaceOnUse">
<stop stop-color="#009600" stop-opacity="0.92"/>
<stop offset="1" stop-color="#0063C7"/>
</linearGradient>
<linearGradient id="paint1_linear_737_737" x1="20.3495" y1="16.2419" x2="20.3495" y2="23.7552" gradientUnits="userSpaceOnUse">
<stop stop-color="#009600" stop-opacity="0.92"/>
<stop offset="1" stop-color="#0063C7"/>
</linearGradient>
<linearGradient id="paint2_linear_737_737" x1="28.2268" y1="20.625" x2="28.2268" y2="37.5" gradientUnits="userSpaceOnUse">
<stop stop-color="#009600" stop-opacity="0.92"/>
<stop offset="1" stop-color="#0063C7"/>
</linearGradient>
<linearGradient id="paint3_linear_737_737" x1="29.3955" y1="4.8374" x2="29.3955" y2="19.3749" gradientUnits="userSpaceOnUse">
<stop stop-color="#009600" stop-opacity="0.92"/>
<stop offset="1" stop-color="#0063C7"/>
</linearGradient>
<linearGradient id="paint4_linear_737_737" x1="12.4396" y1="2.5" x2="12.4396" y2="19.375" gradientUnits="userSpaceOnUse">
<stop stop-color="#009600" stop-opacity="0.92"/>
<stop offset="1" stop-color="#0063C7"/>
</linearGradient>
<linearGradient id="paint5_linear_737_737" x1="20.333" y1="11.875" x2="20.333" y2="28.125" gradientUnits="userSpaceOnUse">
<stop stop-color="#009600" stop-opacity="0.92"/>
<stop offset="1" stop-color="#0063C7"/>
</linearGradient>
</defs>
</svg>
