<svg width="40" height="40" viewBox="0 0 40 40" fill="none" xmlns="http://www.w3.org/2000/svg">
<g clip-path="url(#clip0_737_746)">
<path d="M9.18538 31.4002H19.0506V30.0177C14.8796 29.8302 13.7079 28.4008 13.8017 27.4635V25.7997C17.3166 26.4324 22.6593 26.4324 26.1977 25.7997V27.6041C26.1274 29.3616 23.0108 29.9005 20.9253 30.0177V31.4002H30.814V12.3727H9.18538V31.4002ZM19.988 13.7318C27.1584 13.7318 27.6271 17.153 23.995 18.2543C21.7454 18.9105 18.2305 18.9105 16.0044 18.2543C12.3723 17.153 12.8409 13.7318 19.988 13.7318ZM13.8017 24.7921V22.0973C17.3166 22.7535 22.6593 22.7535 26.1977 22.0973V24.7921C22.5187 25.5186 17.4806 25.5186 13.8017 24.7921ZM13.8017 21.0897V18.1372C16.0512 20.0821 21.6517 19.9181 24.2528 19.1448C24.9089 18.9339 25.6353 18.6058 26.1977 18.1372V21.0897C22.5187 21.8162 17.4572 21.8162 13.8017 21.0897ZM16.2856 38.2426H9.20882C7.9903 38.2426 7.9903 36.368 9.20882 36.368H16.2856V35.5244C16.2856 35.0089 16.7074 34.5871 17.2229 34.5871H19.0506V33.2748H4.2879C3.77238 33.2748 3.35059 32.8531 3.35059 32.3375V9.81849C3.35059 9.44357 3.56148 9.13894 3.86611 8.97491L19.3553 0.117261C19.6833 -0.0467696 20.0583 -0.0233367 20.3395 0.164127L36.1567 8.99834C36.4613 9.16237 36.6253 9.49043 36.6253 9.81849V32.3375C36.6253 32.8531 36.2035 33.2748 35.688 33.2748C30.7671 33.2748 25.8462 33.2748 20.9253 33.2748V34.5871H22.753C23.292 34.5871 23.6904 35.0089 23.6904 35.5244V36.368H30.7671C32.0091 36.368 32.0091 38.2426 30.7671 38.2426H23.6904V39.0628C23.6904 39.5783 23.292 40.0001 22.753 40.0001H17.2229C16.7074 40.0001 16.2856 39.5783 16.2856 39.0628V38.2426Z" fill="url(#paint0_linear_737_746)"/>
</g>
<defs>
<linearGradient id="paint0_linear_737_746" x1="19.988" y1="0.00756836" x2="19.988" y2="40.0001" gradientUnits="userSpaceOnUse">
<stop stop-color="#009600" stop-opacity="0.92"/>
<stop offset="1" stop-color="#0063C7"/>
</linearGradient>
<clipPath id="clip0_737_746">
<rect width="40" height="40" fill="white"/>
</clipPath>
</defs>
</svg>
