<svg width="71" height="69" viewBox="0 0 71 69" fill="none" xmlns="http://www.w3.org/2000/svg">
<path d="M63.4433 39.2783L67.665 36.8408L68.8838 38.9517L64.662 41.3892L63.4433 39.2783Z" fill="#006600"/>
<path d="M50.7336 35.5459C50.5199 35.5463 50.31 35.603 50.1251 35.7101C49.9401 35.8172 49.7866 35.9711 49.68 36.1563C49.5733 36.3415 49.5172 36.5515 49.5173 36.7653C49.5174 36.979 49.5737 37.1889 49.6806 37.374L59.4306 54.2622C59.5079 54.4059 59.6133 54.5326 59.7404 54.6348C59.8676 54.7369 60.014 54.8126 60.171 54.8571C60.3279 54.9017 60.4922 54.9143 60.6541 54.8941C60.816 54.874 60.9722 54.8216 61.1135 54.74C61.2547 54.6584 61.3782 54.5493 61.4765 54.4191C61.5748 54.2889 61.6459 54.1402 61.6857 53.982C61.7255 53.8238 61.7332 53.6592 61.7082 53.498C61.6832 53.3368 61.6261 53.1822 61.5402 53.0435L51.7902 36.1553C51.6832 35.9698 51.5291 35.8159 51.3436 35.7089C51.1581 35.6019 50.9477 35.5457 50.7336 35.5459Z" fill="#006600"/>
<path d="M34.7838 53.0107C34.5039 53.1724 34.2996 53.4386 34.216 53.7508C34.1323 54.063 34.1761 54.3956 34.3377 54.6755L36.7752 58.8973C36.9369 59.1772 37.2031 59.3815 37.5153 59.4651C37.8275 59.5488 38.1601 59.505 38.4401 59.3434L39.4955 58.734L35.8392 52.3965L34.7838 53.0107Z" fill="#006600"/>
<path d="M41.9744 48.4038L46.0243 55.4177L56.419 53.921L48.4691 40.1504L41.9744 48.4038Z" fill="#006600"/>
<path d="M7.4375 17.9375H19.625V27.6875H7.4375V17.9375Z" fill="#006600"/>
<path d="M58.625 16.7188V31.3438H56.1875V10.625H0.125V55.7188C0.125 56.042 0.253404 56.352 0.481964 56.5805C0.710524 56.8091 1.02052 56.9375 1.34375 56.9375H30.5938V59.375H7.4375V63.0312C7.4375 63.3545 7.5659 63.6645 7.79446 63.893C8.02302 64.1216 8.33302 64.25 8.65625 64.25H41.27L39.6612 61.4591C38.8205 61.9425 37.8224 62.0728 36.8857 61.8215C35.949 61.5702 35.1502 60.9578 34.6644 60.1184L32.2269 55.8894C31.9873 55.4741 31.8319 55.0157 31.7697 54.5404C31.7074 54.065 31.7394 53.5821 31.8639 53.1191C31.9884 52.6562 32.203 52.2223 32.4953 51.8423C32.7876 51.4624 33.152 51.1437 33.5675 50.9047L39.6978 47.3581L47.2297 37.7787C46.9799 36.9217 47.053 36.0029 47.4351 35.1961C47.8171 34.3893 48.4817 33.7506 49.3029 33.4008C50.1242 33.0509 51.0452 33.0143 51.8917 33.2978C52.7381 33.5813 53.4513 34.1652 53.8962 34.9391L56.9431 40.2162C57.3593 39.9517 57.8246 39.7741 58.3112 39.694C58.7978 39.614 59.2955 39.6332 59.7745 39.7506C60.2534 39.8679 60.7037 40.0809 61.0982 40.3767C61.4927 40.6726 61.8233 41.0451 62.0701 41.4721C62.3169 41.899 62.4747 42.3714 62.5342 42.8609C62.5936 43.3505 62.5535 43.8469 62.4161 44.3205C62.2787 44.7941 62.0469 45.235 61.7347 45.6167C61.4225 45.9984 61.0363 46.313 60.5994 46.5416L63.5 51.5628V16.7188H58.625ZM31.8125 15.5H34.25V17.9375H31.8125V15.5ZM26.9375 15.5H29.375V17.9375H26.9375V15.5ZM5 16.7188C5 16.3955 5.1284 16.0855 5.35696 15.857C5.58552 15.6284 5.89552 15.5 6.21875 15.5H20.8438C21.167 15.5 21.477 15.6284 21.7055 15.857C21.9341 16.0855 22.0625 16.3955 22.0625 16.7188V28.9062C22.0625 29.2295 21.9341 29.5395 21.7055 29.768C21.477 29.9966 21.167 30.125 20.8438 30.125H6.21875C5.89552 30.125 5.58552 29.9966 5.35696 29.768C5.1284 29.5395 5 29.2295 5 28.9062V16.7188ZM26.9375 52.0625H5V49.625H26.9375V52.0625ZM26.9375 47.1875H5V44.75H26.9375V47.1875ZM26.9375 42.3125H5V39.875H26.9375V42.3125ZM26.9375 37.4375H5V35H26.9375V37.4375ZM46.4375 32.5625H26.9375V30.125H46.4375V32.5625ZM46.4375 27.6875H26.9375V25.25H46.4375V27.6875ZM46.4375 22.8125H26.9375V20.375H46.4375V22.8125ZM46.4375 17.9375H36.6875V15.5H46.4375V17.9375ZM61.7328 37.0353L59.3806 36.4016L60.7213 31.4047L63.0734 32.0384L61.7328 37.0353ZM62.3178 56.8156C61.6103 57.2232 60.7867 57.3823 59.9783 57.2674C59.1699 57.1526 58.4232 56.7704 57.8572 56.1819L48.6312 57.5103L52.3728 63.9697C52.4216 64.055 52.4703 64.1525 52.5191 64.25H62.2812C62.6045 64.25 62.9145 64.1216 63.143 63.893C63.3716 63.6645 63.5 63.3545 63.5 63.0312V55.7066C63.193 56.1593 62.7892 56.5381 62.3178 56.8156Z" fill="#006600"/>
<path d="M37.9491 51.1807L40.0589 49.9625L43.7151 56.2951L41.6053 57.5133L37.9491 51.1807Z" fill="#006600"/>
<path d="M59.8316 42.7695C59.6697 42.4901 59.4037 42.2864 59.0918 42.203C58.7799 42.1196 58.4476 42.1634 58.168 42.3247L59.3867 44.4356C59.5254 44.3554 59.6469 44.2488 59.7443 44.1216C59.8417 43.9945 59.9131 43.8495 59.9544 43.6947C59.9957 43.54 60.0061 43.3787 59.9851 43.2199C59.964 43.0611 59.9118 42.9081 59.8316 42.7695Z" fill="#006600"/>
<path d="M47.7001 68.0694L49.811 66.8506C50.0909 66.689 50.2952 66.4228 50.3788 66.1106C50.4625 65.7984 50.4187 65.4657 50.2571 65.1858L46.039 57.8794L45.7952 57.9147L41.7733 60.2304L46.039 67.6184C46.1998 67.8982 46.4649 68.1028 46.7763 68.1873C47.0877 68.2718 47.4199 68.2294 47.7001 68.0694Z" fill="#006600"/>
<path d="M54.9688 0.875H1.34375C1.02052 0.875 0.710524 1.0034 0.481964 1.23196C0.253404 1.46052 0.125 1.77052 0.125 2.09375V8.1875H56.1875V2.09375C56.1875 1.77052 56.0591 1.46052 55.8305 1.23196C55.602 1.0034 55.292 0.875 54.9688 0.875ZM7.4375 5.75H5V3.3125H7.4375V5.75ZM12.3125 5.75H9.875V3.3125H12.3125V5.75ZM17.1875 5.75H14.75V3.3125H17.1875V5.75Z" fill="#006600"/>
<path d="M58.625 8.1875V14.2812H63.5V9.40625C63.5 9.08302 63.3716 8.77302 63.143 8.54446C62.9145 8.3159 62.6045 8.1875 62.2812 8.1875H58.625Z" fill="#006600"/>
<path d="M65.1382 46.3447L65.7694 43.9904L70.7641 45.3296L70.1329 47.6839L65.1382 46.3447Z" fill="#006600"/>
</svg>
