<svg width="78" height="77" viewBox="0 0 78 77" fill="none" xmlns="http://www.w3.org/2000/svg">
<g clip-path="url(#clip0_284_2674)">
<path d="M6.50194 33.26C6.50194 30.3454 7.03944 27.5161 8.09758 24.8339L3.55082 20.2871C1.54882 24.2961 0.5 28.7294 0.5 33.26C0.5 49.2827 13.5354 62.318 29.5582 62.318C30.9926 62.318 32.4249 62.2108 33.8362 62.0029V55.9171C32.4318 56.1817 31.0015 56.316 29.5582 56.316C16.8451 56.316 6.50194 45.9731 6.50194 33.26Z" fill="#006600"/>
<path d="M15.7087 19.9459L17.414 15.5327L10.6029 8.72168L8.89765 13.1349L4.48444 14.8402L11.2955 21.6512L15.7087 19.9459Z" fill="#006600"/>
<path d="M29.5582 25.2295C28.0229 25.2295 26.5872 25.6632 25.3662 26.4137L30.8856 31.933L27.6953 35.1232L22.3318 29.7597C21.8168 30.8183 21.5273 32.0061 21.5273 33.2604C21.5273 37.6885 25.13 41.2911 29.5581 41.2911C33.9863 41.2911 37.5889 37.6885 37.5889 33.2604C37.5891 28.8321 33.9865 25.2295 29.5582 25.2295Z" fill="#006600"/>
<path d="M60.1798 67.2565H55.6681V62.6743L38.3479 57.1294V72.7984H77.5V57.1294L60.1798 62.6743V67.2565Z" fill="#006600"/>
<path d="M68.1789 47.6988V39.8553L66.9295 39.2324C60.9539 36.2533 54.8939 36.2533 48.9181 39.2324L47.6687 39.8553V47.6988H38.3476V52.3924L57.9236 58.6594L77.5 52.3924V47.6988H68.1789ZM63.6672 47.6988H52.1805V42.7014C56.034 41.1139 59.8138 41.1139 63.6672 42.7014V47.6988Z" fill="#006600"/>
<path d="M29.5582 10.2039C42.2218 10.2039 52.5324 20.4669 52.6124 33.112C54.3755 32.6973 56.1498 32.4863 57.9239 32.4863C58.1513 32.4863 58.3789 32.4899 58.6063 32.4968C58.2001 16.8255 45.3257 4.20215 29.5582 4.20215C24.6187 4.20215 19.9641 5.44242 15.8869 7.62549L20.3753 12.1139C23.1908 10.8864 26.296 10.2039 29.5582 10.2039Z" fill="#006600"/>
<path d="M43.1572 43.187V39.8553V37.0633L45.656 35.8176L46.9054 35.1947C47.2859 35.005 47.6676 34.8274 48.0502 34.6576C48.0848 34.1962 48.1027 33.7305 48.1027 33.2603C48.1027 23.0348 39.7837 14.7158 29.5581 14.7158C26.8892 14.7158 24.3289 15.2684 21.9323 16.3576L20.0865 21.1339L22.1209 23.1682C24.2033 21.6294 26.7759 20.7176 29.5581 20.7176C36.4742 20.7176 42.1007 26.3442 42.1007 33.2602C42.1007 37.2965 40.1823 40.891 37.2115 43.1869H38.3479H43.1572V43.187Z" fill="#006600"/>
<path d="M29.5582 45.8027C22.6423 45.8027 17.0157 40.1761 17.0157 33.2603C17.0157 30.7537 17.7578 28.4185 19.0295 26.4572L16.8965 24.3242L12.4831 26.0295C11.5089 28.3187 11.0138 30.7495 11.0138 33.2603C11.0138 43.4856 19.3328 51.8046 29.5583 51.8046C31.0303 51.8046 32.4625 51.6311 33.8363 51.3053V47.6985V45.0506C32.5004 45.5368 31.0598 45.8029 29.5582 45.8027Z" fill="#006600"/>
</g>
<defs>
<clipPath id="clip0_284_2674">
<rect width="77" height="77" fill="white" transform="translate(0.5)"/>
</clipPath>
</defs>
</svg>
