<svg width="78" height="78" viewBox="0 0 78 78" fill="none" xmlns="http://www.w3.org/2000/svg">
<path d="M34.0567 24.152L42.6306 32.7247H60.3878V8.57878V8.56659V8.55441V4.875H14.6494V23.7949H33.1951C33.5183 23.7949 33.8282 23.9234 34.0567 24.152ZM55.2496 25.9411H42.4125C42.0892 25.9411 41.7793 25.8127 41.5507 25.5841C41.3221 25.3556 41.1937 25.0456 41.1937 24.7223C41.1937 24.3991 41.3221 24.0891 41.5507 23.8606C41.7793 23.632 42.0892 23.5036 42.4125 23.5036H55.2459C55.5692 23.5036 55.8791 23.632 56.1077 23.8606C56.3363 24.0891 56.4647 24.3991 56.4647 24.7223C56.4647 25.0456 56.3363 25.3556 56.1077 25.5841C55.8791 25.8127 55.5692 25.9411 55.2459 25.9411H55.2496ZM19.1173 10.2972H55.2496C55.5728 10.2972 55.8828 10.4256 56.1114 10.6542C56.3399 10.8827 56.4683 11.1927 56.4683 11.516C56.4683 11.8392 56.3399 12.1492 56.1114 12.3778C55.8828 12.6063 55.5728 12.7347 55.2496 12.7347H19.1173C18.7941 12.7347 18.4841 12.6063 18.2555 12.3778C18.0269 12.1492 17.8985 11.8392 17.8985 11.516C17.8985 11.1927 18.0269 10.8827 18.2555 10.6542C18.4841 10.4256 18.7941 10.2972 19.1173 10.2972ZM17.8985 18.1192C17.8985 17.7959 18.0269 17.4859 18.2555 17.2574C18.4841 17.0288 18.7941 16.9004 19.1173 16.9004H55.2496C55.5728 16.9004 55.8828 17.0288 56.1114 17.2574C56.3399 17.4859 56.4683 17.7959 56.4683 18.1192C56.4683 18.4424 56.3399 18.7524 56.1114 18.9809C55.8828 19.2095 55.5728 19.3379 55.2496 19.3379H19.1173C18.7941 19.3379 18.4841 19.2095 18.2555 18.9809C18.0269 18.7524 17.8985 18.4424 17.8985 18.1192Z" fill="#006600"/>
<path d="M65.4932 73.125L71.8307 66.7875V39.078L67.9136 35.1622H61.6505C61.6346 35.1622 61.6224 35.1707 61.6066 35.1707C61.5908 35.1707 61.5774 35.1622 61.5627 35.1622H42.1249C41.8017 35.1621 41.4917 35.0337 41.2632 34.8051L32.6905 26.2324H11.689L6.17175 31.7485V67.7625L11.5879 72.8813L65.4932 73.125ZM17.5013 56.3441C17.5992 56.1331 17.7554 55.9546 17.9515 55.8296C18.1476 55.7045 18.3753 55.6382 18.6079 55.6384H22.9783V45.6751C22.9783 45.3519 23.1067 45.0419 23.3353 44.8134C23.5638 44.5848 23.8738 44.4564 24.1971 44.4564H31.9313C32.2545 44.4564 32.5645 44.5848 32.793 44.8134C33.0216 45.0419 33.15 45.3519 33.15 45.6751V55.6384H37.5229C37.7552 55.6385 37.9826 55.7049 38.1784 55.8299C38.3742 55.9548 38.5302 56.1331 38.628 56.3438C38.7259 56.5545 38.7615 56.7887 38.7306 57.0189C38.6998 57.2491 38.6038 57.4658 38.454 57.6433L28.9977 68.8265C28.8833 68.9618 28.7408 69.0705 28.5801 69.145C28.4194 69.2196 28.2444 69.2582 28.0672 69.2582C27.8901 69.2582 27.715 69.2196 27.5543 69.145C27.3936 69.0705 27.2511 68.9618 27.1367 68.8265L17.6719 57.6469C17.5219 57.4688 17.4262 57.2514 17.396 57.0205C17.3657 56.7896 17.4023 56.5548 17.5013 56.3441Z" fill="#006600"/>
<path d="M34.8916 58.0761H31.9312C31.608 58.0761 31.298 57.9477 31.0694 57.7191C30.8409 57.4906 30.7125 57.1806 30.7125 56.8573V46.894H25.4158V56.8573C25.4158 57.1806 25.2874 57.4906 25.0588 57.7191C24.8303 57.9477 24.5203 58.0761 24.197 58.0761H21.2343L28.0593 66.1515L34.8916 58.0761Z" fill="#006600"/>
<path d="M62.8253 9.78516H67.197V32.7245H62.8253V9.78516Z" fill="#006600"/>
</svg>
