<svg width="78" height="78" viewBox="0 0 78 78" fill="none" xmlns="http://www.w3.org/2000/svg">
<g clip-path="url(#clip0_284_2690)">
<path d="M67.0313 49.3662H58.5C57.8538 49.3669 57.2341 49.6239 56.7772 50.0808C56.3202 50.5378 56.0632 51.1574 56.0625 51.8037V52.4131H54.5403C54.4098 52.4143 54.2809 52.3845 54.1642 52.3262L50.962 50.6945C50.0218 50.22 48.9831 49.9738 47.93 49.9756H38.1657C37.2905 49.966 36.4225 50.135 35.6147 50.4722C34.807 50.8094 34.0766 51.3079 33.468 51.937L26.6185 59.2299C26.4717 59.3864 26.3687 59.579 26.32 59.788C26.2713 59.9971 26.2786 60.2153 26.3412 60.4206C26.3936 60.5908 27.6897 64.5595 34.2464 62.8088C34.8442 62.6519 35.3958 62.3547 35.8556 61.9417L39.4148 58.5068H42.5533L49.9295 70.7723C50.0378 70.9526 50.1909 71.1017 50.3739 71.2053C50.5569 71.3088 50.7636 71.3632 50.9739 71.3632H56.4338C56.6507 71.7166 56.9545 72.0087 57.3161 72.2116C57.6778 72.4145 58.0853 72.5215 58.5 72.5225H67.0313C67.3545 72.5224 67.6645 72.394 67.893 72.1655C68.1216 71.9369 68.25 71.6269 68.25 71.3037V50.585C68.25 50.2617 68.1216 49.9517 67.893 49.7232C67.6645 49.4946 67.3545 49.3662 67.0313 49.3662ZM56.0625 68.9257H51.663L44.2868 56.6603C44.1785 56.48 44.0255 56.3308 43.8424 56.2273C43.6594 56.1237 43.4527 56.0693 43.2424 56.0693H38.9226C38.607 56.0694 38.3036 56.1918 38.0764 56.4109L34.1952 60.1576C34.0285 60.2999 33.8308 60.4012 33.618 60.4534C30.874 61.1859 29.6106 60.6545 29.0602 60.1909L35.245 53.6057C35.6253 53.219 36.0804 52.9138 36.5826 52.7087C37.0847 52.5037 37.6234 52.4031 38.1657 52.4131H47.93C48.5984 52.4107 49.258 52.5661 49.8551 52.8666L53.0567 54.4977C53.5166 54.7304 54.0249 54.8513 54.5403 54.8506H56.0625V68.9257ZM63.375 67.6475C63.134 67.6475 62.8983 67.576 62.6979 67.4421C62.4975 67.3081 62.3413 67.1178 62.2491 66.8951C62.1568 66.6724 62.1327 66.4274 62.1797 66.1909C62.2267 65.9545 62.3428 65.7374 62.5132 65.5669C62.6837 65.3965 62.9008 65.2804 63.1373 65.2334C63.3737 65.1863 63.6187 65.2105 63.8414 65.3027C64.0641 65.395 64.2545 65.5512 64.3884 65.7516C64.5223 65.952 64.5938 66.1877 64.5938 66.4287C64.5938 66.5888 64.5623 66.7472 64.501 66.8951C64.4398 67.043 64.35 67.1773 64.2368 67.2905C64.1236 67.4037 63.9893 67.4934 63.8414 67.5547C63.6936 67.6159 63.5351 67.6475 63.375 67.6475Z" fill="#006600"/>
<path d="M47.9267 72.1589C47.5017 72.0972 43.0299 66.1857 43.0299 66.1857C42.9363 66.0557 42.8179 65.9454 42.6816 65.8612C42.5453 65.777 42.3938 65.7205 42.2356 65.6949C42.0774 65.6694 41.9158 65.6753 41.7599 65.7123C41.604 65.7493 41.4569 65.8166 41.3271 65.9105C41.1973 66.0044 41.0873 66.123 41.0033 66.2595C40.9194 66.396 40.8632 66.5477 40.838 66.7059C40.8127 66.8641 40.819 67.0257 40.8563 67.1815C40.8936 67.3374 40.9613 67.4843 41.0554 67.6139L44.5432 72.4356C44.6131 72.5554 44.6563 72.6889 44.67 72.8269C44.6837 72.9649 44.6676 73.1043 44.6227 73.2355C44.5777 73.3668 44.5051 73.4868 44.4096 73.5875C44.3142 73.6881 44.1982 73.7671 44.0696 73.8189C43.7387 73.9959 43.357 74.0534 42.9887 73.9819C42.6204 73.9103 42.288 73.7141 42.0474 73.4262L38.6304 68.6107C38.4432 68.3476 38.1592 68.1695 37.8408 68.1156C37.5224 68.0617 37.1957 68.1364 36.9323 68.3233C36.6689 68.5102 36.4905 68.7939 36.4362 69.1123C36.382 69.4306 36.4563 69.7575 36.6428 70.0211C36.6428 70.0211 39.1608 73.5699 39.1636 73.5744C39.2498 73.6788 39.3106 73.8019 39.3411 73.9339C39.3716 74.0658 39.3711 74.2031 39.3395 74.3348C39.308 74.4665 39.2462 74.5891 39.1592 74.6929C39.0722 74.7967 38.9623 74.8789 38.8381 74.933C38.5073 75.1099 38.1256 75.1674 37.7573 75.0959C37.389 75.0243 37.0565 74.8281 36.816 74.5402L33.399 69.7247C33.2118 69.4616 32.9278 69.2835 32.6094 69.2296C32.291 69.1757 31.9642 69.2504 31.7008 69.4373C31.4375 69.6242 31.2591 69.908 31.2048 70.2263C31.1505 70.5446 31.2248 70.8715 31.4113 71.1351C31.4113 71.1351 33.4242 73.9719 33.4282 73.9776C33.5132 74.0878 33.5724 74.2156 33.6016 74.3516C33.6307 74.4877 33.6291 74.6285 33.5967 74.7638C33.5643 74.8992 33.5021 75.0255 33.4145 75.1337C33.327 75.2418 33.2163 75.329 33.0907 75.3888C32.765 75.5642 32.3893 75.6236 32.0254 75.5575C31.6614 75.4913 31.3308 75.3034 31.0876 75.0246L26.2376 67.7615C25.9287 67.2944 25.5009 66.9181 24.9982 66.6713C24.4955 66.4246 23.9361 66.3163 23.3776 66.3577H21.9375V53.6382H28.5326L30.822 51.2007H21.851C21.7167 50.6787 21.413 50.2161 20.9876 49.8853C20.5621 49.5544 20.0389 49.3741 19.5 49.3726H10.9688C10.6455 49.3726 10.3355 49.501 10.107 49.7295C9.87842 49.9581 9.75002 50.2681 9.75 50.5913V70.0913C9.75002 70.4145 9.87842 70.7245 10.107 70.9531C10.3355 71.1816 10.6455 71.31 10.9688 71.3101H19.5C20.1463 71.3094 20.7659 71.0524 21.2229 70.5954C21.6798 70.1384 21.9369 69.5188 21.9375 68.8726V68.7952H23.3776C24.0072 68.7952 24.1364 68.9993 24.1947 69.0903L29.078 76.4034C30.1603 78.0243 32.5524 78.4207 34.2214 77.5478C34.6787 77.312 35.0794 76.9798 35.3958 76.5741C36.1354 77.2132 37.0816 77.5627 38.0592 77.5579C38.724 77.5592 39.3793 77.3993 39.9688 77.092C40.5002 76.8201 40.954 76.4179 41.2877 75.923C41.8845 76.2551 42.5542 76.4339 43.2371 76.4435C43.9199 76.4531 44.5945 76.2931 45.2003 75.978C45.885 75.6259 46.4409 75.0664 46.7886 74.3795C47.8035 74.7427 48.92 74.696 49.9009 74.2492C50.1848 74.1203 50.4569 73.9667 50.7138 73.7901C50.1552 73.7506 49.6132 73.5829 49.1298 73.3C48.6465 73.0171 48.2348 72.6266 47.9267 72.1589ZM14.625 56.6784C14.384 56.6784 14.1483 56.6069 13.9479 56.473C13.7475 56.3391 13.5913 56.1487 13.499 55.926C13.4068 55.7033 13.3826 55.4583 13.4297 55.2219C13.4767 54.9855 13.5928 54.7683 13.7632 54.5978C13.9337 54.4274 14.1508 54.3113 14.3872 54.2643C14.6236 54.2173 14.8687 54.2414 15.0914 54.3337C15.3141 54.4259 15.5044 54.5821 15.6384 54.7825C15.7723 54.983 15.8438 55.2186 15.8438 55.4596C15.8438 55.7829 15.7153 56.0929 15.4868 56.3214C15.2582 56.55 14.9482 56.6784 14.625 56.6784Z" fill="#006600"/>
<path d="M23.2967 48.7631H30.8222C31.1436 48.7639 31.4617 48.8284 31.7579 48.9529C32.0542 49.0774 32.3229 49.2593 32.5485 49.4883C34.145 48.2189 36.1261 47.531 38.1657 47.5378H47.93C49.3678 47.5363 50.7858 47.8737 52.0688 48.5227L54.1582 49.5873C54.5672 48.7875 55.1889 48.1161 55.955 47.647C56.7211 47.1778 57.6017 46.9292 58.5 46.9284H64.5938V3.65625C64.5927 2.68688 64.2071 1.75751 63.5217 1.07206C62.8362 0.386609 61.9069 0.00105811 60.9375 0L17.0625 0C16.0931 0.00105811 15.1638 0.386609 14.4783 1.07206C13.7929 1.75751 13.4073 2.68688 13.4062 3.65625V46.935H19.5C20.2295 46.9353 20.9495 47.0998 21.6067 47.4163C22.264 47.7327 22.8415 48.193 23.2967 48.7631ZM29.25 15.2344C29.25 14.9111 29.3784 14.6011 29.607 14.3726C29.8355 14.144 30.1455 14.0156 30.4688 14.0156H57.2812C57.6045 14.0156 57.9145 14.144 58.143 14.3726C58.3716 14.6011 58.5 14.9111 58.5 15.2344V17.6719C58.5 17.9951 58.3716 18.3051 58.143 18.5337C57.9145 18.7622 57.6045 18.8906 57.2812 18.8906H30.4688C30.1455 18.8906 29.8355 18.7622 29.607 18.5337C29.3784 18.3051 29.25 17.9951 29.25 17.6719V15.2344ZM29.25 24.9844C29.25 24.6611 29.3784 24.3511 29.607 24.1226C29.8355 23.894 30.1455 23.7656 30.4688 23.7656H57.2812C57.6045 23.7656 57.9145 23.894 58.143 24.1226C58.3716 24.3511 58.5 24.6611 58.5 24.9844V27.4219C58.5 27.7451 58.3716 28.0551 58.143 28.2837C57.9145 28.5122 57.6045 28.6406 57.2812 28.6406H30.4688C30.1455 28.6406 29.8355 28.5122 29.607 28.2837C29.3784 28.0551 29.25 27.7451 29.25 27.4219V24.9844ZM29.25 34.7344C29.25 34.4111 29.3784 34.1011 29.607 33.8726C29.8355 33.644 30.1455 33.5156 30.4688 33.5156H57.2812C57.6045 33.5156 57.9145 33.644 58.143 33.8726C58.3716 34.1011 58.5 34.4111 58.5 34.7344V37.1719C58.5 37.4951 58.3716 37.8051 58.143 38.0337C57.9145 38.2622 57.6045 38.3906 57.2812 38.3906H30.4688C30.1455 38.3906 29.8355 38.2622 29.607 38.0337C29.3784 37.8051 29.25 37.4951 29.25 37.1719V34.7344ZM18.6145 16.527C18.7245 16.4107 18.8562 16.3172 19.0023 16.2519C19.1484 16.1865 19.3059 16.1506 19.4659 16.1461C19.6259 16.1416 19.7852 16.1687 19.9347 16.2258C20.0842 16.2829 20.221 16.3689 20.3373 16.4788L21.2121 17.306L23.6442 15.4844C23.9029 15.2906 24.228 15.2075 24.548 15.2534C24.8679 15.2992 25.1565 15.4703 25.3504 15.729C25.5442 15.9877 25.6273 16.3128 25.5814 16.6327C25.5356 16.9527 25.3645 17.2413 25.1058 17.4351L21.8518 19.8726C21.6203 20.0411 21.3376 20.1243 21.0517 20.1079C20.7659 20.0915 20.4945 19.9766 20.2837 19.7828L18.6627 18.2498C18.5464 18.1399 18.4529 18.0081 18.3876 17.862C18.3222 17.7159 18.2863 17.5584 18.2818 17.3984C18.2773 17.2384 18.3044 17.0791 18.3615 16.9296C18.4186 16.7801 18.5045 16.6433 18.6145 16.527ZM18.6145 26.277C18.7244 26.1607 18.8562 26.0671 19.0023 26.0017C19.1484 25.9363 19.3059 25.9004 19.4659 25.8959C19.6259 25.8914 19.7852 25.9185 19.9347 25.9756C20.0843 26.0328 20.2211 26.1188 20.3373 26.2288L21.2121 27.056L23.6442 25.2344C23.7723 25.1385 23.9181 25.0687 24.0731 25.029C24.2282 24.9894 24.3895 24.9806 24.548 25.0034C24.7064 25.0261 24.8588 25.0798 24.9965 25.1614C25.1341 25.243 25.2544 25.3509 25.3504 25.479C25.4463 25.6071 25.5161 25.7528 25.5558 25.9079C25.5954 26.0629 25.6041 26.2243 25.5814 26.3827C25.5587 26.5412 25.505 26.6936 25.4234 26.8312C25.3418 26.9689 25.2339 27.0892 25.1058 27.1851L21.8518 29.6226C21.62 29.7903 21.3374 29.8728 21.0518 29.8565C20.7662 29.8401 20.4949 29.7258 20.2837 29.5328L18.6627 27.9998C18.5464 27.8899 18.4529 27.7581 18.3876 27.612C18.3222 27.4659 18.2863 27.3084 18.2818 27.1484C18.2773 26.9884 18.3044 26.8291 18.3615 26.6796C18.4186 26.5301 18.5045 26.3933 18.6145 26.277ZM18.6145 36.027C18.7244 35.9107 18.8562 35.8171 19.0023 35.7517C19.1484 35.6863 19.3059 35.6504 19.4659 35.6459C19.6259 35.6414 19.7852 35.6685 19.9347 35.7256C20.0843 35.7828 20.2211 35.8688 20.3373 35.9788L21.2121 36.806L23.6442 34.9844C23.7723 34.8885 23.9181 34.8187 24.0731 34.779C24.2282 34.7394 24.3895 34.7306 24.548 34.7534C24.7064 34.7761 24.8588 34.8298 24.9965 34.9114C25.1341 34.993 25.2544 35.1009 25.3504 35.229C25.4463 35.3571 25.5161 35.5028 25.5558 35.6579C25.5954 35.8129 25.6041 35.9743 25.5814 36.1327C25.5587 36.2912 25.505 36.4436 25.4234 36.5812C25.3418 36.7189 25.2339 36.8392 25.1058 36.9351L21.8518 39.3726C21.6206 39.5419 21.3377 39.6255 21.0517 39.6091C20.7656 39.5927 20.4941 39.4774 20.2837 39.2828L18.6627 37.7498C18.5464 37.6399 18.4529 37.5081 18.3876 37.362C18.3222 37.2159 18.2863 37.0584 18.2818 36.8984C18.2773 36.7384 18.3044 36.5791 18.3615 36.4296C18.4186 36.2801 18.5045 36.1433 18.6145 36.027Z" fill="#006600"/>
</g>
<defs>
<clipPath id="clip0_284_2690">
<rect width="78" height="78" fill="white"/>
</clipPath>
</defs>
</svg>
