<svg width="23" height="23" viewBox="0 0 23 23" fill="none" xmlns="http://www.w3.org/2000/svg">
<path d="M21.1862 15.8604C19.6601 15.8604 18.1836 15.6122 16.8064 15.1656C16.3722 15.0167 15.8883 15.1283 15.5533 15.4633L13.6053 17.9076C10.094 16.2326 6.80605 13.0687 5.05661 9.43333L7.47605 7.3737C7.81105 7.0263 7.91031 6.54241 7.77383 6.10815C7.31476 4.73093 7.07902 3.25444 7.07902 1.72833C7.07902 1.05833 6.52068 0.5 5.85068 0.5H1.55772C0.887719 0.5 0.0812378 0.797778 0.0812378 1.72833C0.0812378 13.2548 9.67216 22.8333 21.1862 22.8333C22.0672 22.8333 22.4146 22.0517 22.4146 21.3693V17.0887C22.4146 16.4187 21.8562 15.8604 21.1862 15.8604Z" fill="#006600"/>
</svg>
