<svg width="47" height="46" viewBox="0 0 47 46" fill="none" xmlns="http://www.w3.org/2000/svg">
<g clip-path="url(#clip0_751_534)">
<path d="M18.9677 33.9491H17.2898V13.9704H29.2131V33.9491H27.57V24.6263H18.9688V33.9491H18.9677ZM19.0012 19.1787H27.5101V14.8692H19.0012V19.1787ZM26.22 20.7536C26.22 20.7536 26.22 20.7476 26.22 20.7453C26.0608 20.7453 25.8861 20.7034 25.7485 20.756C25.5738 20.8218 25.429 20.9667 25.271 21.0768C25.417 21.2024 25.551 21.413 25.7114 21.4346C26.08 21.4849 26.4665 21.4729 26.8363 21.4226C26.962 21.4059 27.0625 21.2 27.175 21.0803C27.0554 20.9714 26.9512 20.8087 26.8112 20.7668C26.6293 20.7117 26.4187 20.7536 26.22 20.7536ZM20.2901 23.6665C20.2901 23.6665 20.2901 23.6677 20.2901 23.6689C20.4492 23.6689 20.6228 23.7096 20.7628 23.6582C20.9399 23.5935 21.0895 23.4547 21.2511 23.3482C21.0883 23.2178 20.9411 23.0071 20.7604 22.9736C20.4337 22.9138 20.0818 22.9222 19.7527 22.976C19.6031 23.0011 19.4811 23.2022 19.347 23.3231C19.4823 23.4368 19.6007 23.5971 19.7563 23.6534C19.9143 23.7108 20.1094 23.6665 20.2889 23.6665H20.2901ZM23.2317 23.6689C23.3909 23.6689 23.5692 23.7144 23.7056 23.6582C23.8899 23.5816 24.0431 23.426 24.2095 23.3051C24.0515 23.189 23.9055 23.0035 23.7331 22.9724C23.4244 22.9174 23.0917 22.9174 22.7829 22.9724C22.6106 23.0035 22.4658 23.1926 22.309 23.3111C22.4777 23.4308 22.6345 23.5768 22.82 23.6594C22.9361 23.712 23.0941 23.6689 23.2341 23.6689H23.2317ZM26.2152 23.6642C26.2152 23.6642 26.2152 23.6677 26.2152 23.6689C26.3744 23.6689 26.5491 23.7108 26.6891 23.6582C26.8663 23.5923 27.0147 23.4499 27.175 23.3398C27.0254 23.213 26.8878 22.9988 26.7239 22.9748C26.3541 22.9222 25.9675 22.9353 25.5953 22.9844C25.4744 23 25.2949 23.2106 25.2961 23.3315C25.2961 23.4416 25.4864 23.6079 25.6228 23.6486C25.8047 23.7036 26.0166 23.6618 26.2152 23.6618V23.6642ZM23.2712 20.7548C23.2712 20.7548 23.2712 20.7536 23.2712 20.7524C23.0725 20.7524 22.8631 20.7129 22.68 20.7656C22.5388 20.8063 22.4299 20.9619 22.3066 21.0672C22.4323 21.194 22.546 21.4142 22.6848 21.431C23.0749 21.4789 23.4794 21.4717 23.8708 21.4262C23.9952 21.4119 24.1807 21.212 24.1855 21.0911C24.1891 20.9834 23.9988 20.8123 23.8624 20.7704C23.6817 20.7141 23.4699 20.756 23.2712 20.756V20.7548ZM20.314 20.7644C20.314 20.7644 20.314 20.7536 20.314 20.7476C20.1357 20.7476 19.943 20.7058 19.7826 20.7596C19.6211 20.8135 19.4918 20.9619 19.3482 21.0684C19.4751 21.1952 19.5924 21.413 19.7324 21.431C20.1225 21.4789 20.527 21.4705 20.9184 21.425C21.0416 21.4107 21.196 21.2216 21.2319 21.0839C21.2523 21.0061 21.0799 20.8063 20.965 20.7776C20.7604 20.7261 20.533 20.7632 20.3152 20.7632L20.314 20.7644Z" fill="#006600"/>
<path d="M30.0113 20.9224H36.9657V33.9359H30.0113V20.9224ZM31.9105 26.9002C31.9345 26.8547 31.9596 26.8092 31.9836 26.7649C32.181 26.7649 32.3928 26.8116 32.57 26.7506C32.7208 26.6991 32.8297 26.5256 32.9565 26.4059C32.8273 26.2886 32.7148 26.1187 32.5628 26.0684C32.3857 26.0086 32.1702 26.0289 31.9776 26.0577C31.6461 26.1067 31.1219 25.8482 31.0968 26.4155C31.0896 26.5651 31.6245 26.7386 31.9117 26.9014L31.9105 26.9002ZM32.035 32.2796C32.035 32.2796 32.035 32.2772 32.035 32.276C31.8375 32.276 31.6257 32.2305 31.4486 32.2892C31.2954 32.3395 31.1817 32.5082 31.0513 32.6255C31.1841 32.7452 31.3074 32.951 31.4522 32.9689C31.8399 33.0156 32.2409 33.0084 32.6298 32.9618C32.7507 32.9474 32.929 32.7428 32.9326 32.6207C32.935 32.5094 32.7543 32.3359 32.6226 32.294C32.4443 32.2377 32.2337 32.2796 32.0362 32.2796H32.035ZM34.8785 33.1221C34.9024 33.0767 34.9264 33.0324 34.9503 32.9869C35.1274 32.9869 35.3249 33.036 35.4769 32.9737C35.648 32.9043 35.7773 32.7344 35.9257 32.6087C35.7689 32.4962 35.6265 32.3454 35.453 32.2844C35.295 32.2293 35.0963 32.2425 34.9264 32.2784C34.6068 32.3454 34.0635 32.0343 34.0635 32.6362C34.0635 32.7978 34.5925 32.9594 34.8785 33.1209V33.1221ZM32.041 23.9932C31.8818 23.9932 31.7047 23.949 31.5683 24.004C31.3804 24.0806 31.2236 24.2314 31.0525 24.3511C31.2308 24.4696 31.3947 24.6395 31.591 24.6922C31.8136 24.752 32.0757 24.752 32.2995 24.6945C32.5305 24.6347 32.9098 24.4935 32.923 24.3583C32.9685 23.8987 32.5544 24.022 32.2792 23.9944C32.2002 23.9861 32.12 23.9932 32.041 23.9944V23.9932ZM35.0592 23.9932C34.8271 23.9932 34.6308 23.9478 34.4728 24.0052C34.3029 24.0686 34.1688 24.229 34.0204 24.3475C34.1748 24.466 34.3124 24.6251 34.4872 24.6898C34.6451 24.7484 34.8426 24.7197 35.0197 24.7005C35.3488 24.6658 35.8838 24.8597 35.8946 24.3595C35.9077 23.7587 35.3225 24.089 35.0604 23.9921L35.0592 23.9932ZM34.8522 26.9038C34.8785 26.8571 34.9048 26.8104 34.9312 26.7637C35.1286 26.7637 35.3405 26.8092 35.5176 26.7506C35.6732 26.6991 35.7904 26.5316 35.9245 26.4143C35.794 26.2946 35.6815 26.1223 35.5284 26.0684C35.3524 26.0074 35.1334 26.0218 34.9431 26.0577C34.6188 26.1175 34.0863 25.8231 34.0623 26.4059C34.0551 26.5603 34.5745 26.7374 34.8522 26.905V26.9038ZM34.9455 28.8222C34.9455 28.8222 34.9455 28.8246 34.9455 28.8258C35.1047 28.8258 35.277 28.8653 35.4194 28.8162C35.6014 28.754 35.7581 28.6199 35.9257 28.517C35.7629 28.383 35.6145 28.1675 35.4326 28.1328C35.1071 28.0706 34.754 28.0814 34.4237 28.1328C34.2753 28.1568 34.1533 28.3518 34.0192 28.4691C34.1485 28.5864 34.261 28.7516 34.413 28.8078C34.5697 28.8665 34.766 28.821 34.9455 28.821V28.8222ZM31.9859 28.8258C32.1451 28.8258 32.3186 28.8653 32.4599 28.8162C32.6382 28.754 32.7914 28.6175 32.9565 28.5134C32.7962 28.3806 32.6525 28.1699 32.4718 28.1328C32.1667 28.0694 31.8316 28.0754 31.524 28.1328C31.3517 28.164 31.208 28.3566 31.0513 28.4751C31.2033 28.5924 31.3421 28.7456 31.5132 28.815C31.6497 28.8712 31.8268 28.8258 31.9859 28.827V28.8258ZM31.9094 31.0434C31.9345 30.9967 31.9596 30.9488 31.9847 30.9021C32.1834 30.9021 32.3988 30.95 32.5748 30.8878C32.7255 30.8339 32.8309 30.6532 32.9553 30.5288C32.8344 30.4222 32.7291 30.2631 32.5879 30.22C32.406 30.1649 32.1906 30.1733 31.9979 30.2032C31.664 30.2547 31.1434 29.9902 31.0944 30.5467C31.0824 30.6867 31.6221 30.8758 31.9094 31.0434ZM31.8866 22.739C31.9082 22.696 31.9297 22.6529 31.9524 22.6086C32.1511 22.6086 32.3617 22.6517 32.5436 22.5954C32.6992 22.5476 32.8201 22.386 32.9565 22.2747C32.8273 22.1538 32.716 21.9803 32.564 21.9264C32.3869 21.8642 32.1702 21.887 31.9752 21.9121C31.6377 21.954 31.1231 21.7254 31.0944 22.2891C31.0872 22.4255 31.6102 22.5883 31.889 22.7402L31.8866 22.739ZM34.9766 22.6074C34.9766 22.6074 34.9766 22.6098 34.9766 22.6122C35.1358 22.6122 35.3105 22.6553 35.4482 22.6014C35.6229 22.5332 35.7665 22.386 35.9245 22.2723C35.7713 22.1514 35.6289 21.9528 35.4613 21.9276C35.1131 21.875 34.7445 21.8798 34.395 21.9324C34.2538 21.954 34.1425 22.1646 34.018 22.2903C34.1389 22.3968 34.2454 22.5547 34.3854 22.5954C34.5686 22.6481 34.778 22.6086 34.9766 22.6086V22.6074ZM34.9982 30.1996C34.839 30.1996 34.6619 30.1542 34.5267 30.2104C34.3412 30.2882 34.188 30.4438 34.0204 30.5659C34.1964 30.6807 34.3603 30.8507 34.553 30.8962C34.7971 30.9536 35.076 30.9548 35.3201 30.8974C35.5355 30.8471 35.7234 30.6807 35.9233 30.5659C35.7139 30.4438 35.5116 30.3085 35.2938 30.2044C35.2136 30.1661 35.0987 30.1984 34.9994 30.1996H34.9982Z" fill="#006600"/>
<path d="M9.53473 33.9455V20.9319H16.5047V33.9455H9.53473ZM14.5635 25.9212C14.5408 25.9643 14.5192 26.0085 14.4965 26.0516C14.3768 26.0516 14.2416 26.0157 14.1411 26.0588C13.9352 26.1486 13.7473 26.2802 13.5511 26.3951C13.7377 26.5196 13.9137 26.662 14.1135 26.7589C14.2105 26.8056 14.3529 26.7876 14.4678 26.7637C14.816 26.6931 15.3665 27.003 15.4108 26.3891C15.4204 26.2539 14.8615 26.078 14.5635 25.92V25.9212ZM11.5046 26.9528C11.9019 26.7434 12.4464 26.5854 12.4441 26.4358C12.4321 25.8015 11.8696 26.0803 11.5357 26.0696C11.2066 26.0588 10.6836 25.847 10.6298 26.3891C10.6154 26.5375 11.1647 26.7422 11.5058 26.9528H11.5046ZM11.5513 32.2784C11.5513 32.2784 11.5513 32.276 11.5513 32.2748C11.3741 32.2748 11.1839 32.2353 11.0235 32.2855C10.8607 32.337 10.7279 32.4794 10.5807 32.5811C10.7195 32.7164 10.844 32.9426 10.9996 32.9665C11.3646 33.0239 11.7499 33.018 12.1173 32.9665C12.255 32.9474 12.3651 32.7319 12.4883 32.6051C12.3734 32.4962 12.2741 32.3322 12.1377 32.2903C11.957 32.2353 11.7475 32.2772 11.5513 32.2772V32.2784ZM14.5324 32.2736C14.3744 32.2736 14.2009 32.2305 14.0633 32.2843C13.8766 32.3574 13.7198 32.5046 13.5499 32.6194C13.7162 32.7427 13.8682 32.9378 14.0525 32.9737C14.3565 33.0323 14.6868 33.0299 14.992 32.9737C15.1619 32.9426 15.3007 32.7487 15.4539 32.629C15.3043 32.5105 15.1691 32.3574 14.9991 32.2867C14.8651 32.2305 14.6892 32.276 14.5312 32.2748L14.5324 32.2736ZM11.4651 24.8585C11.4962 24.807 11.5261 24.7555 11.5573 24.7041C11.7164 24.7041 11.8947 24.7495 12.03 24.6921C12.2011 24.6191 12.3375 24.4611 12.4883 24.3403C12.3351 24.2254 12.1975 24.0746 12.0252 24.0052C11.8888 23.9501 11.7068 23.9681 11.5537 23.9968C11.2186 24.059 10.6968 23.7742 10.6298 24.3163C10.6118 24.4599 11.1719 24.6754 11.4663 24.8573L11.4651 24.8585ZM14.5168 23.9968C14.5168 23.9968 14.5168 23.9944 14.5168 23.9932C14.3577 23.9932 14.1841 23.9525 14.0429 24.0028C13.8646 24.0662 13.7126 24.2038 13.5499 24.3091C13.7114 24.4408 13.8574 24.6526 14.0381 24.6861C14.3649 24.7472 14.7167 24.7364 15.0458 24.6825C15.1966 24.6574 15.3199 24.4599 15.4551 24.3403C15.3211 24.2254 15.2038 24.065 15.0494 24.0088C14.8914 23.9513 14.6964 23.9956 14.5168 23.9956V23.9968ZM11.5417 28.8257C11.7009 28.8257 11.8768 28.8688 12.0144 28.8149C12.1879 28.7479 12.3316 28.6007 12.4871 28.4882C12.3387 28.3638 12.2047 28.1603 12.0395 28.1328C11.7116 28.0765 11.3586 28.0753 11.0307 28.1328C10.8643 28.1627 10.7291 28.3697 10.5795 28.4966C10.7411 28.6055 10.8895 28.7479 11.0666 28.8137C11.2066 28.8664 11.3813 28.8245 11.5405 28.8245L11.5417 28.8257ZM14.3948 28.9502C14.4151 28.9071 14.4355 28.864 14.457 28.8221C14.6557 28.8221 14.8687 28.8664 15.0494 28.809C15.2038 28.7587 15.3223 28.5923 15.4563 28.4787C15.3211 28.359 15.2026 28.1878 15.0446 28.134C14.8663 28.073 14.6485 28.0933 14.4534 28.1196C14.1207 28.1639 13.5929 27.9258 13.5929 28.511C13.5929 28.6582 14.1135 28.8054 14.396 28.9526L14.3948 28.9502ZM11.5716 22.6133C11.7104 22.6133 11.8696 22.6564 11.9833 22.6038C12.1664 22.5188 12.3196 22.3704 12.4859 22.2483C12.328 22.1358 12.1808 21.9551 12.0084 21.9264C11.6997 21.8737 11.3694 21.8725 11.0618 21.9264C10.8883 21.9575 10.7423 22.1418 10.5831 22.2567C10.7339 22.3752 10.8691 22.5367 11.0403 22.6002C11.197 22.6588 11.3921 22.6121 11.5716 22.6133ZM11.5453 30.2235C11.5453 30.2235 11.5453 30.214 11.5453 30.2092C11.367 30.2092 11.1743 30.1673 11.0139 30.2211C10.8536 30.275 10.7231 30.4234 10.5807 30.5299C10.7099 30.6544 10.8272 30.8698 10.9696 30.8865C11.3598 30.9344 11.7631 30.926 12.1544 30.8806C12.2765 30.8662 12.4309 30.6759 12.4668 30.5395C12.4871 30.4641 12.3112 30.2666 12.1951 30.2379C11.9893 30.1876 11.7631 30.2235 11.5453 30.2235ZM14.4558 30.9081C14.6712 30.9081 14.8483 30.9536 14.9836 30.8973C15.1583 30.8243 15.2995 30.6711 15.4551 30.5526C15.3007 30.4377 15.1595 30.2882 14.9872 30.2175C14.8507 30.1625 14.6688 30.1792 14.5168 30.2092C14.1841 30.275 13.6049 29.9842 13.5846 30.5215C13.5594 31.1462 14.1841 30.8016 14.457 30.9069L14.4558 30.9081ZM14.3864 22.7402C14.4079 22.6971 14.4295 22.654 14.451 22.6097C14.6497 22.6097 14.8615 22.6528 15.0422 22.5966C15.199 22.5475 15.3199 22.3848 15.4563 22.2723C15.3223 22.1538 15.2062 21.9826 15.0494 21.9288C14.8711 21.8678 14.6545 21.8857 14.4606 21.9144C14.1303 21.9635 13.6037 21.711 13.5929 22.2938C13.5905 22.4386 14.1087 22.5918 14.3876 22.7402H14.3864Z" fill="#006600"/>
<path d="M26.8053 25.3503V33.9431H19.7192V25.3503H26.8053Z" fill="#006600"/>
<path d="M8.54742 36.6837V34.7438H37.941V36.6837H8.54742Z" fill="#006600"/>
<path d="M30.4493 11.2286C30.5906 12.5499 30.0373 13.2105 28.7894 13.2105C24.8042 13.2105 20.819 13.2105 16.8338 13.2105C16.598 13.2105 16.3623 13.2105 16.0715 13.2105V11.2286H30.4493Z" fill="#006600"/>
<path d="M16.5168 18.1902V20.1385H8.56079V18.1902H16.518H16.5168Z" fill="#006600"/>
<path d="M29.991 20.1397V18.1937H37.947V20.1397H29.991Z" fill="#006600"/>
<path d="M18.7032 10.4172V9.19653H27.7962V10.4172H18.7032Z" fill="#006600"/>
<path d="M19.0012 19.1799V14.8704H27.5101V19.1799H19.0012ZM19.7168 18.4463H26.8028V15.5896H19.7168V18.4463Z" fill="white"/>
<path d="M26.22 20.7548C26.4187 20.7548 26.6293 20.7141 26.8112 20.768C26.9512 20.8099 27.0542 20.9726 27.175 21.0815C27.0625 21.2012 26.962 21.4071 26.8364 21.4238C26.4666 21.4741 26.08 21.486 25.7114 21.4358C25.551 21.4142 25.417 21.2024 25.271 21.0779C25.429 20.9678 25.5738 20.823 25.7485 20.7572C25.8873 20.7046 26.0621 20.7464 26.22 20.7464C26.22 20.7488 26.22 20.7524 26.22 20.7548Z" fill="white"/>
<path d="M20.2901 23.6666C20.1117 23.6666 19.9167 23.7108 19.7575 23.6534C19.6019 23.5972 19.4834 23.438 19.3482 23.3231C19.4822 23.2022 19.6031 23.0012 19.7539 22.976C20.083 22.9222 20.4349 22.9126 20.7616 22.9736C20.9423 23.0072 21.0895 23.2178 21.2523 23.3482C21.0907 23.4547 20.9411 23.5936 20.764 23.6582C20.624 23.7097 20.4492 23.669 20.2913 23.669C20.2913 23.669 20.2913 23.6678 20.2913 23.6666H20.2901Z" fill="white"/>
<path d="M23.2317 23.6701C23.0917 23.6701 22.9337 23.712 22.8177 23.6605C22.6322 23.578 22.4754 23.432 22.3066 23.3123C22.4634 23.1938 22.6082 23.0047 22.7806 22.9736C23.0893 22.9185 23.422 22.9185 23.7308 22.9736C23.9043 23.0035 24.0491 23.1902 24.2071 23.3063C24.0407 23.4272 23.8888 23.5828 23.7033 23.6593C23.5668 23.7156 23.3897 23.6701 23.2293 23.6701H23.2317Z" fill="white"/>
<path d="M26.214 23.6641C26.0154 23.6641 25.8035 23.706 25.6216 23.651C25.4852 23.6091 25.2949 23.4439 25.2949 23.3338C25.2949 23.213 25.4732 23.0023 25.5941 22.9868C25.9663 22.9377 26.3529 22.9245 26.7227 22.9772C26.8866 22.9999 27.0242 23.2141 27.1738 23.3422C27.0135 23.4511 26.8639 23.5935 26.688 23.6605C26.5479 23.7132 26.3732 23.6713 26.214 23.6713C26.214 23.6701 26.214 23.6677 26.214 23.6665V23.6641Z" fill="white"/>
<path d="M23.2699 20.7548C23.4686 20.7548 23.6792 20.7129 23.8611 20.7692C23.9976 20.8111 24.1879 20.9822 24.1843 21.0899C24.1795 21.2108 23.994 21.4106 23.8695 21.425C23.4782 21.4705 23.0737 21.4788 22.6835 21.4298C22.5447 21.413 22.431 21.1928 22.3054 21.066C22.4286 20.9618 22.5375 20.8051 22.6787 20.7644C22.8619 20.7117 23.0725 20.7512 23.2699 20.7512C23.2699 20.7512 23.2699 20.7524 23.2699 20.7536V20.7548Z" fill="white"/>
<path d="M20.3127 20.7644C20.5306 20.7644 20.7579 20.7273 20.9626 20.7788C21.0775 20.8075 21.2498 21.0062 21.2295 21.0851C21.1936 21.2216 21.0392 21.4119 20.9159 21.4262C20.5246 21.4717 20.1201 21.4801 19.7299 21.4322C19.5887 21.4143 19.4726 21.1964 19.3458 21.0696C19.4894 20.9631 19.6198 20.8135 19.7802 20.7608C19.9406 20.707 20.1332 20.7489 20.3115 20.7489C20.3115 20.7548 20.3115 20.7596 20.3115 20.7656L20.3127 20.7644Z" fill="white"/>
<path d="M31.9118 26.9002C31.6258 26.7374 31.0908 26.5639 31.0968 26.4143C31.1219 25.847 31.6461 26.1055 31.9776 26.0564C32.1703 26.0277 32.3857 26.0086 32.5628 26.0672C32.7148 26.1187 32.8273 26.2874 32.9566 26.4047C32.8297 26.5244 32.7208 26.6979 32.57 26.7494C32.3941 26.8092 32.1811 26.7637 31.9836 26.7637C31.9597 26.8092 31.9345 26.8547 31.9106 26.899L31.9118 26.9002Z" fill="white"/>
<path d="M32.0363 32.2796C32.2337 32.2796 32.4432 32.2365 32.6227 32.294C32.7555 32.3359 32.9362 32.5094 32.9326 32.6207C32.9302 32.7416 32.7507 32.9474 32.6299 32.9618C32.2409 33.0072 31.84 33.0156 31.4522 32.969C31.3074 32.9522 31.1842 32.7464 31.0513 32.6255C31.1818 32.5094 31.2955 32.3407 31.4487 32.2892C31.6258 32.2306 31.8376 32.276 32.0351 32.276C32.0351 32.2772 32.0351 32.2784 32.0351 32.2796H32.0363Z" fill="white"/>
<path d="M34.8798 33.1222C34.5937 32.9606 34.0648 32.799 34.0648 32.6375C34.0648 32.0355 34.6081 32.3467 34.9276 32.2796C35.0976 32.2437 35.2962 32.2306 35.4542 32.2856C35.6289 32.3467 35.7713 32.4986 35.9269 32.6099C35.7797 32.7356 35.6493 32.9055 35.4781 32.975C35.3261 33.0372 35.1287 32.9881 34.9516 32.9881C34.9276 33.0336 34.9037 33.0779 34.8798 33.1234V33.1222Z" fill="white"/>
<path d="M32.0422 23.9921C32.1212 23.9921 32.2014 23.9849 32.2804 23.9921C32.5556 24.0196 32.9697 23.8952 32.9242 24.3559C32.9111 24.4912 32.5329 24.6336 32.3007 24.6922C32.0769 24.7497 31.8149 24.7497 31.5923 24.6898C31.396 24.6372 31.232 24.4672 31.0537 24.3487C31.2237 24.2291 31.3816 24.0783 31.5695 24.0017C31.7059 23.9466 31.8831 23.9909 32.0422 23.9897V23.9921Z" fill="white"/>
<path d="M35.0605 23.9932C35.3226 24.0902 35.9078 23.7598 35.8946 24.3606C35.8839 24.8621 35.3489 24.667 35.0198 24.7017C34.8427 24.7196 34.6452 24.7496 34.4872 24.6909C34.3137 24.6263 34.1749 24.4659 34.0205 24.3487C34.1701 24.2302 34.3029 24.0698 34.4729 24.0064C34.6297 23.9477 34.8259 23.9944 35.0593 23.9944L35.0605 23.9932Z" fill="white"/>
<path d="M34.8534 26.9037C34.5758 26.7374 34.0564 26.5603 34.0636 26.4047C34.0887 25.8219 34.62 26.1175 34.9444 26.0564C35.1347 26.0217 35.3525 26.0062 35.5296 26.0672C35.6828 26.1198 35.7953 26.2934 35.9257 26.4131C35.7917 26.5291 35.6744 26.6979 35.5188 26.7493C35.3417 26.808 35.1299 26.7625 34.9324 26.7625C34.9061 26.8092 34.8797 26.8559 34.8534 26.9025V26.9037Z" fill="white"/>
<path d="M34.9468 28.8234C34.7673 28.8234 34.5722 28.8689 34.4142 28.8103C34.2623 28.7528 34.1498 28.5889 34.0205 28.4716C34.1545 28.3543 34.2766 28.158 34.425 28.1353C34.7553 28.0826 35.1072 28.0719 35.4339 28.1353C35.6158 28.17 35.763 28.3854 35.9269 28.5195C35.7594 28.6224 35.6026 28.7564 35.4207 28.8187C35.2783 28.8677 35.106 28.8282 34.9468 28.8282C34.9468 28.8282 34.9468 28.8258 34.9468 28.8246V28.8234Z" fill="white"/>
<path d="M31.9884 28.8257C31.8292 28.8257 31.6521 28.87 31.5157 28.8138C31.3445 28.7432 31.2057 28.5912 31.0537 28.4739C31.2105 28.3542 31.3541 28.1627 31.5264 28.1316C31.834 28.0754 32.1691 28.0694 32.4743 28.1316C32.6538 28.1687 32.7986 28.3793 32.959 28.5122C32.795 28.6163 32.6418 28.7527 32.4623 28.815C32.3211 28.8652 32.1475 28.8245 31.9884 28.8245V28.8257Z" fill="white"/>
<path d="M31.9118 31.0445C31.6258 30.8782 31.0848 30.6879 31.0968 30.5479C31.1459 29.9902 31.6665 30.2559 32.0004 30.2044C32.193 30.1745 32.4085 30.1649 32.5904 30.2212C32.7304 30.2642 32.8357 30.4222 32.9578 30.5299C32.8321 30.6544 32.7268 30.8351 32.5772 30.889C32.4013 30.9512 32.1859 30.9033 31.9872 30.9033C31.9621 30.95 31.9369 30.9979 31.9118 31.0445Z" fill="white"/>
<path d="M31.889 22.7403C31.6102 22.5895 31.0872 22.4256 31.0944 22.2891C31.1231 21.7255 31.6377 21.9552 31.9752 21.9121C32.1703 21.8882 32.3869 21.8655 32.564 21.9265C32.7172 21.9804 32.8273 22.1539 32.9565 22.2748C32.8201 22.3861 32.6992 22.5476 32.5436 22.5955C32.3629 22.6517 32.1511 22.6087 31.9525 22.6087C31.9309 22.6517 31.9094 22.6948 31.8866 22.7391L31.889 22.7403Z" fill="white"/>
<path d="M34.9791 22.6086C34.7804 22.6086 34.571 22.6493 34.3879 22.5955C34.2479 22.5548 34.1414 22.3968 34.0205 22.2903C34.145 22.1658 34.2575 21.954 34.3975 21.9325C34.7469 21.8786 35.1143 21.8738 35.4638 21.9277C35.6313 21.9528 35.7738 22.1527 35.9269 22.2723C35.7702 22.386 35.6254 22.5332 35.4506 22.6014C35.313 22.6553 35.1371 22.6122 34.9791 22.6122C34.9791 22.611 34.9791 22.6098 34.9791 22.6074V22.6086Z" fill="white"/>
<path d="M34.9995 30.1997C35.0988 30.1997 35.2137 30.1662 35.2939 30.2057C35.5117 30.3098 35.7151 30.4438 35.9234 30.5671C35.7235 30.682 35.5356 30.8472 35.3202 30.8986C35.0761 30.9561 34.7972 30.9549 34.5531 30.8974C34.3604 30.8519 34.1976 30.682 34.0205 30.5671C34.1881 30.445 34.3412 30.2895 34.5267 30.2117C34.662 30.1554 34.8391 30.2009 34.9983 30.1997H34.9995Z" fill="white"/>
<path d="M14.5648 25.9213C14.8628 26.0792 15.4216 26.2552 15.4121 26.3904C15.369 27.0043 14.8173 26.6932 14.469 26.765C14.3541 26.7889 14.2117 26.8069 14.1148 26.7602C13.9149 26.6633 13.739 26.5208 13.5523 26.3964C13.7474 26.2815 13.9353 26.1498 14.1423 26.0601C14.2428 26.017 14.3781 26.0529 14.4977 26.0529C14.5205 26.0098 14.542 25.9655 14.5648 25.9225V25.9213Z" fill="white"/>
<path d="M11.5058 26.9516C11.1647 26.741 10.6142 26.5363 10.6298 26.3879C10.6836 25.8458 11.2066 26.0576 11.5357 26.0684C11.8708 26.0792 12.4333 25.8003 12.4441 26.4346C12.4465 26.583 11.9031 26.7422 11.5046 26.9516H11.5058Z" fill="white"/>
<path d="M11.5525 32.2772C11.75 32.2772 11.9594 32.2365 12.139 32.2904C12.2754 32.331 12.3735 32.495 12.4896 32.6051C12.3663 32.7308 12.2562 32.9462 12.1186 32.9665C11.7512 33.018 11.3658 33.024 11.0008 32.9665C10.8453 32.9426 10.7208 32.7152 10.582 32.5812C10.728 32.4782 10.862 32.337 11.0248 32.2856C11.1863 32.2341 11.3754 32.2748 11.5525 32.2748C11.5525 32.276 11.5525 32.2772 11.5525 32.2784V32.2772Z" fill="white"/>
<path d="M14.5337 32.2737C14.6916 32.2737 14.8675 32.2294 15.0016 32.2856C15.1715 32.3562 15.3056 32.5106 15.4564 32.6279C15.3032 32.7476 15.1631 32.9415 14.9944 32.9726C14.6892 33.0288 14.3589 33.0324 14.0549 32.9726C13.8718 32.9367 13.7187 32.7416 13.5523 32.6183C13.7222 32.5034 13.879 32.3562 14.0657 32.2832C14.2021 32.2294 14.3769 32.2725 14.5348 32.2737H14.5337Z" fill="white"/>
<path d="M11.4651 24.8573C11.1707 24.6754 10.6106 24.4599 10.6286 24.3163C10.6968 23.773 11.2174 24.059 11.5525 23.9968C11.7057 23.9681 11.8876 23.9489 12.024 24.0052C12.1952 24.0746 12.334 24.2254 12.4872 24.3403C12.3364 24.4611 12.1999 24.6191 12.0288 24.6921C11.8948 24.7496 11.7153 24.7041 11.5561 24.7041C11.525 24.7555 11.495 24.807 11.4639 24.8585L11.4651 24.8573Z" fill="white"/>
<path d="M14.5168 23.9968C14.6964 23.9968 14.8914 23.9525 15.0494 24.01C15.205 24.0662 15.3223 24.2266 15.4551 24.3415C15.3199 24.4612 15.1966 24.6598 15.0458 24.6838C14.7167 24.7376 14.3637 24.7472 14.0381 24.6874C13.8586 24.6538 13.7114 24.442 13.5499 24.3104C13.7126 24.2051 13.8646 24.0674 14.0429 24.004C14.1841 23.9537 14.3577 23.9944 14.5168 23.9944C14.5168 23.9956 14.5168 23.9968 14.5168 23.998V23.9968Z" fill="white"/>
<path d="M11.543 28.8258C11.3838 28.8258 11.2091 28.8677 11.0691 28.815C10.8919 28.7492 10.7435 28.6068 10.582 28.4979C10.7316 28.371 10.8656 28.1628 11.0331 28.134C11.3611 28.0754 11.7129 28.0766 12.042 28.134C12.2072 28.1628 12.3412 28.3662 12.4896 28.4895C12.3328 28.602 12.1904 28.748 12.0169 28.8162C11.8781 28.8701 11.7033 28.827 11.5442 28.827L11.543 28.8258Z" fill="white"/>
<path d="M14.396 28.9515C14.1148 28.8043 13.5942 28.6571 13.593 28.5099C13.593 27.9246 14.1208 28.164 14.4535 28.1185C14.6486 28.0922 14.8664 28.0718 15.0447 28.1329C15.2027 28.1867 15.3199 28.3579 15.4564 28.4775C15.3223 28.5924 15.2051 28.7588 15.0495 28.8078C14.8688 28.8653 14.6557 28.821 14.4571 28.821C14.4367 28.8641 14.4164 28.9072 14.3948 28.9491L14.396 28.9515Z" fill="white"/>
<path d="M11.5729 22.6133C11.3946 22.6133 11.1983 22.6588 11.0416 22.6002C10.8704 22.5355 10.7352 22.3752 10.5844 22.2567C10.7436 22.1418 10.8896 21.9563 11.0631 21.9264C11.3707 21.8725 11.7022 21.8725 12.0098 21.9264C12.1821 21.9563 12.3281 22.137 12.4873 22.2483C12.3209 22.3704 12.1677 22.5188 11.9846 22.6037C11.8709 22.6564 11.7118 22.6133 11.5729 22.6133Z" fill="white"/>
<path d="M11.5466 30.2236C11.7644 30.2236 11.9906 30.1877 12.1964 30.238C12.3125 30.2667 12.4872 30.4642 12.4681 30.5396C12.431 30.676 12.2778 30.8663 12.1557 30.8806C11.7644 30.9261 11.3611 30.9345 10.9709 30.8866C10.8285 30.8699 10.7112 30.6544 10.582 30.53C10.7256 30.4235 10.8548 30.2751 11.0152 30.2212C11.1756 30.1674 11.3682 30.2092 11.5466 30.2092C11.5466 30.214 11.5466 30.2188 11.5466 30.2236Z" fill="white"/>
<path d="M14.457 30.9081C14.1842 30.8027 13.5607 31.1486 13.5846 30.5227C13.6061 29.9842 14.1842 30.275 14.5169 30.2104C14.6701 30.1804 14.8508 30.1625 14.9872 30.2187C15.1595 30.2881 15.3007 30.4377 15.4551 30.5538C15.2996 30.6723 15.1583 30.8255 14.9836 30.8985C14.8484 30.9547 14.6713 30.9093 14.4558 30.9093L14.457 30.9081Z" fill="white"/>
<path d="M14.3876 22.7391C14.1088 22.5895 13.5906 22.4363 13.593 22.2927C13.6037 21.7099 14.1291 21.9624 14.4606 21.9133C14.6545 21.8846 14.8723 21.8667 15.0494 21.9277C15.2062 21.9815 15.3223 22.1515 15.4563 22.2712C15.3199 22.3837 15.199 22.5464 15.0422 22.5955C14.8615 22.6517 14.6497 22.6087 14.451 22.6087C14.4295 22.6517 14.408 22.6948 14.3864 22.7391H14.3876Z" fill="white"/>
<path d="M19.7169 18.445V15.5884H26.8029V18.445H19.7169Z" fill="#006600"/>
</g>
<defs>
<clipPath id="clip0_751_534">
<rect width="29.4008" height="27.4872" fill="white" transform="translate(8.54742 9.19653)"/>
</clipPath>
</defs>
</svg>
