<svg width="72" height="72" viewBox="0 0 72 72" fill="none" xmlns="http://www.w3.org/2000/svg">
<rect x="0.5" y="0.5" width="71" height="71" rx="7.5" stroke="#006600"/>
<g clip-path="url(#clip0_284_2290)">
<path d="M24.6374 57C24.418 54.718 24.0521 52.4427 23.9989 50.1607C23.8992 45.8363 23.6198 41.472 24.132 37.2075C24.3714 35.2382 25.9078 32.9363 27.5507 31.7454C30.2046 29.8227 31.7876 30.7075 32.8584 33.8344C33.783 36.5222 34.7009 39.21 35.9114 42.756C37.1618 39.1767 38.4056 36.4091 39.0641 33.5084C39.7159 30.6543 41.718 30.315 43.4473 31.3396C45.2498 32.4107 47.5378 34.4398 47.6775 36.2095C48.1897 42.4899 47.897 48.8301 47.8505 55.1504C47.8505 55.7692 47.458 56.3812 47.2452 57H24.6374Z" fill="#006600"/>
<path d="M12 37.6866C14.6938 33.3754 18.8641 35.5709 22.1299 35.0387V53.2877C18.4251 52.9417 15.2126 52.6424 12 52.3363C12 47.4531 12 42.5698 12 37.6866Z" fill="#006600"/>
<path d="M59.8893 52.3363C56.7499 52.6557 53.6105 52.9684 49.8725 53.3476V35.1584C52.9919 35.5377 57.1091 33.2757 59.8893 37.6866V52.3363Z" fill="#006600"/>
<path d="M27.9365 25.0393C28.2159 23.2031 28.156 21.2338 28.8411 19.5639C30.1514 16.3638 34.0158 14.521 37.2949 15.0998C40.7336 15.7052 43.6269 18.892 43.9063 22.4313C43.9794 23.3095 43.9129 24.201 43.9129 25.0858L43.9994 24.9794C42.1104 28.5986 39.6694 31.4328 35.0866 30.9937C31.3154 30.6344 29.473 27.8867 27.8434 24.9195L27.9365 25.0393Z" fill="#006600"/>
<path d="M27.8367 24.9195C28.1759 31.0535 24.0189 34.7658 19.4295 32.3907C17.208 31.2464 15.911 29.4169 16.0107 26.8289C16.1171 24.1012 17.6469 22.2982 20.088 21.3735C22.4957 20.462 24.6241 21.1805 26.3468 23.0567C26.9188 23.6754 27.4044 24.374 27.9298 25.0393L27.8301 24.9195H27.8367Z" fill="#006600"/>
<path d="M43.9129 25.0926C47.0191 20.9212 50.1851 19.85 53.2114 22.0921C55.546 23.8219 56.6435 26.1637 55.5061 29.0244C54.4286 31.7322 52.36 33.2225 49.3404 33.0029C46.6333 32.8033 44.2388 30.4016 43.9528 27.6273C43.8597 26.7558 43.9728 25.8643 43.9927 24.9861L43.9062 25.0926H43.9129Z" fill="#006600"/>
</g>
<defs>
<clipPath id="clip0_284_2290">
<rect width="47.8893" height="42" fill="white" transform="translate(12 15)"/>
</clipPath>
</defs>
</svg>
