<svg width="72" height="72" viewBox="0 0 72 72" fill="none" xmlns="http://www.w3.org/2000/svg">
<rect x="0.5" y="0.5" width="71" height="71" rx="7.5" stroke="#006600"/>
<g clip-path="url(#clip0_284_2324)">
<path d="M27.0897 15C33.1409 15 39.1921 15 45.2433 15C45.2347 15.1145 45.218 15.2296 45.218 15.3441C45.2168 28.2876 45.2168 41.2317 45.218 54.1751C45.218 54.2871 45.2273 54.399 45.2322 54.5192H47.6237V26.7587H50.9352V54.5331H56.6671V57H15.6665C15.6665 56.1777 15.6665 55.3554 15.6665 54.5331H21.4189V26.7543H24.7328V54.5142H27.1162C27.1162 54.3744 27.1162 54.2592 27.1162 54.1441C27.1162 41.2215 27.1162 28.2989 27.115 15.3764C27.115 15.2511 27.0983 15.1259 27.0897 15.0006V15ZM40.5666 54.5243V46.3741H31.7695V54.5142H34.1597V48.8467H38.1937V54.5243H40.5666ZM29.901 27.5595C29.885 27.6063 29.8671 27.6348 29.8665 27.6633C29.8646 29.5899 29.8658 31.5173 29.8603 33.4439C29.8603 33.6438 29.9609 33.6628 30.1128 33.6622C30.7192 33.659 31.3262 33.6457 31.9319 33.6679C32.211 33.678 32.274 33.585 32.2721 33.3117C32.2604 31.5008 32.2666 29.6899 32.2653 27.8783C32.2653 27.7765 32.2554 27.6746 32.2493 27.5602H29.9004L29.901 27.5595ZM42.4703 27.5684H40.0671C40.0671 29.5444 40.0689 31.4913 40.064 33.4389C40.064 33.6312 40.1498 33.6641 40.3091 33.6628C40.926 33.6571 41.5428 33.6508 42.159 33.6653C42.3974 33.671 42.4777 33.6046 42.4752 33.3478C42.4635 31.8633 42.4696 30.3787 42.4696 28.8942C42.4696 28.4634 42.4696 28.0327 42.4696 27.569L42.4703 27.5684ZM32.2659 42.2273C32.2659 40.2335 32.2647 38.2758 32.2678 36.3182C32.2678 36.1284 32.1585 36.1259 32.0251 36.1259C31.4188 36.1278 30.8118 36.1398 30.2061 36.1208C29.9406 36.1126 29.8541 36.1822 29.8566 36.4687C29.8695 38.2796 29.8634 40.0906 29.8634 41.9015V42.2266H32.2666L32.2659 42.2273ZM40.0819 42.2178H42.4486C42.4585 42.1583 42.4684 42.1273 42.4684 42.097C42.4696 40.1911 42.4684 38.286 42.474 36.3802C42.474 36.1879 42.4128 36.1214 42.2257 36.1246C41.6194 36.1328 41.0124 36.1417 40.4067 36.1214C40.1356 36.112 40.059 36.1904 40.0609 36.4719C40.0732 38.2828 40.0671 40.0937 40.0677 41.9047C40.0677 42.0071 40.0769 42.109 40.0819 42.219V42.2178ZM29.8844 18.9584V25.0547H32.24V18.9584H29.8844ZM42.4462 25.0572V18.9647H40.0961V25.0566H42.4462V25.0572ZM34.9853 33.6419H37.3378V27.5545H34.9853V33.6419ZM34.997 36.1461V42.2323H37.3471V36.1461H34.997ZM37.344 25.0591V18.9647H34.9958V25.0591H37.344Z" fill="#006600"/>
<path d="M40.5666 54.5243H38.1937V48.8467H34.1597V54.5142H31.7695V46.3741H40.5666V54.5243Z" fill="white"/>
<path d="M29.901 27.5595H32.2499C32.2561 27.6746 32.2659 27.7764 32.2659 27.8776C32.2672 29.6886 32.261 31.4995 32.2727 33.3111C32.2746 33.5843 32.2116 33.6779 31.9325 33.6672C31.3268 33.645 30.7198 33.6583 30.1134 33.6615C29.9616 33.6621 29.8603 33.6431 29.8609 33.4433C29.8665 31.5166 29.8652 29.5893 29.8671 27.6626C29.8671 27.6341 29.8856 27.6056 29.9017 27.5588L29.901 27.5595Z" fill="white"/>
<path d="M42.4702 27.5684C42.4702 28.032 42.4702 28.4628 42.4702 28.8935C42.4702 30.3781 42.4641 31.8626 42.4758 33.3472C42.4777 33.604 42.398 33.6704 42.1597 33.6647C41.5434 33.6502 40.9266 33.6565 40.3097 33.6622C40.1498 33.6634 40.064 33.6305 40.0646 33.4383C40.0695 31.4913 40.0677 29.5438 40.0677 27.5677H42.4709L42.4702 27.5684Z" fill="white"/>
<path d="M32.2659 42.2273H29.8627V41.9022C29.8627 40.0912 29.8695 38.2803 29.856 36.4694C29.8541 36.1822 29.9405 36.1133 30.2054 36.1215C30.8112 36.1405 31.4182 36.1284 32.0245 36.1265C32.1579 36.1265 32.2678 36.1291 32.2672 36.3188C32.2641 38.2765 32.2653 40.2336 32.2653 42.2279L32.2659 42.2273Z" fill="white"/>
<path d="M40.0819 42.2177C40.0769 42.1077 40.0677 42.0058 40.0677 41.9034C40.0671 40.0924 40.0732 38.2815 40.0609 36.4706C40.059 36.1891 40.1356 36.1106 40.4067 36.1201C41.0124 36.141 41.6194 36.1322 42.2257 36.1233C42.4128 36.1208 42.4746 36.1866 42.474 36.3788C42.4684 38.2847 42.4696 40.1898 42.4684 42.0956C42.4684 42.1266 42.4585 42.157 42.4486 42.2165H40.0819V42.2177Z" fill="white"/>
<path d="M29.8844 18.9584H32.24V25.0547H29.8844V18.9584Z" fill="white"/>
<path d="M42.4462 25.0573H40.0961V18.9647H42.4462V25.0566V25.0573Z" fill="white"/>
<path d="M34.9853 33.6413V27.5538H37.3379V33.6413H34.9853Z" fill="white"/>
<path d="M34.997 36.1455H37.3471V42.2317H34.997V36.1455Z" fill="white"/>
<path d="M37.3434 25.0585H34.9952V18.9647H37.3434V25.0591V25.0585Z" fill="white"/>
</g>
<defs>
<clipPath id="clip0_284_2324">
<rect width="41" height="42" fill="white" transform="translate(15.6665 15)"/>
</clipPath>
</defs>
</svg>
