<svg width="72" height="72" viewBox="0 0 72 72" fill="none" xmlns="http://www.w3.org/2000/svg">
<rect x="0.5" y="0.5" width="71" height="71" rx="7.5" stroke="#006600"/>
<g clip-path="url(#clip0_284_2363)">
<path d="M45.7451 56.5706V55.2699C45.7451 47.5749 45.7451 39.8778 45.7451 32.1828C45.7451 31.8481 45.7633 31.5073 45.7169 31.1766C45.5818 30.2187 44.8942 29.6501 43.9888 29.7146C43.1438 29.7751 42.5853 30.3922 42.5328 31.3379C42.5167 31.6404 42.5268 31.9429 42.5268 32.2453C42.5268 39.9081 42.5268 47.5688 42.5268 55.2316C42.5268 55.6289 42.5268 56.0261 42.5268 56.496H28.4959C28.4959 56.0664 28.4959 55.6712 28.4959 55.278C28.4959 47.583 28.4959 39.8859 28.4959 32.1909C28.4959 31.8219 28.5201 31.4468 28.4676 31.0838C28.3527 30.2933 27.8808 29.8074 27.0803 29.7247C26.2353 29.638 25.6324 30.0231 25.3985 30.8398C25.2815 31.2492 25.2836 31.7009 25.2836 32.1344C25.2775 39.8295 25.2795 47.5265 25.2795 55.2215C25.2795 55.6228 25.2795 56.0221 25.2795 56.5706C22.7226 56.4435 20.1999 56.9517 17.7539 56.1068C14.5658 55.0078 12.4081 52.0435 12.3799 48.5549C12.3274 42.0698 12.3113 35.5827 12.3819 29.0976C12.4323 24.4878 15.9995 21.09 20.6093 21.0698C21.4118 21.0658 22.2124 21.0698 23.0694 21.0698C23.146 20.4104 23.1581 19.8075 23.2892 19.2307C23.9063 16.5226 26.2495 14.6331 29.0343 14.621C33.2347 14.6008 37.4351 14.6109 41.6375 14.6169C45.243 14.621 47.6205 16.8633 47.8685 20.479C47.8806 20.6403 47.9028 20.8016 47.931 21.0698C48.7719 21.0698 49.5685 21.0678 50.365 21.0698C54.9989 21.0859 58.5762 24.4394 58.6367 29.0471C58.7214 35.5665 58.7234 42.0859 58.6367 48.6053C58.5742 53.1788 55.009 56.5504 50.4537 56.5706C48.9171 56.5766 47.3826 56.5706 45.7472 56.5706H45.7451ZM44.5635 21.0234C44.7046 19.1319 43.6923 17.8696 41.9682 17.8575C37.6428 17.8252 33.3153 17.8212 28.9899 17.8615C27.2739 17.8777 26.2253 19.2731 26.5156 21.0234H44.5635Z" fill="#006600"/>
<path d="M44.5635 21.0254H26.5156C26.2253 19.273 27.2759 17.8796 28.9899 17.8635C33.3153 17.8211 37.6428 17.8272 41.9682 17.8595C43.6903 17.8716 44.7046 19.1359 44.5635 21.0254Z" fill="white"/>
</g>
<defs>
<clipPath id="clip0_284_2363">
<rect width="46.3678" height="42" fill="white" transform="translate(12.3335 14.6089)"/>
</clipPath>
</defs>
</svg>
