<svg width="72" height="72" viewBox="0 0 72 72" fill="none" xmlns="http://www.w3.org/2000/svg">
<rect x="0.5" y="0.5" width="71" height="71" rx="7.5" stroke="#006600"/>
<g clip-path="url(#clip0_284_2397)">
<path d="M29.9219 52.8216H27.3582V22.2944H45.5768V52.8216H43.0661V38.5766H29.9237V52.8216H29.9219ZM29.9731 30.2526H42.9747V23.6677H29.9731V30.2526ZM41.0034 32.6591C41.0034 32.6591 41.0034 32.65 41.0034 32.6463C40.7602 32.6463 40.4932 32.5823 40.2829 32.6628C40.0159 32.7633 39.7947 32.9846 39.5533 33.1528C39.7764 33.3449 39.9812 33.6667 40.2262 33.6996C40.7894 33.7764 41.3801 33.7581 41.9451 33.6813C42.1372 33.6557 42.2908 33.3412 42.4626 33.1583C42.2798 32.9919 42.1207 32.7432 41.9067 32.6792C41.6288 32.5951 41.307 32.6591 41.0034 32.6591ZM31.9425 37.11C31.9425 37.11 31.9425 37.1118 31.9425 37.1137C32.1857 37.1137 32.4509 37.1758 32.6648 37.0972C32.9355 36.9985 33.1641 36.7863 33.4109 36.6236C33.1622 36.4243 32.9373 36.1024 32.6612 36.0512C32.162 35.9598 31.6243 35.9726 31.1215 36.0549C30.8929 36.0933 30.7064 36.4005 30.5016 36.5852C30.7082 36.7589 30.8892 37.0039 31.127 37.0899C31.3683 37.1777 31.6664 37.11 31.9407 37.11H31.9425ZM36.4373 37.1137C36.6805 37.1137 36.953 37.1831 37.1614 37.0972C37.4431 36.9802 37.6771 36.7424 37.9313 36.5578C37.6899 36.3804 37.4668 36.0969 37.2035 36.0494C36.7317 35.9653 36.2234 35.9653 35.7516 36.0494C35.4882 36.0969 35.267 36.3859 35.0274 36.5669C35.2853 36.7498 35.5248 36.9729 35.8083 37.099C35.9856 37.1795 36.227 37.1137 36.441 37.1137H36.4373ZM40.9961 37.1063C40.9961 37.1063 40.9961 37.1118 40.9961 37.1137C41.2393 37.1137 41.5063 37.1777 41.7202 37.0972C41.9909 36.9966 42.2176 36.779 42.4626 36.6108C42.2341 36.417 42.0238 36.0896 41.7733 36.0531C41.2082 35.9726 40.6176 35.9927 40.0489 36.0677C39.8642 36.0915 39.5899 36.4133 39.5917 36.598C39.5917 36.7662 39.8824 37.0204 40.0909 37.0826C40.3689 37.1667 40.6925 37.1027 40.9961 37.1027V37.1063ZM36.4977 32.6609C36.4977 32.6609 36.4977 32.6591 36.4977 32.6573C36.1941 32.6573 35.8741 32.5969 35.5943 32.6774C35.3785 32.7396 35.2121 32.9773 35.0238 33.1382C35.2158 33.3321 35.3895 33.6685 35.6016 33.6941C36.1978 33.7673 36.8158 33.7563 37.4138 33.6868C37.604 33.6649 37.8874 33.3595 37.8947 33.1748C37.9002 33.0102 37.6095 32.7487 37.401 32.6847C37.1249 32.5988 36.8012 32.6628 36.4977 32.6628V32.6609ZM31.9791 32.6756C31.9791 32.6756 31.9791 32.6591 31.9791 32.65C31.7066 32.65 31.4122 32.586 31.1672 32.6683C30.9203 32.7505 30.7228 32.9773 30.5034 33.14C30.6972 33.3339 30.8764 33.6667 31.0904 33.6941C31.6865 33.7673 32.3046 33.7545 32.9026 33.685C33.0909 33.663 33.3268 33.3741 33.3817 33.1638C33.4128 33.045 33.1494 32.7396 32.9739 32.6957C32.6612 32.6171 32.3137 32.6737 31.9809 32.6737L31.9791 32.6756Z" fill="#006600"/>
<path d="M46.7965 32.9169H57.4227V52.8014H46.7965V32.9169ZM49.6985 42.0509C49.7351 41.9814 49.7735 41.9119 49.8101 41.8442C50.1118 41.8442 50.4355 41.9156 50.7061 41.8223C50.9365 41.7437 51.1029 41.4785 51.2968 41.2957C51.0993 41.1165 50.9274 40.8568 50.6951 40.78C50.4245 40.6886 50.0954 40.7196 49.8009 40.7635C49.2944 40.8385 48.4935 40.4435 48.4551 41.3103C48.4441 41.5389 49.2615 41.804 49.7004 42.0527L49.6985 42.0509ZM49.8887 50.2706C49.8887 50.2706 49.8887 50.2669 49.8887 50.2651C49.587 50.2651 49.2633 50.1956 48.9927 50.2852C48.7586 50.362 48.5849 50.6198 48.3856 50.7991C48.5886 50.9819 48.7769 51.2964 48.9982 51.3239C49.5907 51.3952 50.2032 51.3842 50.7976 51.3129C50.9822 51.291 51.2547 50.9783 51.2602 50.7917C51.2639 50.6217 50.9877 50.3565 50.7866 50.2925C50.5141 50.2066 50.1923 50.2706 49.8906 50.2706H49.8887ZM54.2336 51.5579C54.2701 51.4884 54.3067 51.4208 54.3433 51.3513C54.6139 51.3513 54.9156 51.4263 55.1479 51.3312C55.4094 51.2251 55.6069 50.9655 55.8336 50.7735C55.5941 50.6016 55.3764 50.3712 55.1113 50.2779C54.8699 50.1938 54.5664 50.2139 54.3067 50.2687C53.8185 50.3712 52.9883 49.8957 52.9883 50.8155C52.9883 51.0624 53.7965 51.3092 54.2336 51.5561V51.5579ZM49.8979 37.6091C49.6547 37.6091 49.384 37.5415 49.1756 37.6256C48.8885 37.7426 48.6489 37.973 48.3874 38.1559C48.6599 38.3369 48.9104 38.5966 49.2103 38.6771C49.5504 38.7685 49.9509 38.7685 50.2929 38.6807C50.6458 38.5893 51.2255 38.3735 51.2456 38.1669C51.3151 37.4647 50.6823 37.653 50.2618 37.611C50.1411 37.5982 50.0186 37.6091 49.8979 37.611V37.6091ZM54.5097 37.6091C54.1549 37.6091 53.855 37.5396 53.6136 37.6274C53.354 37.7243 53.1492 37.9694 52.9224 38.1504C53.1583 38.3314 53.3686 38.5747 53.6356 38.6734C53.877 38.763 54.1787 38.7191 54.4493 38.6899C54.9522 38.6368 55.7696 38.9331 55.7861 38.1687C55.8062 37.2507 54.912 37.7554 54.5115 37.6073L54.5097 37.6091ZM54.1933 42.0564C54.2336 41.9851 54.2738 41.9137 54.314 41.8424C54.6157 41.8424 54.9394 41.9119 55.21 41.8223C55.4478 41.7437 55.627 41.4877 55.8318 41.3085C55.6325 41.1256 55.4606 40.8623 55.2265 40.78C54.9577 40.6867 54.623 40.7087 54.3323 40.7635C53.8367 40.855 53.023 40.4051 52.9864 41.2957C52.9755 41.5316 53.7691 41.8022 54.1933 42.0582V42.0564ZM54.336 44.9877C54.336 44.9877 54.336 44.9913 54.336 44.9932C54.5792 44.9932 54.8425 45.0535 55.0601 44.9785C55.338 44.8834 55.5776 44.6786 55.8336 44.5214C55.5849 44.3166 55.3582 43.9874 55.0802 43.9344C54.5828 43.8393 54.0434 43.8557 53.5387 43.9344C53.3119 43.9709 53.1254 44.269 52.9206 44.4482C53.1181 44.6274 53.29 44.8798 53.5222 44.9657C53.7618 45.0553 54.0617 44.9858 54.336 44.9858V44.9877ZM49.8138 44.9932C50.057 44.9932 50.3221 45.0535 50.5379 44.9785C50.8104 44.8834 51.0444 44.675 51.2968 44.5159C51.0517 44.3129 50.8323 43.9911 50.5562 43.9344C50.0899 43.8375 49.5779 43.8466 49.1079 43.9344C48.8446 43.9819 48.6251 44.2763 48.3856 44.4574C48.6178 44.6366 48.8299 44.8706 49.0914 44.9767C49.2999 45.0626 49.5705 44.9931 49.8138 44.995V44.9932ZM49.6967 48.3816C49.7351 48.3103 49.7735 48.2371 49.8119 48.1658C50.1155 48.1658 50.4446 48.239 50.7134 48.1439C50.9438 48.0616 51.1048 47.7855 51.2949 47.5953C51.1102 47.4325 50.9493 47.1893 50.7336 47.1235C50.4556 47.0394 50.1264 47.0522 49.832 47.0979C49.3218 47.1765 48.5264 46.7724 48.4514 47.6227C48.4331 47.8367 49.2578 48.1256 49.6967 48.3816ZM49.662 35.6927C49.6949 35.6269 49.7278 35.5611 49.7625 35.4934C50.0661 35.4934 50.3879 35.5592 50.6659 35.4733C50.9036 35.4002 51.0883 35.1533 51.2968 34.9832C51.0993 34.7985 50.9292 34.5334 50.697 34.4511C50.4263 34.356 50.0954 34.3907 49.7973 34.4291C49.2816 34.4931 48.4953 34.1439 48.4514 35.0052C48.4404 35.2136 49.2396 35.4623 49.6656 35.6946L49.662 35.6927ZM54.3835 35.4916C54.3835 35.4916 54.3835 35.4952 54.3835 35.4989C54.6267 35.4989 54.8937 35.5647 55.104 35.4824C55.371 35.3782 55.5904 35.1533 55.8318 34.9796C55.5977 34.7949 55.3801 34.4913 55.1241 34.4529C54.592 34.3725 54.0287 34.3798 53.4948 34.4602C53.279 34.4931 53.1089 34.815 52.9188 35.007C53.1035 35.1697 53.2662 35.4111 53.4802 35.4733C53.7599 35.5538 54.0799 35.4934 54.3835 35.4934V35.4916ZM54.4164 47.0924C54.1732 47.0924 53.9026 47.0229 53.6959 47.1089C53.4125 47.2277 53.1784 47.4655 52.9224 47.652C53.1912 47.8275 53.4418 48.0872 53.7362 48.1567C54.1092 48.2445 54.5353 48.2463 54.9083 48.1585C55.2375 48.0817 55.5246 47.8275 55.8299 47.652C55.5099 47.4655 55.2009 47.2588 54.8681 47.0997C54.7456 47.0412 54.57 47.0906 54.4182 47.0924H54.4164Z" fill="#006600"/>
<path d="M15.5087 52.8161V32.9315H26.1586V52.8161H15.5087ZM23.1926 40.5551C23.1578 40.6209 23.1249 40.6886 23.0902 40.7544C22.9073 40.7544 22.7007 40.6995 22.5471 40.7654C22.2325 40.9025 21.9454 41.1037 21.6456 41.2792C21.9308 41.4694 22.1996 41.687 22.505 41.8351C22.6531 41.9064 22.8707 41.879 23.0463 41.8424C23.5784 41.7345 24.4196 42.2082 24.4872 41.2701C24.5019 41.0634 23.6479 40.7946 23.1926 40.5533V40.5551ZM18.5186 42.1314C19.1257 41.8114 19.9577 41.57 19.9541 41.3414C19.9358 40.3722 19.0763 40.7983 18.5661 40.7818C18.0633 40.7654 17.2642 40.4417 17.1819 41.2701C17.1599 41.4968 17.9993 41.8095 18.5204 42.1314H18.5186ZM18.5899 50.2688C18.5899 50.2688 18.5899 50.2651 18.5899 50.2633C18.3193 50.2633 18.0285 50.2029 17.7835 50.2797C17.5348 50.3584 17.3318 50.576 17.1069 50.7314C17.319 50.938 17.5092 51.2837 17.7469 51.3202C18.3046 51.408 18.8935 51.3989 19.4549 51.3202C19.6651 51.291 19.8334 50.9618 20.0217 50.768C19.8462 50.6016 19.6944 50.3511 19.4859 50.2871C19.2098 50.2029 18.8898 50.2669 18.5899 50.2669V50.2688ZM23.145 50.2615C22.9037 50.2615 22.6385 50.1956 22.4282 50.2779C22.1429 50.3895 21.9034 50.6144 21.6437 50.7899C21.8979 50.9783 22.1301 51.2763 22.4117 51.3312C22.8762 51.4208 23.3809 51.4172 23.8472 51.3312C24.1069 51.2837 24.319 50.9874 24.5531 50.8046C24.3245 50.6235 24.1179 50.3895 23.8582 50.2816C23.6534 50.1956 23.3846 50.2651 23.1432 50.2633L23.145 50.2615ZM18.4582 38.9313C18.5058 38.8526 18.5515 38.774 18.5991 38.6954C18.8423 38.6954 19.1147 38.7649 19.3214 38.6771C19.5829 38.5655 19.7913 38.3242 20.0217 38.1395C19.7877 37.9639 19.5774 37.7335 19.314 37.6274C19.1056 37.5433 18.8276 37.5708 18.5936 37.6146C18.0816 37.7097 17.2843 37.2745 17.1819 38.1029C17.1544 38.3223 18.0102 38.6515 18.4601 38.9294L18.4582 38.9313ZM23.1213 37.6146C23.1213 37.6146 23.1213 37.611 23.1213 37.6092C22.8781 37.6092 22.6129 37.547 22.3971 37.6238C22.1247 37.7207 21.8924 37.931 21.6437 38.0919C21.8906 38.2931 22.1137 38.6167 22.3898 38.6679C22.889 38.7612 23.4266 38.7447 23.9295 38.6624C24.1599 38.624 24.3483 38.3223 24.5549 38.1395C24.3501 37.9639 24.1709 37.7189 23.935 37.6329C23.6936 37.5452 23.3956 37.6128 23.1213 37.6128V37.6146ZM18.5753 44.9932C18.8185 44.9932 19.0873 45.059 19.2976 44.9767C19.5627 44.8743 19.7822 44.6494 20.0199 44.4775C19.7931 44.2873 19.5883 43.9764 19.336 43.9344C18.8349 43.8484 18.2955 43.8466 17.7945 43.9344C17.5403 43.9801 17.3336 44.2965 17.1051 44.4903C17.3519 44.6567 17.5787 44.8743 17.8493 44.9749C18.0633 45.0553 18.3302 44.9913 18.5735 44.9913L18.5753 44.9932ZM22.9347 45.1833C22.9658 45.1175 22.9969 45.0517 23.0298 44.9877C23.3334 44.9877 23.6589 45.0553 23.935 44.9676C24.1709 44.8908 24.3519 44.6366 24.5567 44.4629C24.3501 44.28 24.1691 44.0185 23.9277 43.9362C23.6552 43.843 23.3224 43.874 23.0243 43.9143C22.516 43.9819 21.7096 43.618 21.7096 44.5122C21.7096 44.7372 22.505 44.9621 22.9366 45.187L22.9347 45.1833ZM18.621 35.5007C18.8331 35.5007 19.0763 35.5666 19.25 35.4861C19.5298 35.3563 19.7639 35.1295 20.0181 34.943C19.7767 34.7711 19.5518 34.495 19.2884 34.4511C18.8167 34.3707 18.312 34.3688 17.842 34.4511C17.5768 34.4987 17.3538 34.7803 17.1105 34.9558C17.341 35.1368 17.5476 35.3837 17.8091 35.4806C18.0486 35.5702 18.3467 35.4989 18.621 35.5007ZM18.5808 47.129C18.5808 47.129 18.5808 47.1144 18.5808 47.1071C18.3083 47.1071 18.0139 47.0431 17.7689 47.1254C17.5238 47.2076 17.3245 47.4344 17.1069 47.5971C17.3044 47.7873 17.4836 48.1165 17.7012 48.1421C18.2973 48.2152 18.9136 48.2024 19.5115 48.1329C19.6981 48.111 19.934 47.8202 19.9888 47.6118C20.0199 47.4966 19.7511 47.1948 19.5737 47.151C19.2592 47.0742 18.9136 47.129 18.5808 47.129ZM23.028 48.175C23.3572 48.175 23.6278 48.2445 23.8344 48.1585C24.1014 48.047 24.3172 47.8129 24.5549 47.6319C24.319 47.4563 24.1032 47.2278 23.8399 47.1199C23.6314 47.0358 23.3535 47.0614 23.1213 47.1071C22.6129 47.2076 21.7278 46.7633 21.6968 47.5843C21.6584 48.5389 22.6129 48.0122 23.0298 48.1732L23.028 48.175ZM22.9219 35.6946C22.9549 35.6287 22.9878 35.5629 23.0207 35.4953C23.3242 35.4953 23.6479 35.5611 23.924 35.4751C24.1636 35.4002 24.3483 35.1515 24.5567 34.9796C24.3519 34.7986 24.1746 34.5371 23.935 34.4548C23.6625 34.3615 23.3316 34.3889 23.0353 34.4328C22.5306 34.5078 21.726 34.122 21.7096 35.0125C21.7059 35.2338 22.4977 35.4678 22.9238 35.6946H22.9219Z" fill="#006600"/>
<path d="M41.8976 39.6829V52.8124H31.0703V39.6829H41.8976Z" fill="#006600"/>
<path d="M14 57V54.0358H58.913V57H14Z" fill="#006600"/>
<path d="M47.4658 18.105C47.6815 20.1238 46.8361 21.1332 44.9294 21.1332C38.8401 21.1332 32.7508 21.1332 26.6614 21.1332C26.3012 21.1332 25.9409 21.1332 25.4966 21.1332V18.105H47.4658Z" fill="#006600"/>
<path d="M26.1769 28.7422V31.7192H14.0201V28.7422H26.1787H26.1769Z" fill="#006600"/>
<path d="M46.7654 31.721V28.7477H58.9221V31.721H46.7654Z" fill="#006600"/>
<path d="M29.5178 16.8652V15H43.4118V16.8652H29.5178Z" fill="#006600"/>
<path d="M29.9731 30.2545V23.6696H42.9747V30.2545H29.9731ZM31.0667 29.1335H41.894V24.7686H31.0667V29.1335Z" fill="white"/>
<path d="M41.0034 32.661C41.307 32.661 41.6288 32.5988 41.9068 32.6811C42.1207 32.7451 42.278 32.9938 42.4627 33.1602C42.2908 33.343 42.1372 33.6576 41.9452 33.6832C41.3801 33.76 40.7895 33.7782 40.2263 33.7014C39.9812 33.6685 39.7764 33.3449 39.5533 33.1547C39.7947 32.9865 40.016 32.7652 40.283 32.6646C40.4951 32.5842 40.7621 32.6482 41.0034 32.6482C41.0034 32.6518 41.0034 32.6573 41.0034 32.661Z" fill="white"/>
<path d="M31.9426 37.11C31.6701 37.11 31.372 37.1777 31.1288 37.0899C30.8911 37.004 30.7101 36.7607 30.5034 36.5852C30.7082 36.4005 30.8929 36.0933 31.1233 36.0549C31.6262 35.9726 32.1638 35.958 32.663 36.0512C32.9392 36.1024 33.1641 36.4243 33.4128 36.6236C33.1659 36.7864 32.9373 36.9985 32.6667 37.0972C32.4527 37.1758 32.1858 37.1137 31.9444 37.1137C31.9444 37.1137 31.9444 37.1118 31.9444 37.11H31.9426Z" fill="white"/>
<path d="M36.4373 37.1155C36.2234 37.1155 35.982 37.1795 35.8046 37.1009C35.5212 36.9747 35.2816 36.7516 35.0238 36.5687C35.2634 36.3877 35.4846 36.0988 35.7479 36.0512C36.2197 35.9671 36.7281 35.9671 37.1999 36.0512C37.465 36.097 37.6863 36.3822 37.9277 36.5596C37.6735 36.7443 37.4413 36.982 37.1578 37.0991C36.9494 37.185 36.6787 37.1155 36.4337 37.1155H36.4373Z" fill="white"/>
<path d="M40.9942 37.1063C40.6907 37.1063 40.367 37.1703 40.0891 37.0862C39.8806 37.0222 39.5898 36.7699 39.5898 36.6016C39.5898 36.4169 39.8623 36.0951 40.047 36.0713C40.6157 35.9964 41.2064 35.9762 41.7714 36.0567C42.0219 36.0914 42.2322 36.4188 42.4608 36.6144C42.2158 36.7808 41.9872 36.9984 41.7184 37.1008C41.5044 37.1813 41.2374 37.1173 40.9942 37.1173C40.9942 37.1155 40.9942 37.1118 40.9942 37.11V37.1063Z" fill="white"/>
<path d="M36.4958 32.6609C36.7994 32.6609 37.1212 32.5969 37.3992 32.6828C37.6077 32.7468 37.8984 33.0083 37.8929 33.1729C37.8856 33.3576 37.6022 33.663 37.412 33.6849C36.814 33.7544 36.196 33.7672 35.5998 33.6922C35.3877 33.6666 35.214 33.3302 35.022 33.1363C35.2103 32.9772 35.3767 32.7377 35.5925 32.6755C35.8723 32.595 36.1941 32.6554 36.4958 32.6554C36.4958 32.6554 36.4958 32.6572 36.4958 32.659V32.6609Z" fill="white"/>
<path d="M31.9773 32.6755C32.3101 32.6755 32.6575 32.6189 32.9702 32.6975C33.1458 32.7414 33.4091 33.0449 33.378 33.1656C33.3232 33.3741 33.0873 33.6648 32.8989 33.6868C32.301 33.7563 31.6829 33.7691 31.0867 33.6959C30.871 33.6685 30.6936 33.3357 30.4998 33.1418C30.7192 32.9791 30.9185 32.7505 31.1635 32.6701C31.4086 32.5878 31.703 32.6518 31.9755 32.6518C31.9755 32.6609 31.9755 32.6682 31.9755 32.6774L31.9773 32.6755Z" fill="white"/>
<path d="M49.7003 42.051C49.2633 41.8023 48.4459 41.5371 48.455 41.3086C48.4934 40.4418 49.2944 40.8368 49.8009 40.7618C50.0953 40.7179 50.4245 40.6886 50.6951 40.7782C50.9273 40.8569 51.0992 41.1147 51.2967 41.2939C51.1029 41.4768 50.9365 41.7419 50.7061 41.8206C50.4373 41.912 50.1118 41.8425 49.81 41.8425C49.7735 41.912 49.7351 41.9815 49.6985 42.0491L49.7003 42.051Z" fill="white"/>
<path d="M49.8906 50.2707C50.1923 50.2707 50.5123 50.2048 50.7866 50.2926C50.9896 50.3566 51.2657 50.6218 51.2602 50.7918C51.2566 50.9765 50.9823 51.2911 50.7976 51.313C50.2033 51.3825 49.5907 51.3953 48.9982 51.324C48.7769 51.2984 48.5886 50.9838 48.3856 50.7991C48.5849 50.6218 48.7587 50.3639 48.9927 50.2853C49.2634 50.1957 49.587 50.2652 49.8888 50.2652C49.8888 50.267 49.8888 50.2688 49.8888 50.2707H49.8906Z" fill="white"/>
<path d="M54.2354 51.558C53.7984 51.3111 52.9901 51.0643 52.9901 50.8174C52.9901 49.8976 53.8203 50.3731 54.3086 50.2706C54.5682 50.2158 54.8718 50.1957 55.1132 50.2798C55.3801 50.373 55.5977 50.6053 55.8355 50.7753C55.6105 50.9674 55.4112 51.227 55.1497 51.3331C54.9175 51.4282 54.6158 51.3532 54.3451 51.3532C54.3086 51.4227 54.272 51.4903 54.2354 51.5598V51.558Z" fill="white"/>
<path d="M49.8997 37.6074C50.0204 37.6074 50.1429 37.5964 50.2636 37.6074C50.6842 37.6494 51.3169 37.4593 51.2474 38.1633C51.2273 38.3699 50.6495 38.5875 50.2947 38.6771C49.9528 38.7649 49.5523 38.7649 49.2122 38.6735C48.9123 38.593 48.6617 38.3333 48.3893 38.1523C48.6489 37.9694 48.8903 37.739 49.1774 37.622C49.3859 37.5379 49.6565 37.6055 49.8997 37.6037V37.6074Z" fill="white"/>
<path d="M54.5114 37.6092C54.9119 37.7573 55.8061 37.2526 55.786 38.1706C55.7695 38.9368 54.9521 38.6387 54.4493 38.6917C54.1786 38.7192 53.8769 38.7649 53.6355 38.6753C53.3704 38.5765 53.1583 38.3315 52.9224 38.1523C53.1509 37.9712 53.3539 37.7262 53.6136 37.6293C53.8531 37.5397 54.153 37.611 54.5096 37.611L54.5114 37.6092Z" fill="white"/>
<path d="M54.1952 42.0564C53.7709 41.8022 52.9773 41.5316 52.9883 41.2939C53.0267 40.4033 53.8386 40.855 54.3341 40.7618C54.6249 40.7087 54.9577 40.6849 55.2283 40.7782C55.4624 40.8587 55.6343 41.1238 55.8336 41.3067C55.6288 41.4841 55.4496 41.7419 55.2119 41.8205C54.9412 41.9101 54.6176 41.8406 54.3159 41.8406C54.2756 41.912 54.2354 41.9833 54.1952 42.0546V42.0564Z" fill="white"/>
<path d="M54.3377 44.9896C54.0634 44.9896 53.7654 45.0591 53.524 44.9695C53.2917 44.8817 53.1199 44.6312 52.9224 44.452C53.1272 44.2728 53.3137 43.9729 53.5404 43.9381C54.0451 43.8577 54.5828 43.8412 55.082 43.9381C55.3599 43.9911 55.5848 44.3203 55.8354 44.5251C55.5794 44.6824 55.3398 44.8872 55.0619 44.9823C54.8443 45.0572 54.5809 44.9969 54.3377 44.9969C54.3377 44.9969 54.3377 44.9932 54.3377 44.9914V44.9896Z" fill="white"/>
<path d="M49.8174 44.9932C49.5742 44.9932 49.3036 45.0608 49.0951 44.9749C48.8336 44.867 48.6215 44.6347 48.3893 44.4555C48.6288 44.2727 48.8483 43.9801 49.1116 43.9326C49.5815 43.8466 50.0936 43.8375 50.5599 43.9326C50.8342 43.9892 51.0554 44.3111 51.3005 44.5141C51.0499 44.6731 50.8159 44.8816 50.5416 44.9767C50.3258 45.0535 50.0607 44.9913 49.8174 44.9913V44.9932Z" fill="white"/>
<path d="M49.7003 48.3835C49.2633 48.1293 48.4367 47.8385 48.455 47.6246C48.53 46.7724 49.3254 47.1784 49.8356 47.0998C50.13 47.0541 50.4592 47.0394 50.7371 47.1254C50.9511 47.1912 51.112 47.4326 51.2985 47.5972C51.1065 47.7873 50.9456 48.0635 50.717 48.1457C50.4482 48.2408 50.1191 48.1677 49.8155 48.1677C49.7771 48.239 49.7387 48.3122 49.7003 48.3835Z" fill="white"/>
<path d="M49.6656 35.6946C49.2395 35.4642 48.4404 35.2137 48.4514 35.0052C48.4953 34.1439 49.2816 34.495 49.7973 34.4292C50.0953 34.3926 50.4263 34.3579 50.697 34.4511C50.931 34.5334 51.0993 34.7986 51.2968 34.9833C51.0883 35.1533 50.9036 35.4002 50.6659 35.4733C50.3898 35.5593 50.0661 35.4935 49.7625 35.4935C49.7296 35.5593 49.6967 35.6251 49.662 35.6928L49.6656 35.6946Z" fill="white"/>
<path d="M54.3871 35.4934C54.0835 35.4934 53.7635 35.5556 53.4838 35.4733C53.2698 35.4112 53.1071 35.1698 52.9224 35.007C53.1125 34.8169 53.2844 34.4932 53.4984 34.4603C54.0323 34.378 54.5937 34.3707 55.1277 34.453C55.3837 34.4914 55.6013 34.7967 55.8354 34.9796C55.5958 35.1533 55.3746 35.3782 55.1076 35.4825C54.8973 35.5648 54.6285 35.4989 54.3871 35.4989C54.3871 35.4971 54.3871 35.4953 54.3871 35.4916V35.4934Z" fill="white"/>
<path d="M54.4182 47.0924C54.57 47.0924 54.7455 47.0412 54.868 47.1016C55.2008 47.2607 55.5117 47.4655 55.8299 47.6538C55.5245 47.8294 55.2374 48.0817 54.9083 48.1603C54.5352 48.2481 54.1091 48.2463 53.7361 48.1585C53.4417 48.089 53.193 47.8294 52.9224 47.6538C53.1784 47.4673 53.4124 47.2296 53.6959 47.1107C53.9025 47.0248 54.1731 47.0943 54.4164 47.0924H54.4182Z" fill="white"/>
<path d="M23.1944 40.5552C23.6497 40.7966 24.5037 41.0654 24.489 41.272C24.4232 42.2101 23.5802 41.7346 23.0481 41.8444C22.8725 41.8809 22.6549 41.9084 22.5068 41.837C22.2014 41.6889 21.9326 41.4713 21.6473 41.2811C21.9454 41.1056 22.2325 40.9044 22.5489 40.7673C22.7025 40.7015 22.9091 40.7563 23.092 40.7563C23.1267 40.6905 23.1596 40.6228 23.1944 40.557V40.5552Z" fill="white"/>
<path d="M18.5203 42.1295C17.9992 41.8077 17.158 41.495 17.1818 41.2683C17.2641 40.4399 18.0632 40.7636 18.566 40.78C19.0781 40.7965 19.9375 40.3704 19.954 41.3396C19.9576 41.5663 19.1274 41.8095 18.5185 42.1295H18.5203Z" fill="white"/>
<path d="M18.5917 50.267C18.8934 50.267 19.2134 50.2048 19.4877 50.2871C19.6962 50.3493 19.8461 50.5998 20.0235 50.768C19.8351 50.96 19.6669 51.2892 19.4566 51.3203C18.8952 51.3989 18.3064 51.408 17.7487 51.3203C17.5109 51.2837 17.3208 50.9363 17.1086 50.7315C17.3317 50.5742 17.5365 50.3584 17.7852 50.2798C18.0321 50.2011 18.321 50.2633 18.5917 50.2633C18.5917 50.2652 18.5917 50.267 18.5917 50.2688V50.267Z" fill="white"/>
<path d="M23.1468 50.2615C23.3882 50.2615 23.657 50.1939 23.8618 50.2798C24.1215 50.3877 24.3263 50.6236 24.5567 50.8028C24.3226 50.9857 24.1087 51.2819 23.8508 51.3294C23.3845 51.4154 22.8798 51.4209 22.4154 51.3294C22.1356 51.2746 21.9015 50.9765 21.6473 50.7882C21.907 50.6126 22.1466 50.3877 22.4318 50.2761C22.6403 50.1939 22.9073 50.2597 23.1486 50.2615H23.1468Z" fill="white"/>
<path d="M18.4582 38.9294C18.0083 38.6515 17.1525 38.3223 17.18 38.1029C17.2842 37.2727 18.0797 37.7097 18.5917 37.6146C18.8257 37.5707 19.1037 37.5415 19.3121 37.6274C19.5736 37.7335 19.7858 37.9639 20.0198 38.1394C19.7894 38.3241 19.581 38.5655 19.3195 38.6771C19.1147 38.7648 18.8404 38.6953 18.5972 38.6953C18.5496 38.774 18.5039 38.8526 18.4563 38.9312L18.4582 38.9294Z" fill="white"/>
<path d="M23.1212 37.6147C23.3955 37.6147 23.6936 37.547 23.935 37.6348C24.1727 37.7208 24.3519 37.9658 24.5549 38.1413C24.3482 38.3242 24.1599 38.6278 23.9295 38.6643C23.4266 38.7466 22.8871 38.7612 22.3898 38.6698C22.1155 38.6186 21.8905 38.2949 21.6437 38.0938C21.8924 37.9329 22.1246 37.7226 22.3971 37.6257C22.6129 37.5489 22.878 37.611 23.1212 37.611C23.1212 37.6129 23.1212 37.6147 23.1212 37.6165V37.6147Z" fill="white"/>
<path d="M18.577 44.9932C18.3338 44.9932 18.0668 45.0572 17.8529 44.9768C17.5823 44.8762 17.3555 44.6586 17.1086 44.4922C17.3372 44.2983 17.542 43.9802 17.798 43.9363C18.2991 43.8467 18.8367 43.8485 19.3396 43.9363C19.5919 43.9802 19.7967 44.291 20.0235 44.4794C19.7839 44.6513 19.5663 44.8744 19.3012 44.9786C19.0891 45.0609 18.8221 44.995 18.5789 44.995L18.577 44.9932Z" fill="white"/>
<path d="M22.9365 45.1852C22.5068 44.9602 21.7113 44.7353 21.7095 44.5104C21.7095 43.6162 22.5159 43.9819 23.0243 43.9124C23.3223 43.8722 23.6551 43.8411 23.9276 43.9344C24.169 44.0167 24.3482 44.2782 24.5567 44.461C24.3518 44.6366 24.1726 44.8908 23.9349 44.9657C23.6588 45.0535 23.3333 44.9858 23.0297 44.9858C22.9987 45.0517 22.9676 45.1175 22.9347 45.1815L22.9365 45.1852Z" fill="white"/>
<path d="M18.6228 35.5008C18.3503 35.5008 18.0504 35.5702 17.8108 35.4806C17.5493 35.3819 17.3427 35.1369 17.1123 34.9558C17.3555 34.7803 17.5786 34.4968 17.8438 34.4511C18.3137 34.3688 18.8202 34.3688 19.2902 34.4511C19.5535 34.4968 19.7766 34.773 20.0198 34.943C19.7656 35.1295 19.5316 35.3563 19.2518 35.4861C19.0781 35.5666 18.8349 35.5008 18.6228 35.5008Z" fill="white"/>
<path d="M18.5825 47.129C18.9153 47.129 19.2609 47.0742 19.5755 47.151C19.7528 47.1949 20.0198 47.4966 19.9906 47.6118C19.9339 47.8203 19.6998 48.111 19.5133 48.133C18.9153 48.2024 18.2991 48.2152 17.7029 48.1421C17.4853 48.1165 17.3061 47.7873 17.1086 47.5972C17.3281 47.4344 17.5256 47.2077 17.7706 47.1254C18.0156 47.0431 18.3101 47.1071 18.5825 47.1071C18.5825 47.1144 18.5825 47.1217 18.5825 47.129Z" fill="white"/>
<path d="M23.0298 48.175C22.6128 48.0141 21.6601 48.5426 21.6967 47.5862C21.7296 46.7633 22.6128 47.2077 23.1212 47.1089C23.3553 47.0632 23.6314 47.0358 23.8399 47.1217C24.1032 47.2278 24.319 47.4564 24.5549 47.6337C24.3171 47.8148 24.1014 48.0488 23.8344 48.1604C23.6277 48.2463 23.3571 48.1768 23.0279 48.1768L23.0298 48.175Z" fill="white"/>
<path d="M22.9237 35.6927C22.4976 35.4642 21.7058 35.2301 21.7095 35.0107C21.7259 34.1201 22.5287 34.506 23.0352 34.431C23.3315 34.3871 23.6643 34.3597 23.9349 34.4529C24.1745 34.5352 24.3519 34.7949 24.5567 34.9777C24.3482 35.1496 24.1635 35.3983 23.924 35.4733C23.6478 35.5592 23.3242 35.4934 23.0206 35.4934C22.9877 35.5592 22.9548 35.6251 22.9219 35.6927H22.9237Z" fill="white"/>
<path d="M31.0667 29.1317V24.7667H41.894V29.1317H31.0667Z" fill="#006600"/>
</g>
<defs>
<clipPath id="clip0_284_2397">
<rect width="44.924" height="42" fill="white" transform="translate(14 15)"/>
</clipPath>
</defs>
</svg>
