<svg width="72" height="70" viewBox="0 0 72 70" fill="none" xmlns="http://www.w3.org/2000/svg">
<rect x="0.5" y="1.2251" width="71" height="67.5497" rx="7.5" stroke="#006600"/>
<g clip-path="url(#clip0_284_2302)">
<path d="M57.8834 40.2196C57.3752 40.2196 56.9465 40.2174 56.5178 40.2196C56.0965 40.2225 55.8682 40.3927 55.8623 40.6998C55.8564 41.0151 56.0751 41.186 56.4979 41.1882C57.0224 41.1911 57.5468 41.1882 58.1125 41.1882V41.6309C58.1125 44.491 58.1125 47.3503 58.1125 50.2104C58.1125 50.8211 58.0116 50.9256 57.4157 50.9264C56.6423 50.9279 55.8689 50.9205 55.0962 50.9308C54.8694 50.9338 54.7832 50.8682 54.7522 50.6273C54.4002 47.9109 52.0358 45.8551 49.2611 45.8382C46.5417 45.822 44.164 47.8483 43.7545 50.5301C43.7361 50.6494 43.7118 50.768 43.6831 50.9271H43.2743C38.463 50.9271 33.6517 50.9234 28.8404 50.9352C28.4928 50.936 28.3926 50.8277 28.3447 50.4962C28.0302 48.3219 26.3169 46.4989 24.133 45.9825C21.966 45.4706 19.609 46.3604 18.3472 48.1576C17.8154 48.9148 17.4641 49.7412 17.3573 50.6612C17.333 50.8682 17.252 50.9308 17.056 50.9293C16.209 50.9227 15.3619 50.9323 14.5156 50.9227C14.1495 50.9183 14.0169 50.7688 14.0015 50.3975C13.9985 50.3239 14.0007 50.2502 14.0007 50.1766C14.0007 43.2049 14.0007 36.2333 14.0007 29.2616C14.0007 28.008 14.5414 27.4637 15.7877 27.4637C25.2018 27.4637 34.6159 27.4688 44.03 27.457C45.1481 27.4556 45.923 27.9071 46.5012 28.8661C47.8248 31.0611 49.2 33.2244 50.5523 35.4017C50.8904 35.9453 51.3316 36.3423 51.9231 36.6296C53.5656 37.4287 55.1809 38.2839 56.808 39.1133C57.2698 39.3482 57.6109 39.6944 57.8834 40.2189V40.2196ZM25.1539 29.7537C22.7372 29.7537 20.3205 29.7537 17.9038 29.7537C17.3566 29.7537 17.196 29.9091 17.196 30.4446C17.1945 32.1866 17.1945 33.9285 17.196 35.6705C17.196 36.195 17.3551 36.36 17.8707 36.36C22.7284 36.3614 27.5868 36.3614 32.4445 36.36C32.9733 36.36 33.128 36.206 33.128 35.686C33.1295 33.944 33.1287 32.202 33.128 30.46C33.128 29.8943 32.9829 29.7537 32.404 29.7537C29.9873 29.7537 27.5706 29.7537 25.1539 29.7537ZM41.4468 36.3614C42.4412 36.3614 43.4356 36.3614 44.4299 36.3614C45.1908 36.3614 45.9524 36.3688 46.7133 36.3585C47.2687 36.3511 47.4639 36.0049 47.198 35.5284C47.1678 35.4746 47.139 35.4208 47.1066 35.3685C46.0416 33.6324 44.9728 31.8993 43.9151 30.1588C43.7354 29.8627 43.5085 29.7463 43.1616 29.7485C40.8664 29.7596 38.5705 29.7537 36.2746 29.7544C35.7207 29.7544 35.5712 29.8995 35.5705 30.4497C35.5683 32.1807 35.5683 33.9116 35.5705 35.6425C35.5705 36.2185 35.7148 36.3607 36.2908 36.3614C38.0093 36.3629 39.7284 36.3614 41.4468 36.3614ZM36.5442 41.1874C36.7026 41.1874 36.8617 41.1933 37.02 41.186C37.3058 41.1727 37.4797 41.0173 37.4973 40.7337C37.5158 40.442 37.3338 40.2601 37.0664 40.2343C36.7166 40.2004 36.3579 40.2012 36.0073 40.2358C35.7369 40.2623 35.5616 40.4524 35.5852 40.7411C35.6073 41.021 35.7789 41.1793 36.0684 41.1867C36.2268 41.1904 36.3851 41.1867 36.5442 41.1867V41.1874Z" fill="#006600"/>
<path d="M24.6442 14C26.7766 16.1324 28.8979 18.253 31.0325 20.3875C29.932 21.7377 28.4898 22.3976 26.753 22.0743C24.7827 21.7075 23.4966 20.4502 23.0083 18.5144C22.5435 16.673 23.2638 15.1874 24.6442 14Z" fill="#006600"/>
<path d="M22.8499 46.8128C25.3763 46.7966 27.4498 48.8524 27.4586 51.3825C27.4675 53.9259 25.4426 55.9758 22.8985 55.9993C20.3595 56.0229 18.2692 53.9546 18.2625 51.4127C18.2559 48.8922 20.3131 46.829 22.8499 46.8128ZM22.8654 54.4982C24.5742 54.5004 25.959 53.1208 25.9597 51.4142C25.9612 49.7061 24.5875 48.3199 22.8816 48.3073C21.1742 48.2948 19.7607 49.7046 19.7637 51.4164C19.7673 53.1171 21.155 54.496 22.8646 54.4982H22.8654Z" fill="#006600"/>
<path d="M49.2493 46.8127C51.7765 46.8091 53.8374 48.8626 53.8514 51.3979C53.8662 53.9302 51.7758 56.011 49.2302 55.9993C46.6912 55.9875 44.6524 53.9361 44.6553 51.3972C44.6583 48.8634 46.7104 46.8157 49.2493 46.8127ZM49.2368 54.4981C50.9471 54.5018 52.3407 53.1281 52.3503 51.4281C52.3599 49.7156 50.956 48.305 49.2442 48.3072C47.5427 48.3095 46.155 49.6994 46.1543 51.4023C46.1535 53.1141 47.528 54.4937 49.2368 54.4981Z" fill="#006600"/>
<path d="M24.6707 22.4456C25.369 22.6599 26.0135 22.8765 26.6698 23.0503C26.9371 23.121 27.2303 23.0886 27.5087 23.1276C27.6111 23.1416 27.7614 23.2042 27.7916 23.283C28.193 24.3312 28.5767 25.3867 28.9789 26.4761H23.185C23.694 25.0965 24.1934 23.7419 24.6714 22.4463L24.6707 22.4456Z" fill="#006600"/>
<path d="M28.643 16.5375C28.4162 16.2878 28.2143 16.0646 27.9691 15.7943C28.3212 15.4577 28.6858 15.0968 29.0644 14.7506C29.2824 14.5517 29.5358 14.5201 29.753 14.7454C29.9659 14.9664 29.9431 15.2235 29.7405 15.4371C29.3958 15.8017 29.0327 16.1486 28.6438 16.5368L28.643 16.5375Z" fill="#006600"/>
<path d="M25.1539 29.7537C27.5706 29.7537 29.9873 29.7537 32.404 29.7537C32.9829 29.7537 33.128 29.8944 33.128 30.4601C33.1287 32.2021 33.1295 33.9441 33.128 35.6861C33.128 36.2061 32.9733 36.36 32.4445 36.36C27.5868 36.3615 22.7284 36.3615 17.8707 36.36C17.3551 36.36 17.196 36.1951 17.196 35.6706C17.1945 33.9286 17.1945 32.1866 17.196 30.4446C17.196 29.9092 17.3565 29.7537 17.9038 29.7537C20.3205 29.753 22.7372 29.7537 25.1539 29.7537ZM32.1358 35.3649V30.754H18.183V35.3649H32.1358Z" fill="white"/>
<path d="M41.4476 36.3615C39.7292 36.3615 38.01 36.3622 36.2916 36.3615C35.7163 36.3615 35.5719 36.2186 35.5712 35.6426C35.569 33.9116 35.569 32.1807 35.5712 30.4498C35.5719 29.8995 35.7222 29.7544 36.2754 29.7544C38.5713 29.7537 40.8664 29.7596 43.1623 29.7485C43.5092 29.7471 43.7354 29.8635 43.9158 30.1588C44.9735 31.8993 46.0423 33.6325 47.1074 35.3686C47.1398 35.4209 47.1685 35.4747 47.1987 35.5284C47.4646 36.005 47.2687 36.3512 46.7141 36.3585C45.9532 36.3688 45.1916 36.3615 44.4307 36.3615C43.4363 36.3615 42.4419 36.3615 41.4476 36.3615ZM36.545 30.7407C36.545 32.1829 36.5538 33.5809 36.5383 34.9789C36.5346 35.2971 36.6171 35.3988 36.9486 35.3973C39.8212 35.3848 42.6938 35.3899 45.5657 35.3892C45.6792 35.3892 45.7926 35.3752 45.9237 35.3671C45.8942 35.2802 45.8884 35.2426 45.8699 35.2124C44.9934 33.7783 44.1206 32.342 43.2279 30.9182C43.1594 30.8085 42.9516 30.7319 42.808 30.7311C40.8318 30.7193 38.8556 30.723 36.8786 30.7238C36.7829 30.7238 36.6878 30.7333 36.5442 30.7414L36.545 30.7407Z" fill="white"/>
<path d="M36.5442 41.1875C36.3859 41.1875 36.2268 41.1905 36.0684 41.1875C35.7789 41.1802 35.6073 41.0211 35.5852 40.7419C35.5624 40.4539 35.7377 40.2639 36.0073 40.2366C36.3571 40.202 36.7158 40.2013 37.0664 40.2352C37.3338 40.2609 37.5158 40.4429 37.4973 40.7346C37.4797 41.0181 37.3058 41.1736 37.02 41.1868C36.8617 41.1942 36.7033 41.1883 36.5442 41.1883V41.1875Z" fill="white"/>
<path d="M22.8654 54.4981C21.1558 54.4959 19.7681 53.1163 19.7644 51.4163C19.7607 49.7045 21.1742 48.2947 22.8823 48.3072C24.5882 48.3197 25.9619 49.706 25.9604 51.4141C25.959 53.1207 24.5749 54.5003 22.8661 54.4981H22.8654ZM24.9904 51.4096C24.9904 50.2363 24.0328 49.2729 22.8676 49.2729C21.7045 49.2729 20.7352 50.24 20.7337 51.403C20.7315 52.5727 21.6876 53.5302 22.8609 53.5339C24.0365 53.5369 24.9904 52.586 24.9904 51.4104V51.4096Z" fill="white"/>
<path d="M49.2368 54.498C47.5272 54.4943 46.1528 53.114 46.1543 51.4022C46.155 49.6993 47.5427 48.3093 49.2442 48.3071C50.956 48.3049 52.3599 49.7155 52.3503 51.428C52.3407 53.128 50.9471 54.5017 49.2368 54.498ZM49.253 53.5331C50.4293 53.5302 51.3832 52.5756 51.3817 51.4037C51.3795 50.2377 50.4116 49.2706 49.2486 49.2728C48.0782 49.275 47.1243 50.234 47.1243 51.4088C47.1243 52.5881 48.0752 53.5368 49.253 53.5331Z" fill="white"/>
<path d="M32.1358 35.3651H18.183V30.7542H32.1358V35.3651Z" fill="#006600"/>
<path d="M36.5442 30.7407C36.6871 30.7326 36.7829 30.723 36.8786 30.723C38.8548 30.7223 40.8311 30.7186 42.808 30.7304C42.9516 30.7311 43.1594 30.8078 43.2279 30.9175C44.1206 32.3413 44.9934 33.7783 45.8699 35.2117C45.8884 35.2419 45.8942 35.2795 45.9237 35.3664C45.7919 35.3745 45.6792 35.3885 45.5657 35.3885C42.6931 35.39 39.8205 35.3841 36.9486 35.3966C36.6171 35.3981 36.5346 35.2964 36.5383 34.9782C36.5538 33.5802 36.545 32.1822 36.545 30.74L36.5442 30.7407Z" fill="#006600"/>
<path d="M24.9911 51.4097C24.9911 52.5853 24.0373 53.537 22.8617 53.5333C21.6883 53.5303 20.7323 52.5728 20.7345 51.4024C20.7367 50.2393 21.706 49.2715 22.8683 49.2722C24.0336 49.2722 24.9911 50.2364 24.9911 51.409V51.4097Z" fill="#006600"/>
<path d="M49.253 53.534C48.0752 53.537 47.1243 52.5883 47.1243 51.4097C47.1243 50.2349 48.0782 49.2759 49.2486 49.2737C50.4124 49.2715 51.3802 50.2386 51.3817 51.4046C51.3839 52.5765 50.4293 53.5311 49.253 53.534Z" fill="#006600"/>
</g>
<defs>
<clipPath id="clip0_284_2302">
<rect width="44.114" height="42" fill="white" transform="translate(14 14)"/>
</clipPath>
</defs>
</svg>
