<svg width="72" height="72" viewBox="0 0 72 72" fill="none" xmlns="http://www.w3.org/2000/svg">
<rect x="0.5" y="0.5" width="71" height="71" rx="7.5" stroke="#006600"/>
<g clip-path="url(#clip0_284_2341)">
<path d="M56.7809 32.1168H44.1085V25.9307H27.4011V32.0709H14.6558V44.07C12.0004 42.809 10.2372 39.0782 10.7582 35.9747C11.2251 33.1985 12.6549 31.0788 15.1664 29.7657C15.7605 29.4552 15.8855 29.0904 15.9064 28.4693C16.0877 22.9231 18.6763 18.8129 23.6932 16.5119C28.6725 14.2275 33.4475 14.9633 37.7557 18.3711C38.2913 18.7962 38.7124 18.9505 39.4189 18.7608C46.2303 16.935 52.9958 21.116 54.3923 28.0295C54.5549 28.8361 54.9008 29.1467 55.6053 29.4385C61.4142 31.8458 62.5418 39.5868 57.6854 43.5719C57.4541 43.7616 57.1894 43.9095 56.7829 44.1826V32.1147L56.7809 32.1168ZM28.8913 19.2965C24.1538 19.7029 20.2916 23.5484 20.0916 28.09C20.0645 28.7069 20.0665 29.353 20.8919 29.3926C21.6506 29.4281 21.7131 28.8528 21.7569 28.2505C22.0403 24.33 24.7811 21.5704 28.76 21.1827C29.3665 21.1244 30.1044 21.0702 29.996 20.2969C29.9439 19.9197 29.279 19.6279 28.8913 19.2965Z" fill="#006600"/>
<path d="M29.6666 33.8655V57.1988H16.3711V33.8655H29.6646H29.6666ZM20.6897 51.861C20.7085 53.1804 21.784 54.2183 23.095 54.1829C24.3518 54.1474 25.3772 53.0991 25.3876 51.836C25.3981 50.5354 24.3143 49.4454 23.0199 49.4537C21.7152 49.462 20.673 50.5396 20.6897 51.861ZM22.9907 39.8098C24.0287 39.8098 25.0729 39.8744 26.1026 39.7744C26.4735 39.7389 27.0363 39.3575 27.1093 39.0428C27.2531 38.4113 26.7237 38.1549 26.1317 38.1528C24.0558 38.1466 21.9778 38.1132 19.904 38.1882C19.56 38.2007 18.9973 38.6676 18.9473 38.9886C18.8493 39.618 19.3829 39.8244 19.9832 39.814C20.9857 39.7973 21.9903 39.8098 22.9949 39.8098H22.9907ZM22.9991 44.5932C24.0725 44.5932 25.1521 44.6536 26.2172 44.5578C26.5486 44.5286 26.8446 44.0784 27.1551 43.822C26.8446 43.526 26.5423 42.9862 26.2214 42.9758C24.1121 42.8987 21.9966 42.8987 19.8873 42.9716C19.5475 42.9841 19.2224 43.4885 18.891 43.7678C19.2203 44.0429 19.5309 44.5202 19.8852 44.5578C20.9127 44.6661 21.959 44.5953 22.997 44.5953L22.9991 44.5932Z" fill="#006600"/>
<path d="M55.0676 33.8384V57.1905H41.7742V33.8384H55.0676ZM50.7407 51.8652C50.7615 50.5417 49.7236 49.4641 48.4167 49.4516C47.1245 49.437 46.0407 50.5229 46.0427 51.8277C46.0448 53.0845 47.0724 54.1433 48.3271 54.1808C49.6381 54.2204 50.7198 53.1824 50.7407 51.8673V51.8652ZM48.4209 39.8077C49.4255 39.8077 50.428 39.7952 51.4326 39.8119C52.0267 39.8223 52.5873 39.6285 52.481 39.0053C52.4248 38.6697 51.8162 38.2007 51.441 38.1862C49.4026 38.1049 47.3579 38.1445 45.3153 38.1507C44.7276 38.1507 44.1877 38.3904 44.3211 39.0261C44.3878 39.3408 44.9423 39.7368 45.3091 39.7723C46.3366 39.8744 47.3829 39.8077 48.4209 39.8077ZM48.4271 44.5932C49.4651 44.5932 50.5114 44.662 51.5389 44.5557C51.8954 44.5181 52.2038 44.0429 52.5352 43.7678C52.2038 43.4885 51.8828 42.982 51.5431 42.9695C49.4672 42.8945 47.3892 42.9299 45.3112 42.932C44.7172 42.932 44.1857 43.1738 44.3211 43.8074C44.3899 44.1263 44.9443 44.5202 45.3132 44.5577C46.3429 44.6599 47.3871 44.5932 48.4271 44.5932Z" fill="#006600"/>
<path d="M31.3945 32.1145H29.0726V27.5896H42.339V32.1145H40.0359C40.0359 32.6314 40.0359 33.0379 40.0359 33.4422C40.0359 38.9322 40.0171 44.4221 40.0546 49.9121C40.0609 50.775 39.8212 51.048 38.9479 51.0251C36.7594 50.9667 34.5688 50.975 32.3783 51.023C31.5946 51.0397 31.3737 50.7937 31.3778 50.0184C31.4091 44.493 31.3945 38.9697 31.3945 33.4443C31.3945 33.0399 31.3945 32.6335 31.3945 32.1166V32.1145ZM38.0496 45.5664C38.0496 44.2283 36.9741 43.1611 35.6631 43.1945C34.3792 43.2278 33.3787 44.2637 33.3787 45.5622C33.3787 46.8941 34.45 47.9549 35.7652 47.9258C37.0408 47.8987 38.0516 46.8565 38.0496 45.5664ZM35.6547 38.3402C36.6927 38.3402 37.7411 38.4153 38.7665 38.3027C39.1709 38.2589 39.5273 37.7921 39.9046 37.519C39.5315 37.2397 39.1667 36.7312 38.7832 36.7166C36.7427 36.6353 34.696 36.6353 32.6555 36.7166C32.2678 36.7312 31.8989 37.2293 31.5196 37.5065C31.8926 37.7858 32.2428 38.2569 32.643 38.3048C33.633 38.4215 34.648 38.3423 35.6506 38.3423L35.6547 38.3402ZM35.6693 33.5548C36.7073 33.5548 37.7557 33.6298 38.7811 33.5172C39.1792 33.4735 39.5315 33.0024 39.9046 32.7273C39.5252 32.4501 39.1563 31.9499 38.7665 31.9332C36.7281 31.854 34.6814 31.8519 32.6409 31.9332C32.2574 31.9478 31.8926 32.4605 31.5196 32.744C31.8989 33.0149 32.2553 33.4714 32.6596 33.5172C33.6497 33.6298 34.6626 33.5548 35.6672 33.5548H35.6693Z" fill="#006600"/>
<path d="M28.8913 19.2964C29.279 19.6278 29.9439 19.9196 29.996 20.2968C30.1044 21.068 29.3665 21.1222 28.76 21.1826C24.7812 21.5724 22.0403 24.3299 21.7569 28.2504C21.7131 28.8527 21.6527 29.428 20.8919 29.3926C20.0665 29.355 20.0645 28.7089 20.0916 28.0899C20.2896 23.5483 24.1538 19.7028 28.8913 19.2964Z" fill="white"/>
<path d="M20.6897 51.8588C20.671 50.5394 21.7152 49.4598 23.0199 49.4515C24.3143 49.4431 25.396 50.5332 25.3877 51.8338C25.3772 53.0948 24.3518 54.1452 23.095 54.1807C21.784 54.2161 20.7085 53.1781 20.6897 51.8588Z" fill="white"/>
<path d="M22.9908 39.8097C21.9862 39.8097 20.9836 39.7971 19.979 39.8138C19.3808 39.8242 18.8452 39.6179 18.9431 38.9885C18.9931 38.6675 19.5559 38.2006 19.8998 38.1881C21.9736 38.1131 24.0517 38.1464 26.1276 38.1527C26.7195 38.1527 27.251 38.4111 27.1051 39.0426C27.0322 39.3574 26.4715 39.7388 26.0984 39.7742C25.0688 39.8743 24.0246 39.8097 22.9866 39.8097H22.9908Z" fill="white"/>
<path d="M23.0012 44.5931C21.9632 44.5931 20.9169 44.664 19.8894 44.5556C19.535 44.5181 19.2245 44.0408 18.8952 43.7657C19.2266 43.4885 19.5496 42.982 19.8914 42.9695C22.0007 42.8965 24.1163 42.8965 26.2255 42.9737C26.5465 42.9862 26.8487 43.526 27.1593 43.8199C26.8466 44.0762 26.5528 44.5264 26.2214 44.5556C25.1563 44.6515 24.0767 44.591 23.0033 44.591L23.0012 44.5931Z" fill="white"/>
<path d="M50.7407 51.8672C50.7198 53.1824 49.6381 54.2203 48.3271 54.1807C47.0724 54.1432 46.0448 53.0844 46.0427 51.8276C46.0406 50.5228 47.1245 49.439 48.4167 49.4515C49.7235 49.4661 50.7615 50.5437 50.7407 51.8651V51.8672Z" fill="white"/>
<path d="M48.4209 39.8098C47.3829 39.8098 46.3387 39.8764 45.3091 39.7743C44.9422 39.7389 44.3878 39.3429 44.3211 39.0282C44.1877 38.3925 44.7297 38.1548 45.3153 38.1528C47.3579 38.1465 49.4005 38.109 51.441 38.1882C51.8162 38.2028 52.4248 38.6717 52.481 39.0073C52.5873 39.6305 52.0267 39.8243 51.4326 39.8139C50.4301 39.7972 49.4255 39.8098 48.4209 39.8098Z" fill="white"/>
<path d="M48.425 44.5951C47.3871 44.5951 46.3408 44.6618 45.3111 44.5597C44.9443 44.5221 44.3878 44.1282 44.319 43.8093C44.1815 43.1757 44.715 42.9339 45.3091 42.9339C47.3871 42.9339 49.4651 42.8964 51.541 42.9715C51.8807 42.984 52.2038 43.4904 52.5331 43.7697C52.2017 44.0449 51.8932 44.5201 51.5368 44.5576C50.5093 44.6639 49.463 44.5951 48.425 44.5951Z" fill="white"/>
<path d="M38.0496 45.5665C38.0496 46.8567 37.0408 47.8967 35.7652 47.9259C34.45 47.9551 33.3787 46.8942 33.3787 45.5623C33.3787 44.2638 34.3792 43.228 35.6631 43.1946C36.9741 43.1613 38.0496 44.2284 38.0496 45.5665Z" fill="white"/>
<path d="M35.6548 38.3404C34.6501 38.3404 33.6372 38.4175 32.6472 38.3029C32.247 38.2549 31.8968 37.7839 31.5237 37.5046C31.901 37.2295 32.2699 36.7313 32.6597 36.7147C34.7002 36.6355 36.7469 36.6355 38.7874 36.7147C39.1709 36.7293 39.5357 37.2378 39.9087 37.5171C39.5315 37.7902 39.173 38.257 38.7707 38.3008C37.7453 38.4133 36.6969 38.3383 35.6589 38.3383L35.6548 38.3404Z" fill="white"/>
<path d="M35.6714 33.5526C34.6668 33.5526 33.6539 33.6298 32.6638 33.5151C32.2595 33.4693 31.901 33.0107 31.5237 32.7419C31.8968 32.4584 32.2616 31.9478 32.6451 31.9311C34.6835 31.8498 36.7302 31.8498 38.7707 31.9311C39.1605 31.9457 39.5294 32.448 39.9087 32.7252C39.5357 33.0024 39.1834 33.4714 38.7853 33.5151C37.7599 33.6277 36.7115 33.5526 35.6735 33.5526H35.6714Z" fill="white"/>
</g>
<defs>
<clipPath id="clip0_284_2341">
<rect width="50.0682" height="42" fill="white" transform="translate(10.6665 15.1987)"/>
</clipPath>
</defs>
</svg>
