<svg width="72" height="74" viewBox="0 0 72 74" fill="none" xmlns="http://www.w3.org/2000/svg">
<rect x="0.5" y="1.29712" width="71" height="71.4058" rx="7.5" stroke="#006600"/>
<g clip-path="url(#clip0_284_2371)">
<path d="M39.2724 51.0346C39.525 47.0141 43.1554 44.0623 47.559 44.2015C51.497 44.3269 54.9797 47.5124 54.9848 51.0346H39.2741H39.2724Z" fill="#006600"/>
<path d="M15.3335 49.7375C15.6548 45.9455 19.8436 43.0127 23.9723 43.5487C28.1113 44.0865 31.4428 47.6551 30.8913 51.0381C25.7283 50.6069 20.5618 50.1739 15.3335 49.7358L15.3335 49.7375Z" fill="#006600"/>
<path d="M57.0689 33.9443V40.7173H45.4921V33.9443H57.0689Z" fill="#006600"/>
<path d="M29.2522 31.3964C29.3518 30.5888 29.7659 30.3998 30.4429 30.4308C31.5562 30.4823 32.6747 30.417 33.7898 30.4548C34.5733 30.4806 35.166 30.2212 35.6454 29.5992C36.1694 28.9205 36.7399 28.2762 37.2897 27.6182C38.0044 26.7625 38.8549 25.9687 38.5113 24.7128C39.1985 24.5582 39.7724 24.4293 40.4562 24.2747C41.8651 28.6473 43.3375 33.0234 42.853 37.9236C41.8926 37.7002 41.049 37.5044 40.2054 37.3051C39.9837 37.2535 39.7621 37.1917 39.5404 37.1384C37.745 36.6985 37.7055 36.6951 37.8807 34.867C37.9615 34.0217 38.2742 33.2004 38.3893 32.3551C38.4391 31.9857 38.3858 31.4376 38.1505 31.24C37.9048 31.0338 37.2227 30.9685 37.0148 31.1558C35.2743 32.7159 33.3586 32.3705 31.3878 31.8328C30.7023 31.6455 29.9927 31.5441 29.2522 31.3964Z" fill="#006600"/>
<path d="M28.1405 51.5004C28.4773 53.7236 27.3278 55.9882 25.3382 57.1531C23.2936 58.3506 20.7525 58.2011 18.878 56.7716C16.9605 55.3095 16.1547 52.9711 16.8076 50.5605C17.9107 50.6465 19.0378 50.7341 20.268 50.8303C19.7731 52.2014 19.9175 53.3749 21.1734 54.1618C22.0308 54.6996 22.9259 54.6377 23.7592 54.0724C24.6217 53.4883 24.9052 52.6206 24.6819 51.2186C25.8605 51.3148 27.0117 51.4093 28.1388 51.5004H28.1405Z" fill="#006600"/>
<path d="M41.3032 51.8027H44.6622C44.9405 53.6257 45.8133 54.5449 47.1999 54.5105C48.5417 54.4779 49.4146 53.5123 49.5915 51.7632C50.1379 51.7632 50.698 51.7632 51.2581 51.7632C51.8182 51.7632 52.3354 51.7632 52.9694 51.7632C53.0312 53.9641 52.222 55.6771 50.4918 56.8781C48.4799 58.2732 46.3167 58.378 44.1948 57.1358C42.2138 55.9744 41.2809 54.1772 41.3015 51.8044L41.3032 51.8027Z" fill="#006600"/>
<path d="M28.9343 53.0931V51.6533C29.357 51.6533 29.747 51.6206 30.1302 51.6584C31.5751 51.8045 31.5734 51.8148 31.7624 50.387C32.7417 50.387 33.7365 50.3939 34.7296 50.3853C35.8602 50.375 36.4082 49.9386 36.6677 48.8475C37.0285 47.3218 37.3807 45.7944 37.7432 44.2429H43.1657C42.2963 44.9611 41.317 45.6484 40.4854 46.4834C39.3411 47.6311 38.7913 49.1035 38.5748 50.7049C38.4769 51.4248 38.5972 51.8972 39.4872 51.7718C39.8188 51.7254 40.1641 51.7649 40.5696 51.7649V53.0948H28.936L28.9343 53.0931Z" fill="#006600"/>
<path d="M26.6595 31.3757C27.4962 31.5493 27.5718 32.1541 27.5649 32.9066C27.534 36.2845 27.5512 39.6623 27.5512 43.0402V43.9989C25.5925 43.0024 23.6355 42.6107 21.4861 42.9354C21.536 42.755 21.5446 42.6193 21.603 42.5145C23.1253 39.8462 23.9723 36.9511 24.4602 33.9409C24.5668 33.288 24.7626 32.8087 25.4104 32.4839C25.8726 32.252 26.2162 31.7812 26.6578 31.3757H26.6595Z" fill="#006600"/>
<path d="M37.8446 40.762C37.1865 40.762 36.5268 40.7551 35.8687 40.7637C34.8756 40.7774 34.4839 41.0867 34.2485 42.0609C33.6867 44.3976 33.142 46.7377 32.5596 49.0675C32.4994 49.3046 32.228 49.4884 32.0544 49.698C31.8603 49.4815 31.6352 49.284 31.4823 49.0417C31.3638 48.8544 31.3878 48.5744 31.2624 48.3974C30.4394 47.2273 30.7624 46.0298 31.0871 44.7996C31.4823 43.3065 31.8242 41.7997 32.1404 40.2878C32.2864 39.5885 32.673 39.1882 33.3173 38.9493C34.5767 38.4803 35.824 37.9803 37.0852 37.513C37.3137 37.4288 37.5937 37.3652 37.8205 37.4167C39.1298 37.7157 40.4373 38.0301 41.7293 38.4012C41.908 38.4528 42.1245 38.8634 42.0936 39.073C41.9578 39.9957 41.0764 40.6932 40.0782 40.7585C40.0215 40.762 39.9631 40.762 39.9064 40.762C39.2191 40.762 38.5318 40.762 37.8446 40.762Z" fill="#006600"/>
<path d="M46.1106 41.4473C48.6603 41.4473 51.2083 41.4542 53.758 41.4439C54.4504 41.4404 54.9487 41.6776 55.0346 42.4164C55.1119 43.0813 54.5879 43.5091 53.7151 43.5108C51.0519 43.5177 48.3871 43.5142 45.724 43.5142C43.432 43.5142 41.1417 43.5142 38.8497 43.5142C37.6745 43.5142 37.1951 43.2222 37.1797 42.5023C37.1642 41.76 37.6711 41.4473 38.8927 41.4473C41.2981 41.4473 43.7052 41.4473 46.1106 41.4473Z" fill="#006600"/>
<path d="M45.4663 33.1384V31.1763H57.0414V33.1384H45.4663Z" fill="#006600"/>
<path d="M36.556 18.7593C36.7965 17.1872 37.8463 16.1546 39.2672 16.0155C40.695 15.8763 42.0472 16.7697 42.5128 18.1597C42.9543 19.4827 42.4578 20.95 41.262 21.6716C40.9802 21.8417 40.5403 21.9637 40.2672 21.8606C40.0713 21.7867 39.9905 21.3056 39.9338 20.9929C39.8789 20.6888 39.9373 20.3641 39.9149 20.0514C39.86 19.2593 39.3978 18.7971 38.5954 18.7645C37.9202 18.737 37.2432 18.7593 36.5543 18.7593H36.556Z" fill="#006600"/>
<path d="M50.9609 44.1981C51.5794 44.1981 52.1344 44.2719 52.6619 44.1826C53.7529 43.9987 54.4504 44.5228 55.0587 45.3148C56.6548 47.3904 57.1634 49.7906 57.0912 52.3369C57.0844 52.6118 56.593 53.0619 56.2837 53.1015C55.4435 53.208 54.581 53.1375 53.6859 53.1375V51.763C54.1154 51.763 54.5346 51.7287 54.9453 51.7699C55.727 51.8507 55.7837 51.3988 55.715 50.8129C55.4023 48.1154 54.0037 46.1327 51.7134 44.7393C51.4935 44.6053 51.2633 44.4901 51.0399 44.363C51.0227 44.3527 51.0176 44.32 50.9575 44.1981H50.9609Z" fill="#006600"/>
<path d="M23.4706 32.441V27.7573C25.1115 27.9515 26.2042 28.936 26.1716 30.1541C26.1389 31.3379 25.0359 32.2829 23.4706 32.4427V32.441Z" fill="#006600"/>
<path d="M21.6648 50.9539C22.1751 50.9952 22.6854 51.0793 23.194 51.0673C23.8331 51.0519 24.0599 51.4075 24.0994 51.9504C24.1561 52.7442 23.8039 53.3284 23.0875 53.6651C22.3916 53.9933 21.7404 53.8524 21.2044 53.3284C20.67 52.8061 20.4828 52.1497 20.835 51.4625C20.9741 51.1927 21.3023 51.0209 21.5446 50.8044C21.5841 50.8543 21.6253 50.9041 21.6648 50.9539Z" fill="#006600"/>
<path d="M37.5061 23.3467C37.4116 22.8863 37.3498 22.5615 37.2742 22.2402C37.2175 21.998 37.2209 21.6578 37.0629 21.5358C36.3395 20.9791 36.8137 20.3331 36.8859 19.7283C36.8996 19.6166 37.1642 19.474 37.3257 19.4551C37.6917 19.4139 38.0645 19.45 38.4357 19.4397C39.0233 19.4242 39.1607 19.7455 39.2552 20.2833C39.5095 21.7196 38.6058 22.455 37.5044 23.3467H37.5061Z" fill="#006600"/>
<path d="M45.4783 51.8113H48.784C48.8957 52.9693 48.2325 53.7923 47.1947 53.8249C46.126 53.8593 45.4096 53.0415 45.4783 51.8113Z" fill="#006600"/>
<path d="M28.9291 30.0922C28.8535 30.7073 28.5391 31.1145 27.9017 31.1162C27.2746 31.1162 26.8845 30.7417 26.8794 30.1111C26.8742 29.4806 27.2539 29.0974 27.8828 29.0871C28.5202 29.0768 28.8432 29.4771 28.9291 30.0922Z" fill="#006600"/>
<path d="M40.7001 22.773C40.1228 23.797 39.3531 24.1097 38.3291 23.7352C39.1487 22.462 39.3136 22.395 40.7001 22.773Z" fill="#006600"/>
</g>
<defs>
<clipPath id="clip0_284_2371">
<rect width="41.7646" height="42" fill="white" transform="translate(15.3335 16)"/>
</clipPath>
</defs>
</svg>
