<svg width="72" height="72" viewBox="0 0 72 72" fill="none" xmlns="http://www.w3.org/2000/svg">
<rect x="0.5" y="0.5" width="71" height="71" rx="7.5" stroke="#006600"/>
<g clip-path="url(#clip0_284_2444)">
<path d="M28.3572 31.4656C28.3572 26.7313 28.3572 21.9988 28.3572 17.2645C28.3572 15.5578 28.8815 15.0052 30.5218 15.0035C34.1734 14.9982 37.8233 14.9982 41.4749 15.0035C43.1136 15.0052 43.6396 15.5595 43.6396 17.2662C43.6412 26.7331 43.6412 36.1999 43.6396 45.6668C43.6396 47.3735 43.1169 47.9155 41.4749 47.9173C37.7963 47.9208 34.1178 47.9208 30.4375 47.9173C28.9051 47.9155 28.3605 47.3489 28.3589 45.7545C28.3555 40.9921 28.3589 36.2297 28.3589 31.4656H28.3572ZM35.9233 24.7281C37.1827 24.7281 38.4437 24.7246 39.7031 24.7281C40.2088 24.7299 40.7314 24.6983 40.718 24.009C40.7045 23.3687 40.1886 23.3547 39.7267 23.3547C37.235 23.3547 34.7416 23.3547 32.2498 23.3547C31.7829 23.3547 31.2805 23.3828 31.2771 24.0283C31.2737 24.6545 31.7407 24.7317 32.2279 24.7281C33.4603 24.7211 34.6927 24.7264 35.925 24.7264L35.9233 24.7281ZM35.9588 29.6361C37.2198 29.6361 38.4791 29.6326 39.7402 29.6361C40.2189 29.6361 40.7011 29.5835 40.7196 28.959C40.7399 28.317 40.2543 28.2556 39.7756 28.2556C37.2552 28.2556 34.7331 28.2556 32.2128 28.2556C31.7323 28.2556 31.2501 28.3223 31.2754 28.9643C31.3007 29.5852 31.7812 29.6379 32.26 29.6361C33.4923 29.6308 34.7247 29.6343 35.9571 29.6361H35.9588ZM36.0397 42.8164C34.8073 42.8164 33.5766 42.8164 32.3443 42.8164C31.8554 42.8164 31.2973 42.8076 31.2822 43.4899C31.267 44.1758 31.8098 44.1968 32.3088 44.1951C34.7719 44.1933 37.235 44.1916 39.6997 44.1951C40.2038 44.1951 40.7281 44.1617 40.718 43.4759C40.7095 42.8392 40.2004 42.8164 39.7334 42.8164C38.501 42.8164 37.2704 42.8164 36.038 42.8164H36.0397ZM35.9992 34.4476C37.2906 34.4476 38.5853 34.4844 39.8733 34.4195C40.1684 34.4037 40.6404 34.0792 40.691 33.8214C40.8039 33.2601 40.342 33.118 39.8716 33.118C37.2872 33.118 34.7045 33.118 32.12 33.118C31.648 33.118 31.1911 33.2653 31.3041 33.8249C31.3563 34.081 31.8284 34.4055 32.1234 34.4213C33.4131 34.4862 34.7062 34.4493 35.9975 34.4493L35.9992 34.4476ZM35.9351 39.3432C37.1995 39.3432 38.4623 39.3432 39.7267 39.3432C40.1886 39.3432 40.6994 39.3433 40.723 38.6925C40.7483 38.0154 40.2341 38.0189 39.7705 38.0172C37.2434 38.0154 34.7146 38.0172 32.1875 38.0172C31.7508 38.0172 31.2805 38.0312 31.2737 38.6469C31.2687 39.3029 31.7542 39.3415 32.2279 39.3432C33.4637 39.345 34.6994 39.3432 35.9351 39.3432ZM38.9158 19.8132C38.9158 19.8132 38.9158 19.8097 38.9158 19.8079C39.3372 19.8079 39.7756 19.8833 40.1717 19.7781C40.396 19.7202 40.6623 19.3869 40.6994 19.1431C40.7264 18.9589 40.433 18.5485 40.2611 18.5362C39.3979 18.4695 38.5246 18.459 37.6632 18.5274C37.476 18.5432 37.1793 18.9695 37.1877 19.1957C37.1945 19.408 37.5114 19.722 37.7441 19.7851C38.1133 19.8851 38.5246 19.8114 38.9174 19.8114L38.9158 19.8132Z" fill="#006600"/>
<path d="M45.0961 34.5511C45.0961 30.8412 45.0927 27.1331 45.0961 23.4231C45.0978 21.9602 45.676 21.3463 47.0905 21.3393C49.7289 21.327 52.3672 21.327 55.0073 21.3393C56.3021 21.3463 56.9865 22.0286 56.9899 23.3916C57.0051 30.9272 57.0034 38.4627 56.9899 45.9983C56.9882 47.2543 56.356 47.9033 55.1708 47.9103C52.4195 47.9278 49.6682 47.9261 46.9185 47.9103C45.6659 47.9033 45.0995 47.2753 45.0978 45.9404C45.0927 42.1428 45.0961 38.347 45.0961 34.5494V34.5511ZM51.091 29.4853C50.0846 29.4853 49.0731 29.4344 48.0717 29.5151C47.7463 29.5414 47.227 29.8747 47.1798 30.1396C47.0753 30.7377 47.5794 30.8623 48.0733 30.8605C50.0323 30.857 51.9913 30.8868 53.9486 30.8307C54.2638 30.8219 54.7848 30.4764 54.832 30.2115C54.9399 29.6098 54.4375 29.4818 53.9452 29.4835C52.9944 29.4853 52.0436 29.4835 51.091 29.4835V29.4853ZM51.0826 39.8204C52.0368 39.8204 52.991 39.8134 53.9435 39.8239C54.4021 39.8292 54.8421 39.759 54.8623 39.1854C54.8842 38.5452 54.4038 38.4698 53.9233 38.4698C51.9593 38.4698 49.9952 38.468 48.0312 38.4698C47.576 38.4698 47.0787 38.5961 47.1798 39.1486C47.2287 39.4205 47.7345 39.7643 48.0548 39.7906C49.0579 39.873 50.0728 39.8204 51.0826 39.8204ZM50.9225 35.3334C51.9306 35.3334 52.9404 35.3352 53.9486 35.3334C54.3903 35.3334 54.8522 35.2843 54.8623 34.6914C54.8741 34.0389 54.392 34.0038 53.9132 34.0056C51.9795 34.0091 50.0458 34.0091 48.1138 34.0056C47.6401 34.0056 47.1343 34.0266 47.1529 34.6757C47.1714 35.3019 47.6805 35.3352 48.1492 35.3369C49.0731 35.3369 49.9986 35.3369 50.9225 35.3369V35.3334ZM51.032 44.2372C52.0385 44.2372 53.0483 44.2846 54.0497 44.2074C54.338 44.1846 54.601 43.8004 54.8741 43.5812C54.5993 43.3584 54.3279 42.948 54.0464 42.9409C52.0351 42.8848 50.0205 42.8848 48.0076 42.9374C47.7126 42.9445 47.2237 43.2865 47.1798 43.5408C47.0837 44.0846 47.5423 44.2372 48.011 44.2372C49.0174 44.2372 50.0239 44.2372 51.0304 44.2372H51.032ZM53.0348 26.3349C53.4277 26.3349 53.8424 26.4121 54.2082 26.3086C54.4645 26.235 54.6567 25.914 54.8775 25.7035C54.6668 25.4789 54.4712 25.086 54.2419 25.0615C53.4631 24.9808 52.6673 24.979 51.8901 25.0615C51.6609 25.086 51.467 25.4842 51.2579 25.7122C51.4855 25.9192 51.6845 26.2279 51.9492 26.3104C52.2846 26.4139 52.6724 26.3349 53.0365 26.3367L53.0348 26.3349Z" fill="#006600"/>
<path d="M26.9022 34.6651C26.9022 38.4048 26.9056 42.1445 26.9022 45.8842C26.9022 47.2928 26.3155 47.9102 24.9534 47.9155C22.2863 47.926 19.6193 47.926 16.9505 47.9155C15.6035 47.9102 15.0067 47.2875 15.0051 45.865C14.9983 38.3855 14.9983 30.9078 15.0051 23.4283C15.0051 21.9672 15.6086 21.3462 17.0096 21.3392C19.6496 21.3269 22.288 21.3252 24.9281 21.3392C26.3273 21.3462 26.9005 21.9707 26.9005 23.4459C26.9039 27.1856 26.9005 30.9253 26.9005 34.6651H26.9022ZM20.9258 30.8604C21.934 30.8604 22.9472 30.9131 23.9486 30.8289C24.2672 30.8026 24.7612 30.4588 24.8202 30.1781C24.9348 29.6308 24.4611 29.4835 23.9924 29.4852C22.0031 29.4852 20.0138 29.487 18.0244 29.4852C17.5676 29.4852 17.1394 29.5677 17.1309 30.1518C17.1208 30.7955 17.5827 30.8639 18.0683 30.8622C19.0208 30.8587 19.9733 30.8622 20.9258 30.8622V30.8604ZM20.9949 39.8203C21.9778 39.8203 22.9657 39.8747 23.9418 39.7905C24.2638 39.7625 24.7645 39.4222 24.8185 39.145C24.9314 38.5784 24.4274 38.4697 23.9739 38.4697C21.9795 38.4679 19.9834 38.4662 17.989 38.4697C17.5305 38.4697 17.1023 38.5767 17.1309 39.1731C17.1596 39.7519 17.5811 39.8274 18.043 39.8239C19.0258 39.8151 20.0104 39.8203 20.9933 39.8203H20.9949ZM20.9798 34.0073C19.9413 34.0073 18.8994 33.9652 17.866 34.0371C17.6064 34.0546 17.3686 34.4318 17.1225 34.644C17.3619 34.872 17.5962 35.2913 17.8407 35.2965C19.9446 35.3474 22.0503 35.3474 24.1543 35.293C24.3953 35.286 24.628 34.8528 24.864 34.6177C24.6078 34.4142 24.3616 34.0529 24.0936 34.0353C23.0584 33.9669 22.0183 34.0073 20.9798 34.009V34.0073ZM21.0337 42.9111C20.0256 42.9111 19.0157 42.9111 18.0076 42.9111C17.5541 42.9111 17.1174 42.9953 17.1343 43.5916C17.1512 44.1828 17.5945 44.2389 18.043 44.2389C20.0037 44.2389 21.966 44.267 23.9267 44.2091C24.2436 44.2003 24.7797 43.8442 24.8168 43.5846C24.9112 42.9514 24.3599 42.9111 23.8913 42.9093C22.9387 42.9075 21.9862 42.9093 21.0337 42.9093V42.9111ZM23.0365 26.3314C23.0365 26.3314 23.0365 26.3261 23.0365 26.3226C23.458 26.3226 23.8963 26.3963 24.2925 26.2945C24.5184 26.2367 24.8185 25.8928 24.8235 25.6718C24.8286 25.4648 24.4999 25.086 24.2942 25.0684C23.4867 24.9965 22.664 24.986 21.8581 25.0649C21.6356 25.086 21.3372 25.4736 21.2849 25.7385C21.2546 25.8893 21.6238 26.2437 21.8632 26.3068C22.2324 26.405 22.6437 26.3331 23.0365 26.3331V26.3314Z" fill="#006600"/>
<path d="M36.5303 49.4434V55.5616C36.8371 55.5792 37.0815 55.6072 37.326 55.6072C41.2035 55.6107 45.081 55.6107 48.9585 55.6072C50.0762 55.6072 50.356 55.3196 50.3645 54.1706C50.3763 52.6516 50.3813 51.1308 50.3915 49.6118C50.3915 49.5609 50.437 49.5118 50.4892 49.403H51.6592C51.6592 51.3009 51.7199 53.1655 51.6356 55.0231C51.5884 56.0545 50.5954 56.8737 49.5451 56.9842C49.294 57.0105 49.0394 56.9982 48.7865 56.9982C40.133 56.9982 31.4794 56.9982 22.8242 56.9982C20.7404 56.9982 19.9194 56.1457 19.9177 53.9794C19.9177 52.5463 19.9245 51.115 19.9346 49.6819C19.9346 49.6012 19.9868 49.5223 20.0324 49.396H21.2074C21.2074 50.8729 21.2074 52.3218 21.2074 53.7725C21.2074 55.3932 21.4097 55.609 22.9304 55.609C26.6679 55.609 30.4038 55.609 34.1414 55.609H35.195C35.195 54.6355 35.195 53.7146 35.195 52.7937C35.195 52.0043 35.195 51.215 35.195 50.4257C35.195 49.6398 35.6401 49.3124 36.5303 49.4434Z" fill="#006600"/>
<path d="M35.9249 24.7282C34.6926 24.7282 33.4602 24.723 32.2278 24.73C31.7406 24.7335 31.2736 24.6563 31.277 24.0301C31.2804 23.3846 31.7844 23.3565 32.2497 23.3565C34.7415 23.3548 37.2348 23.3548 39.7266 23.3565C40.1902 23.3565 40.706 23.3706 40.7178 24.0108C40.7313 24.7002 40.2087 24.7317 39.703 24.73C38.4436 24.7247 37.1826 24.73 35.9232 24.7282H35.9249Z" fill="white"/>
<path d="M35.9587 29.636C34.7264 29.636 33.494 29.6325 32.2616 29.6378C31.7828 29.6395 31.3024 29.5887 31.2771 28.966C31.2518 28.324 31.7339 28.2573 32.2144 28.2573C34.7348 28.2573 37.2568 28.2573 39.7772 28.2573C40.256 28.2573 40.7415 28.3187 40.7213 28.9607C40.7011 29.5834 40.2206 29.6395 39.7418 29.6378C38.4808 29.6343 37.2214 29.6378 35.9604 29.6378L35.9587 29.636Z" fill="white"/>
<path d="M36.0396 42.8164C37.272 42.8164 38.5026 42.8164 39.735 42.8164C40.202 42.8164 40.7111 42.8392 40.7196 43.4759C40.728 44.1618 40.2054 44.1969 39.7013 44.1951C37.2382 44.1916 34.7752 44.1916 32.3105 44.1951C31.8098 44.1951 31.2686 44.1758 31.2838 43.49C31.2989 42.8059 31.8553 42.8146 32.3459 42.8164C33.5782 42.8164 34.8089 42.8164 36.0413 42.8164H36.0396Z" fill="white"/>
<path d="M35.9991 34.4476C34.7077 34.4476 33.413 34.4844 32.125 34.4195C31.83 34.4055 31.3562 34.0792 31.3057 33.8231C31.1927 33.2636 31.6513 33.1162 32.1216 33.1162C34.706 33.1162 37.2888 33.1162 39.8732 33.1162C40.3419 33.1162 40.8038 33.2583 40.6926 33.8196C40.642 34.0757 40.1683 34.402 39.8749 34.4177C38.5869 34.4826 37.2922 34.4458 36.0008 34.4458L35.9991 34.4476Z" fill="white"/>
<path d="M35.9351 39.3432C34.6994 39.3432 33.4637 39.3432 32.2279 39.3432C31.7542 39.3432 31.2687 39.3029 31.2737 38.6469C31.2788 38.0312 31.7508 38.0171 32.1875 38.0171C34.7146 38.0171 37.2434 38.0154 39.7705 38.0171C40.2341 38.0171 40.7483 38.0136 40.723 38.6925C40.6994 39.345 40.1886 39.3432 39.7267 39.3432C38.4623 39.345 37.1995 39.3432 35.9351 39.3432Z" fill="white"/>
<path d="M38.9157 19.8149C38.5229 19.8149 38.1115 19.8886 37.7423 19.7886C37.5097 19.7254 37.1944 19.4115 37.186 19.1992C37.1775 18.9729 37.4742 18.5467 37.6614 18.5309C38.5245 18.4625 39.3961 18.473 40.2593 18.5397C40.4313 18.5537 40.7246 18.9624 40.6976 19.1466C40.6605 19.3904 40.3942 19.7219 40.17 19.7816C39.7738 19.8851 39.3338 19.8114 38.914 19.8114C38.914 19.8114 38.914 19.8149 38.914 19.8166L38.9157 19.8149Z" fill="white"/>
<path d="M51.0894 29.4853C52.0402 29.4853 52.9911 29.487 53.9436 29.4853C54.4375 29.4853 54.9399 29.6116 54.8303 30.2132C54.7831 30.4781 54.2605 30.8236 53.9469 30.8324C51.9897 30.8885 50.0307 30.8587 48.0717 30.8622C47.5777 30.8622 47.0737 30.7394 47.1782 30.1413C47.2237 29.8764 47.7446 29.5431 48.07 29.5168C49.0714 29.4361 50.0829 29.487 51.0894 29.487V29.4853Z" fill="white"/>
<path d="M51.0826 39.8204C50.0728 39.8204 49.0579 39.8731 48.0548 39.7906C47.7345 39.7643 47.2287 39.4205 47.1799 39.1486C47.0804 38.5961 47.576 38.4716 48.0312 38.4698C49.9953 38.4663 51.9593 38.468 53.9233 38.4698C54.4038 38.4698 54.8843 38.5452 54.8624 39.1855C54.8421 39.7608 54.4021 39.8292 53.9436 39.824C52.9894 39.8134 52.0352 39.8204 51.0826 39.8204Z" fill="white"/>
<path d="M50.9224 35.3353C49.9986 35.3353 49.073 35.3353 48.1492 35.3353C47.6805 35.3353 47.1714 35.3019 47.1528 34.674C47.1343 34.025 47.6417 34.0039 48.1138 34.0039C50.0475 34.0074 51.9812 34.0074 53.9132 34.0039C54.392 34.0039 54.8724 34.0372 54.8623 34.6898C54.8522 35.2826 54.3903 35.3318 53.9486 35.3318C52.9404 35.3353 51.9306 35.3318 50.9224 35.3318V35.3353Z" fill="white"/>
<path d="M51.0321 44.239C50.0256 44.239 49.0192 44.239 48.0127 44.239C47.544 44.239 47.0855 44.0864 47.1816 43.5426C47.2254 43.2883 47.7143 42.9462 48.0093 42.9392C50.0206 42.8866 52.0352 42.8866 54.0481 42.9427C54.3296 42.9497 54.5994 43.3602 54.8759 43.5829C54.6011 43.8022 54.3398 44.1863 54.0515 44.2091C53.0501 44.2863 52.0402 44.239 51.0338 44.239H51.0321Z" fill="white"/>
<path d="M53.0348 26.3366C52.669 26.3366 52.2812 26.4156 51.9474 26.3103C51.6828 26.2279 51.4838 25.9209 51.2562 25.7122C51.4653 25.4859 51.6591 25.086 51.8884 25.0614C52.6673 24.979 53.463 24.9807 54.2402 25.0614C54.4712 25.086 54.665 25.4789 54.8758 25.7034C54.6549 25.9139 54.4644 26.2349 54.2065 26.3086C53.8407 26.4121 53.4276 26.3349 53.0331 26.3349L53.0348 26.3366Z" fill="white"/>
<path d="M20.9258 30.8606C19.9733 30.8606 19.0208 30.8571 18.0682 30.8606C17.5827 30.8624 17.1208 30.794 17.1309 30.1502C17.1393 29.5661 17.5675 29.4836 18.0244 29.4836C20.0137 29.4854 22.0031 29.4854 23.9924 29.4836C24.461 29.4836 24.9348 29.6292 24.8201 30.1765C24.7611 30.4554 24.2672 30.801 23.9485 30.8273C22.9471 30.9115 21.9339 30.8589 20.9258 30.8589V30.8606Z" fill="white"/>
<path d="M20.9949 39.8203C20.012 39.8203 19.0275 39.8133 18.0446 39.8238C17.5827 39.8291 17.1596 39.7519 17.1326 39.1731C17.1039 38.5767 17.5321 38.4697 17.9907 38.4697C19.9851 38.4662 21.9811 38.4662 23.9755 38.4697C24.429 38.4697 24.9314 38.5784 24.8201 39.145C24.7645 39.4204 24.2638 39.7624 23.9435 39.7905C22.9674 39.8747 21.9795 39.8203 20.9966 39.8203H20.9949Z" fill="white"/>
<path d="M20.9798 34.0074C22.0183 34.0074 23.0585 33.9653 24.0936 34.0355C24.3617 34.053 24.6078 34.4143 24.8641 34.6178C24.628 34.8529 24.3954 35.2861 24.1543 35.2931C22.0503 35.3475 19.9447 35.3475 17.8407 35.2967C17.5963 35.2914 17.362 34.8722 17.1226 34.6441C17.3704 34.4319 17.6064 34.0548 17.866 34.0372C18.8995 33.9671 19.9413 34.0074 20.9798 34.0074Z" fill="white"/>
<path d="M21.0337 42.9112C21.9862 42.9112 22.9387 42.9094 23.8912 42.9112C24.3582 42.9112 24.9095 42.9533 24.8168 43.5865C24.778 43.8461 24.2436 44.2022 23.9266 44.211C21.9676 44.2688 20.0053 44.239 18.0429 44.2408C17.5945 44.2408 17.1494 44.1847 17.1343 43.5935C17.1174 42.9971 17.5557 42.9129 18.0075 42.9129C19.0157 42.9112 20.0255 42.9129 21.0337 42.9129V42.9112Z" fill="white"/>
<path d="M23.0365 26.3313C22.6437 26.3313 22.2324 26.4033 21.8632 26.305C21.6254 26.2419 21.2562 25.8876 21.2849 25.7367C21.3372 25.4718 21.6339 25.0859 21.8581 25.0631C22.6656 24.9842 23.4866 24.993 24.2942 25.0666C24.4998 25.0842 24.8269 25.4631 24.8235 25.6701C24.8185 25.8911 24.5184 26.2349 24.2925 26.2928C23.8963 26.3945 23.458 26.3208 23.0365 26.3208C23.0365 26.3243 23.0365 26.3261 23.0365 26.3296V26.3313Z" fill="white"/>
</g>
<defs>
<clipPath id="clip0_284_2444">
<rect width="42" height="42" fill="white" transform="translate(15 15)"/>
</clipPath>
</defs>
</svg>
