<svg width="19" height="18" viewBox="0 0 19 18" fill="none" xmlns="http://www.w3.org/2000/svg">
<rect width="18" height="18" transform="translate(0.290039)" fill="#DD4B39"/>
<g clip-path="url(#clip0_284_2187)">
<path d="M13.1829 12.3662V8.11007H12.297C12.3845 8.38593 12.4283 8.67274 12.4283 8.97049C12.4283 9.52222 12.2883 10.0312 12.0083 10.4976C11.7283 10.9639 11.3477 11.3328 10.8666 11.6043C10.3854 11.8758 9.86041 12.0115 9.29173 12.0115C8.42995 12.0115 7.69284 11.7149 7.08041 11.1216C6.46798 10.5282 6.16176 9.81122 6.16176 8.97049C6.16176 8.67274 6.20551 8.38593 6.293 8.11007H5.36779V12.3662C5.36779 12.4801 5.40607 12.5753 5.48262 12.6519C5.55917 12.7286 5.65432 12.7669 5.76806 12.7669H12.7826C12.8919 12.7669 12.986 12.7286 13.0647 12.6519C13.1435 12.5753 13.1829 12.4801 13.1829 12.3662ZM10.7255 10.2546C10.7255 10.2546 10.8244 10.1588 11.0224 9.96721C11.2203 9.77564 11.3193 9.40837 11.3193 8.8654C11.3193 8.32244 11.1214 7.85938 10.7255 7.47624C10.3296 7.0931 9.85166 6.90153 9.29173 6.90153C8.73616 6.90153 8.26044 7.0931 7.86454 7.47624C7.46865 7.85938 7.2707 8.32244 7.2707 8.8654C7.2707 9.40837 7.46865 9.87142 7.86454 10.2546C8.26044 10.6377 8.73616 10.8293 9.29173 10.8293C9.85166 10.8293 10.3296 10.6377 10.7255 10.2546ZM13.1829 6.50087V5.41713C13.1829 5.29452 13.1391 5.18834 13.0516 5.09857C12.9641 5.00881 12.857 4.96393 12.7301 4.96393H11.5883C11.4615 4.96393 11.3543 5.00881 11.2668 5.09857C11.1793 5.18834 11.1356 5.29452 11.1356 5.41713V6.50087C11.1356 6.62786 11.1793 6.73514 11.2668 6.82271C11.3543 6.91029 11.4615 6.95407 11.5883 6.95407H12.7301C12.857 6.95407 12.9641 6.91029 13.0516 6.82271C13.1391 6.73514 13.1829 6.62786 13.1829 6.50087ZM14.3246 5.1347V12.6355C14.3246 12.9902 14.1977 13.2945 13.944 13.5485C13.6903 13.8025 13.3863 13.9294 13.0319 13.9294H5.5384C5.18406 13.9294 4.88003 13.8025 4.62631 13.5485C4.37259 13.2945 4.24573 12.9902 4.24573 12.6355V5.1347C4.24573 4.78002 4.37259 4.47569 4.62631 4.22173C4.88003 3.96776 5.18406 3.84077 5.5384 3.84077H13.0319C13.3863 3.84077 13.6903 3.96776 13.944 4.22173C14.1977 4.47569 14.3246 4.78002 14.3246 5.1347Z" fill="#EEEEEE"/>
</g>
<defs>
<clipPath id="clip0_284_2187">
<rect width="10.29" height="12" fill="white" transform="matrix(1 0 0 -1 4.14001 15)"/>
</clipPath>
</defs>
</svg>
